M48
; DRILL file {KiCad (5.1.12)-1} date 03/11/22 14:50:14
; FORMAT={-:-/ absolute / inch / decimal}
; #@! TF.CreationDate,2022-03-11T14:50:14+01:00
; #@! TF.GenerationSoftware,Kicad,Pcbnew,(5.1.12)-1
; #@! TF.FileFunction,Plated,1,4,PTH
FMAT,2
INCH
T1C0.0098
T2C0.0157
T3C0.0197
T4C0.0236
T5C0.0394
T6C0.1260
%
G90
G05
T1
X7.2233Y-6.1348
X7.2233Y-6.18
X7.2233Y-6.2252
X7.2667Y-6.1348
X7.2667Y-6.18
X7.2667Y-6.2252
T2
X6.835Y-5.4
X6.835Y-6.185
X6.835Y-6.73
X6.87Y-6.22
X7.035Y-6.105
X7.065Y-6.185
X7.07Y-6.14
X7.245Y-5.415
X7.28Y-6.4633
X7.32Y-6.73
X7.345Y-6.596
X7.37Y-7.185
X7.415Y-6.19
X7.415Y-6.345
X7.45Y-5.51
X7.51Y-5.515
X7.535Y-5.295
X7.5391Y-6.1891
X7.5836Y-5.2436
X7.69Y-5.095
X7.695Y-5.595
X7.695Y-5.645
X7.74Y-5.88
X7.745Y-5.98
X7.78Y-6.67
X7.7894Y-6.4533
X7.905Y-6.37
X7.905Y-6.41
X7.93Y-6.07
X7.955Y-6.79
X8.02Y-7.135
X8.135Y-6.885
X8.155Y-6.015
X8.155Y-6.06
X8.16Y-7.13
X8.19Y-5.3
X8.215Y-6.015
X8.255Y-5.505
X8.265Y-6.015
X8.3Y-7.13
X8.32Y-7.85
X8.355Y-6.015
X8.405Y-7.275
X8.44Y-6.155
X8.44Y-7.79
X8.455Y-6.04
X8.47Y-6.915
X8.5Y-5.025
X8.515Y-7.835
X8.54Y-7.795
X8.5567Y-6.041
X8.565Y-7.875
X8.585Y-5.62
X8.605Y-6.04
X8.61Y-7.145
X8.675Y-5.99
X8.68Y-7.81
X8.725Y-7.775
X8.735Y-5.91
X8.845Y-5.735
X8.895Y-5.695
X8.935Y-6.855
X8.95Y-5.745
X8.985Y-7.865
X9.08Y-7.79
X9.115Y-5.75
X9.12Y-7.83
X9.13Y-5.045
X9.13Y-5.095
X9.13Y-5.145
X9.13Y-5.195
X9.13Y-5.245
X9.13Y-5.295
X9.13Y-5.345
X9.13Y-5.395
X9.13Y-5.445
X9.13Y-5.495
X9.13Y-5.545
X9.13Y-5.5933
X9.2Y-7.755
X9.205Y-7.865
X9.23Y-6.015
X9.255Y-6.61
X9.27Y-5.974
X9.37Y-7.755
X9.41Y-7.83
X9.455Y-5.3
X9.495Y-7.3475
X9.505Y-6.09
X9.52Y-6.63
X9.525Y-6.51
X9.535Y-6.45
X9.57Y-7.83
X9.615Y-6.93
X9.615Y-7.03
X9.615Y-6.98
X9.665Y-7.1075
X9.665Y-7.2275
X9.68Y-6.41
X9.69Y-4.94
X9.7076Y-7.4574
X9.71Y-7.7
X9.76Y-6.375
X9.804Y-5.592
X9.84Y-6.56
X9.845Y-7.785
X9.858Y-6.984
X9.86Y-6.285
X9.9Y-5.294
X9.905Y-6.33
X9.925Y-7.42
X9.93Y-7.67
X9.945Y-6.365
X9.99Y-5.675
X10.016Y-6.268
X10.07Y-5.66
T3
X6.5105Y-4.815
X6.5172Y-8.085
X6.5382Y-4.7482
X6.5382Y-4.8818
X6.5449Y-8.0182
X6.5449Y-8.1518
X6.605Y-4.7205
X6.605Y-4.9095
X6.6117Y-7.9905
X6.6117Y-8.1795
X6.6718Y-4.7482
X6.6718Y-4.8818
X6.6785Y-8.0182
X6.6785Y-8.1518
X6.6995Y-4.815
X6.7062Y-8.085
X10.0594Y-4.815
X10.0605Y-8.085
X10.0871Y-4.7482
X10.0871Y-4.8818
X10.0882Y-8.0182
X10.0882Y-8.1518
X10.1539Y-4.7205
X10.1539Y-4.9095
X10.155Y-7.9905
X10.155Y-8.1795
X10.2208Y-4.7482
X10.2208Y-4.8818
X10.2218Y-8.0182
X10.2218Y-8.1518
X10.2484Y-4.815
X10.2495Y-8.085
T4
X6.6Y-7.525
X6.81Y-6.966
X6.885Y-5.31
X6.965Y-5.63
X7.02Y-5.49
X7.025Y-5.055
X7.03Y-6.6
X7.035Y-4.775
X7.055Y-6.77
X7.18Y-7.005
X7.23Y-7.37
X7.24Y-6.06
X7.265Y-5.055
X7.275Y-7.005
X7.335Y-7.65
X7.34Y-4.755
X7.395Y-7.38
X7.4Y-6.755
X7.4Y-6.985
X7.455Y-8.115
X7.55Y-7.335
X7.5559Y-6.4791
X7.64Y-7.335
X7.69Y-7.71
X7.73Y-7.335
X7.74Y-6.9315
X7.775Y-7.71
X7.79Y-4.94
X7.835Y-6.79
X7.855Y-6.29
X7.8659Y-6.0391
X7.87Y-7.335
X7.89Y-4.97
X8.005Y-6.33
X8.02Y-6.485
X8.02Y-6.935
X8.065Y-7.41
X8.095Y-6.17
X8.145Y-5.51
X8.1495Y-8.1745
X8.2Y-5.55
X8.21Y-7.61
X8.225Y-7.865
X8.23Y-6.485
X8.265Y-5.185
X8.3Y-6.925
X8.3Y-7.41
X8.33Y-7.61
X8.342Y-6.772
X8.375Y-5.415
X8.44Y-7.61
X8.45Y-6.705
X8.54Y-7.61
X8.5676Y-6.9326
X8.64Y-7.61
X8.74Y-7.34
X8.765Y-8.13
X8.78Y-6.23
X8.78Y-6.34
X8.78Y-6.49
X8.85Y-4.97
X8.85Y-7.61
X8.88Y-7.87
X8.885Y-7.505
X8.97Y-7.36
X8.97Y-7.61
X9.08Y-7.05
X9.08Y-7.19
X9.08Y-7.61
X9.16Y-7.61
X9.24Y-7.61
X9.32Y-5.225
X9.33Y-6.795
X9.385Y-6.48
X9.425Y-6.055
X9.45Y-8.035
X9.575Y-6.055
X9.61Y-6.605
X9.66Y-5.16
X9.66Y-5.3
X9.66Y-5.44
X9.66Y-5.58
X9.66Y-7.92
X9.73Y-8.03
X9.79Y-6.71
X9.805Y-6.85
X9.865Y-6.13
X9.925Y-7.53
X9.94Y-7.92
X10.16Y-7.82
T5
X6.6Y-5.22
X6.6Y-5.32
X6.6Y-5.42
X6.6Y-5.52
X6.6Y-5.62
X6.6Y-5.72
X6.6Y-5.82
X6.6Y-5.92
X6.6Y-6.02
X6.6Y-6.12
X6.6Y-6.22
X6.6Y-6.32
X6.6Y-6.42
X6.6Y-6.52
X6.6Y-6.62
X6.6Y-6.72
X6.6Y-6.82
X6.6Y-6.92
X6.6Y-7.02
X6.6Y-7.12
X6.6Y-7.22
X6.6Y-7.32
X7.16Y-7.18
X7.16Y-7.28
X7.26Y-7.18
X7.26Y-7.28
X9.81Y-4.98
X9.81Y-5.08
X9.91Y-4.98
X9.91Y-5.08
X10.16Y-5.22
X10.16Y-5.32
X10.16Y-5.42
X10.16Y-5.52
X10.16Y-5.62
X10.16Y-5.72
X10.16Y-5.82
X10.16Y-5.92
X10.16Y-6.02
X10.16Y-6.12
X10.16Y-6.22
X10.16Y-6.32
X10.16Y-6.42
X10.16Y-6.52
X10.16Y-6.62
X10.16Y-6.72
X10.16Y-6.82
X10.16Y-6.92
X10.16Y-7.02
X10.16Y-7.12
X10.16Y-7.22
X10.16Y-7.32
T6
X6.605Y-4.815
X6.6117Y-8.085
X10.1539Y-4.815
X10.155Y-8.085
T0
M30
