%TF.GenerationSoftware,KiCad,Pcbnew,(5.1.12)-1*%
%TF.CreationDate,2022-03-11T14:49:08+01:00*%
%TF.ProjectId,ESP_S3-CP-24_Platform,4553505f-5333-42d4-9350-2d32345f506c,R0.8*%
%TF.SameCoordinates,Original*%
%TF.FileFunction,Soldermask,Top*%
%TF.FilePolarity,Negative*%
%FSLAX46Y46*%
G04 Gerber Fmt 4.6, Leading zero omitted, Abs format (unit mm)*
G04 Created by KiCad (PCBNEW (5.1.12)-1) date 2022-03-11 14:49:08*
%MOMM*%
%LPD*%
G01*
G04 APERTURE LIST*
%ADD10C,0.300000*%
%ADD11C,0.650000*%
%ADD12R,2.180000X2.000000*%
%ADD13R,0.300000X1.150000*%
%ADD14R,0.600000X1.150000*%
%ADD15R,0.700000X0.600000*%
%ADD16R,1.651000X2.845000*%
%ADD17R,2.600000X2.600000*%
%ADD18R,3.000000X2.000000*%
%ADD19C,2.000000*%
%ADD20C,1.800000*%
%ADD21R,2.000000X2.000000*%
%ADD22R,0.900000X0.800000*%
%ADD23R,1.400000X0.700000*%
%ADD24O,1.700000X1.700000*%
%ADD25R,1.700000X1.700000*%
%ADD26R,1.500000X0.900000*%
%ADD27R,0.900000X1.500000*%
%ADD28R,0.900000X0.900000*%
%ADD29C,0.800000*%
%ADD30C,6.400000*%
%ADD31R,0.450000X0.600000*%
%ADD32R,2.400000X0.740000*%
%ADD33R,0.700000X1.200000*%
%ADD34R,1.000000X1.200000*%
%ADD35R,1.000000X0.800000*%
%ADD36R,1.000000X2.800000*%
%ADD37R,1.300000X1.900000*%
%ADD38C,0.900000*%
G04 APERTURE END LIST*
D10*
X201585857Y-113065642D02*
X201800142Y-113137071D01*
X202157285Y-113137071D01*
X202300142Y-113065642D01*
X202371571Y-112994214D01*
X202443000Y-112851357D01*
X202443000Y-112708500D01*
X202371571Y-112565642D01*
X202300142Y-112494214D01*
X202157285Y-112422785D01*
X201871571Y-112351357D01*
X201728714Y-112279928D01*
X201657285Y-112208500D01*
X201585857Y-112065642D01*
X201585857Y-111922785D01*
X201657285Y-111779928D01*
X201728714Y-111708500D01*
X201871571Y-111637071D01*
X202228714Y-111637071D01*
X202443000Y-111708500D01*
X203300142Y-113137071D02*
X203157285Y-113065642D01*
X203085857Y-112994214D01*
X203014428Y-112851357D01*
X203014428Y-112422785D01*
X203085857Y-112279928D01*
X203157285Y-112208500D01*
X203300142Y-112137071D01*
X203514428Y-112137071D01*
X203657285Y-112208500D01*
X203728714Y-112279928D01*
X203800142Y-112422785D01*
X203800142Y-112851357D01*
X203728714Y-112994214D01*
X203657285Y-113065642D01*
X203514428Y-113137071D01*
X203300142Y-113137071D01*
X204657285Y-113137071D02*
X204514428Y-113065642D01*
X204443000Y-112922785D01*
X204443000Y-111637071D01*
X205871571Y-113137071D02*
X205871571Y-111637071D01*
X205871571Y-113065642D02*
X205728714Y-113137071D01*
X205443000Y-113137071D01*
X205300142Y-113065642D01*
X205228714Y-112994214D01*
X205157285Y-112851357D01*
X205157285Y-112422785D01*
X205228714Y-112279928D01*
X205300142Y-112208500D01*
X205443000Y-112137071D01*
X205728714Y-112137071D01*
X205871571Y-112208500D01*
X207157285Y-113065642D02*
X207014428Y-113137071D01*
X206728714Y-113137071D01*
X206585857Y-113065642D01*
X206514428Y-112922785D01*
X206514428Y-112351357D01*
X206585857Y-112208500D01*
X206728714Y-112137071D01*
X207014428Y-112137071D01*
X207157285Y-112208500D01*
X207228714Y-112351357D01*
X207228714Y-112494214D01*
X206514428Y-112637071D01*
X207871571Y-113137071D02*
X207871571Y-112137071D01*
X207871571Y-112422785D02*
X207943000Y-112279928D01*
X208014428Y-112208500D01*
X208157285Y-112137071D01*
X208300142Y-112137071D01*
X209943000Y-113137071D02*
X209943000Y-111637071D01*
X210443000Y-112708500D01*
X210943000Y-111637071D01*
X210943000Y-113137071D01*
X212300142Y-113137071D02*
X212300142Y-112351357D01*
X212228714Y-112208500D01*
X212085857Y-112137071D01*
X211800142Y-112137071D01*
X211657285Y-112208500D01*
X212300142Y-113065642D02*
X212157285Y-113137071D01*
X211800142Y-113137071D01*
X211657285Y-113065642D01*
X211585857Y-112922785D01*
X211585857Y-112779928D01*
X211657285Y-112637071D01*
X211800142Y-112565642D01*
X212157285Y-112565642D01*
X212300142Y-112494214D01*
X212943000Y-113065642D02*
X213085857Y-113137071D01*
X213371571Y-113137071D01*
X213514428Y-113065642D01*
X213585857Y-112922785D01*
X213585857Y-112851357D01*
X213514428Y-112708500D01*
X213371571Y-112637071D01*
X213157285Y-112637071D01*
X213014428Y-112565642D01*
X212943000Y-112422785D01*
X212943000Y-112351357D01*
X213014428Y-112208500D01*
X213157285Y-112137071D01*
X213371571Y-112137071D01*
X213514428Y-112208500D01*
X214228714Y-113137071D02*
X214228714Y-111637071D01*
X214371571Y-112565642D02*
X214800142Y-113137071D01*
X214800142Y-112137071D02*
X214228714Y-112708500D01*
X216371571Y-111637071D02*
X217228714Y-111637071D01*
X216800142Y-113137071D02*
X216800142Y-111637071D01*
X217943000Y-113137071D02*
X217800142Y-113065642D01*
X217728714Y-112994214D01*
X217657285Y-112851357D01*
X217657285Y-112422785D01*
X217728714Y-112279928D01*
X217800142Y-112208500D01*
X217943000Y-112137071D01*
X218157285Y-112137071D01*
X218300142Y-112208500D01*
X218371571Y-112279928D01*
X218443000Y-112422785D01*
X218443000Y-112851357D01*
X218371571Y-112994214D01*
X218300142Y-113065642D01*
X218157285Y-113137071D01*
X217943000Y-113137071D01*
X219085857Y-112137071D02*
X219085857Y-113637071D01*
X219085857Y-112208500D02*
X219228714Y-112137071D01*
X219514428Y-112137071D01*
X219657285Y-112208500D01*
X219728714Y-112279928D01*
X219800142Y-112422785D01*
X219800142Y-112851357D01*
X219728714Y-112994214D01*
X219657285Y-113065642D01*
X219514428Y-113137071D01*
X219228714Y-113137071D01*
X219085857Y-113065642D01*
D11*
%TO.C,J8*%
X233522000Y-202565000D03*
X227742000Y-202565000D03*
D12*
X235742000Y-205995000D03*
X225522000Y-205995000D03*
X235742000Y-202065000D03*
X225522000Y-202065000D03*
D13*
X230882000Y-201490000D03*
X230382000Y-201490000D03*
X231382000Y-201490000D03*
X229882000Y-201490000D03*
X231882000Y-201490000D03*
X229382000Y-201490000D03*
X232382000Y-201490000D03*
X228882000Y-201490000D03*
D14*
X233832000Y-201490000D03*
X233032000Y-201490000D03*
X228232000Y-201490000D03*
X227432000Y-201490000D03*
%TD*%
D11*
%TO.C,J7*%
X217393000Y-202565000D03*
X211613000Y-202565000D03*
D12*
X219613000Y-205995000D03*
X209393000Y-205995000D03*
X219613000Y-202065000D03*
X209393000Y-202065000D03*
D13*
X214753000Y-201490000D03*
X214253000Y-201490000D03*
X215253000Y-201490000D03*
X213753000Y-201490000D03*
X215753000Y-201490000D03*
X213253000Y-201490000D03*
X216253000Y-201490000D03*
X212753000Y-201490000D03*
D14*
X217703000Y-201490000D03*
X216903000Y-201490000D03*
X212103000Y-201490000D03*
X211303000Y-201490000D03*
%TD*%
D15*
%TO.C,D19*%
X191770000Y-188914000D03*
X191770000Y-187514000D03*
%TD*%
%TO.C,D18*%
X189484000Y-188914000D03*
X189484000Y-187514000D03*
%TD*%
%TO.C,D17*%
X201930000Y-188914000D03*
X201930000Y-187514000D03*
%TD*%
%TO.C,D16*%
X199898000Y-188914000D03*
X199898000Y-187514000D03*
%TD*%
%TO.C,D15*%
X196342000Y-188914000D03*
X196342000Y-187514000D03*
%TD*%
%TO.C,D14*%
X194056000Y-188914000D03*
X194056000Y-187514000D03*
%TD*%
%TO.C,D10*%
X230632000Y-196534000D03*
X230632000Y-195134000D03*
%TD*%
%TO.C,D9*%
X214376000Y-196853000D03*
X214376000Y-195453000D03*
%TD*%
%TO.C,D8*%
X232664000Y-196534000D03*
X232664000Y-195134000D03*
%TD*%
%TO.C,D7*%
X216916000Y-196788000D03*
X216916000Y-195388000D03*
%TD*%
%TO.C,D6*%
X234696000Y-196534000D03*
X234696000Y-195134000D03*
%TD*%
%TO.C,D5*%
X219456000Y-196788000D03*
X219456000Y-195388000D03*
%TD*%
%TO.C,C26*%
G36*
G01*
X207371000Y-187739000D02*
X207371000Y-188689000D01*
G75*
G02*
X207121000Y-188939000I-250000J0D01*
G01*
X206621000Y-188939000D01*
G75*
G02*
X206371000Y-188689000I0J250000D01*
G01*
X206371000Y-187739000D01*
G75*
G02*
X206621000Y-187489000I250000J0D01*
G01*
X207121000Y-187489000D01*
G75*
G02*
X207371000Y-187739000I0J-250000D01*
G01*
G37*
G36*
G01*
X209271000Y-187739000D02*
X209271000Y-188689000D01*
G75*
G02*
X209021000Y-188939000I-250000J0D01*
G01*
X208521000Y-188939000D01*
G75*
G02*
X208271000Y-188689000I0J250000D01*
G01*
X208271000Y-187739000D01*
G75*
G02*
X208521000Y-187489000I250000J0D01*
G01*
X209021000Y-187489000D01*
G75*
G02*
X209271000Y-187739000I0J-250000D01*
G01*
G37*
%TD*%
%TO.C,C24*%
G36*
G01*
X186911000Y-123502000D02*
X185961000Y-123502000D01*
G75*
G02*
X185711000Y-123252000I0J250000D01*
G01*
X185711000Y-122752000D01*
G75*
G02*
X185961000Y-122502000I250000J0D01*
G01*
X186911000Y-122502000D01*
G75*
G02*
X187161000Y-122752000I0J-250000D01*
G01*
X187161000Y-123252000D01*
G75*
G02*
X186911000Y-123502000I-250000J0D01*
G01*
G37*
G36*
G01*
X186911000Y-125402000D02*
X185961000Y-125402000D01*
G75*
G02*
X185711000Y-125152000I0J250000D01*
G01*
X185711000Y-124652000D01*
G75*
G02*
X185961000Y-124402000I250000J0D01*
G01*
X186911000Y-124402000D01*
G75*
G02*
X187161000Y-124652000I0J-250000D01*
G01*
X187161000Y-125152000D01*
G75*
G02*
X186911000Y-125402000I-250000J0D01*
G01*
G37*
%TD*%
%TO.C,C13*%
G36*
G01*
X181897000Y-175202000D02*
X182847000Y-175202000D01*
G75*
G02*
X183097000Y-175452000I0J-250000D01*
G01*
X183097000Y-175952000D01*
G75*
G02*
X182847000Y-176202000I-250000J0D01*
G01*
X181897000Y-176202000D01*
G75*
G02*
X181647000Y-175952000I0J250000D01*
G01*
X181647000Y-175452000D01*
G75*
G02*
X181897000Y-175202000I250000J0D01*
G01*
G37*
G36*
G01*
X181897000Y-173302000D02*
X182847000Y-173302000D01*
G75*
G02*
X183097000Y-173552000I0J-250000D01*
G01*
X183097000Y-174052000D01*
G75*
G02*
X182847000Y-174302000I-250000J0D01*
G01*
X181897000Y-174302000D01*
G75*
G02*
X181647000Y-174052000I0J250000D01*
G01*
X181647000Y-173552000D01*
G75*
G02*
X181897000Y-173302000I250000J0D01*
G01*
G37*
%TD*%
%TO.C,C6*%
G36*
G01*
X171163000Y-192082000D02*
X170213000Y-192082000D01*
G75*
G02*
X169963000Y-191832000I0J250000D01*
G01*
X169963000Y-191332000D01*
G75*
G02*
X170213000Y-191082000I250000J0D01*
G01*
X171163000Y-191082000D01*
G75*
G02*
X171413000Y-191332000I0J-250000D01*
G01*
X171413000Y-191832000D01*
G75*
G02*
X171163000Y-192082000I-250000J0D01*
G01*
G37*
G36*
G01*
X171163000Y-193982000D02*
X170213000Y-193982000D01*
G75*
G02*
X169963000Y-193732000I0J250000D01*
G01*
X169963000Y-193232000D01*
G75*
G02*
X170213000Y-192982000I250000J0D01*
G01*
X171163000Y-192982000D01*
G75*
G02*
X171413000Y-193232000I0J-250000D01*
G01*
X171413000Y-193732000D01*
G75*
G02*
X171163000Y-193982000I-250000J0D01*
G01*
G37*
%TD*%
%TO.C,C4*%
G36*
G01*
X196284000Y-172941000D02*
X196284000Y-171991000D01*
G75*
G02*
X196534000Y-171741000I250000J0D01*
G01*
X197034000Y-171741000D01*
G75*
G02*
X197284000Y-171991000I0J-250000D01*
G01*
X197284000Y-172941000D01*
G75*
G02*
X197034000Y-173191000I-250000J0D01*
G01*
X196534000Y-173191000D01*
G75*
G02*
X196284000Y-172941000I0J250000D01*
G01*
G37*
G36*
G01*
X194384000Y-172941000D02*
X194384000Y-171991000D01*
G75*
G02*
X194634000Y-171741000I250000J0D01*
G01*
X195134000Y-171741000D01*
G75*
G02*
X195384000Y-171991000I0J-250000D01*
G01*
X195384000Y-172941000D01*
G75*
G02*
X195134000Y-173191000I-250000J0D01*
G01*
X194634000Y-173191000D01*
G75*
G02*
X194384000Y-172941000I0J250000D01*
G01*
G37*
%TD*%
D16*
%TO.C,U1*%
X184023000Y-156972000D03*
G36*
G01*
X185448000Y-155297000D02*
X185448000Y-155147000D01*
G75*
G02*
X185523000Y-155072000I75000J0D01*
G01*
X186823000Y-155072000D01*
G75*
G02*
X186898000Y-155147000I0J-75000D01*
G01*
X186898000Y-155297000D01*
G75*
G02*
X186823000Y-155372000I-75000J0D01*
G01*
X185523000Y-155372000D01*
G75*
G02*
X185448000Y-155297000I0J75000D01*
G01*
G37*
G36*
G01*
X185448000Y-155797000D02*
X185448000Y-155647000D01*
G75*
G02*
X185523000Y-155572000I75000J0D01*
G01*
X186823000Y-155572000D01*
G75*
G02*
X186898000Y-155647000I0J-75000D01*
G01*
X186898000Y-155797000D01*
G75*
G02*
X186823000Y-155872000I-75000J0D01*
G01*
X185523000Y-155872000D01*
G75*
G02*
X185448000Y-155797000I0J75000D01*
G01*
G37*
G36*
G01*
X185448000Y-156297000D02*
X185448000Y-156147000D01*
G75*
G02*
X185523000Y-156072000I75000J0D01*
G01*
X186823000Y-156072000D01*
G75*
G02*
X186898000Y-156147000I0J-75000D01*
G01*
X186898000Y-156297000D01*
G75*
G02*
X186823000Y-156372000I-75000J0D01*
G01*
X185523000Y-156372000D01*
G75*
G02*
X185448000Y-156297000I0J75000D01*
G01*
G37*
G36*
G01*
X185448000Y-156797000D02*
X185448000Y-156647000D01*
G75*
G02*
X185523000Y-156572000I75000J0D01*
G01*
X186823000Y-156572000D01*
G75*
G02*
X186898000Y-156647000I0J-75000D01*
G01*
X186898000Y-156797000D01*
G75*
G02*
X186823000Y-156872000I-75000J0D01*
G01*
X185523000Y-156872000D01*
G75*
G02*
X185448000Y-156797000I0J75000D01*
G01*
G37*
G36*
G01*
X185448000Y-157297000D02*
X185448000Y-157147000D01*
G75*
G02*
X185523000Y-157072000I75000J0D01*
G01*
X186823000Y-157072000D01*
G75*
G02*
X186898000Y-157147000I0J-75000D01*
G01*
X186898000Y-157297000D01*
G75*
G02*
X186823000Y-157372000I-75000J0D01*
G01*
X185523000Y-157372000D01*
G75*
G02*
X185448000Y-157297000I0J75000D01*
G01*
G37*
G36*
G01*
X185448000Y-157797000D02*
X185448000Y-157647000D01*
G75*
G02*
X185523000Y-157572000I75000J0D01*
G01*
X186823000Y-157572000D01*
G75*
G02*
X186898000Y-157647000I0J-75000D01*
G01*
X186898000Y-157797000D01*
G75*
G02*
X186823000Y-157872000I-75000J0D01*
G01*
X185523000Y-157872000D01*
G75*
G02*
X185448000Y-157797000I0J75000D01*
G01*
G37*
G36*
G01*
X185448000Y-158297000D02*
X185448000Y-158147000D01*
G75*
G02*
X185523000Y-158072000I75000J0D01*
G01*
X186823000Y-158072000D01*
G75*
G02*
X186898000Y-158147000I0J-75000D01*
G01*
X186898000Y-158297000D01*
G75*
G02*
X186823000Y-158372000I-75000J0D01*
G01*
X185523000Y-158372000D01*
G75*
G02*
X185448000Y-158297000I0J75000D01*
G01*
G37*
G36*
G01*
X185448000Y-158797000D02*
X185448000Y-158647000D01*
G75*
G02*
X185523000Y-158572000I75000J0D01*
G01*
X186823000Y-158572000D01*
G75*
G02*
X186898000Y-158647000I0J-75000D01*
G01*
X186898000Y-158797000D01*
G75*
G02*
X186823000Y-158872000I-75000J0D01*
G01*
X185523000Y-158872000D01*
G75*
G02*
X185448000Y-158797000I0J75000D01*
G01*
G37*
G36*
G01*
X181148000Y-158797000D02*
X181148000Y-158647000D01*
G75*
G02*
X181223000Y-158572000I75000J0D01*
G01*
X182523000Y-158572000D01*
G75*
G02*
X182598000Y-158647000I0J-75000D01*
G01*
X182598000Y-158797000D01*
G75*
G02*
X182523000Y-158872000I-75000J0D01*
G01*
X181223000Y-158872000D01*
G75*
G02*
X181148000Y-158797000I0J75000D01*
G01*
G37*
G36*
G01*
X181148000Y-158297000D02*
X181148000Y-158147000D01*
G75*
G02*
X181223000Y-158072000I75000J0D01*
G01*
X182523000Y-158072000D01*
G75*
G02*
X182598000Y-158147000I0J-75000D01*
G01*
X182598000Y-158297000D01*
G75*
G02*
X182523000Y-158372000I-75000J0D01*
G01*
X181223000Y-158372000D01*
G75*
G02*
X181148000Y-158297000I0J75000D01*
G01*
G37*
G36*
G01*
X181148000Y-157797000D02*
X181148000Y-157647000D01*
G75*
G02*
X181223000Y-157572000I75000J0D01*
G01*
X182523000Y-157572000D01*
G75*
G02*
X182598000Y-157647000I0J-75000D01*
G01*
X182598000Y-157797000D01*
G75*
G02*
X182523000Y-157872000I-75000J0D01*
G01*
X181223000Y-157872000D01*
G75*
G02*
X181148000Y-157797000I0J75000D01*
G01*
G37*
G36*
G01*
X181148000Y-157297000D02*
X181148000Y-157147000D01*
G75*
G02*
X181223000Y-157072000I75000J0D01*
G01*
X182523000Y-157072000D01*
G75*
G02*
X182598000Y-157147000I0J-75000D01*
G01*
X182598000Y-157297000D01*
G75*
G02*
X182523000Y-157372000I-75000J0D01*
G01*
X181223000Y-157372000D01*
G75*
G02*
X181148000Y-157297000I0J75000D01*
G01*
G37*
G36*
G01*
X181148000Y-156797000D02*
X181148000Y-156647000D01*
G75*
G02*
X181223000Y-156572000I75000J0D01*
G01*
X182523000Y-156572000D01*
G75*
G02*
X182598000Y-156647000I0J-75000D01*
G01*
X182598000Y-156797000D01*
G75*
G02*
X182523000Y-156872000I-75000J0D01*
G01*
X181223000Y-156872000D01*
G75*
G02*
X181148000Y-156797000I0J75000D01*
G01*
G37*
G36*
G01*
X181148000Y-156297000D02*
X181148000Y-156147000D01*
G75*
G02*
X181223000Y-156072000I75000J0D01*
G01*
X182523000Y-156072000D01*
G75*
G02*
X182598000Y-156147000I0J-75000D01*
G01*
X182598000Y-156297000D01*
G75*
G02*
X182523000Y-156372000I-75000J0D01*
G01*
X181223000Y-156372000D01*
G75*
G02*
X181148000Y-156297000I0J75000D01*
G01*
G37*
G36*
G01*
X181148000Y-155797000D02*
X181148000Y-155647000D01*
G75*
G02*
X181223000Y-155572000I75000J0D01*
G01*
X182523000Y-155572000D01*
G75*
G02*
X182598000Y-155647000I0J-75000D01*
G01*
X182598000Y-155797000D01*
G75*
G02*
X182523000Y-155872000I-75000J0D01*
G01*
X181223000Y-155872000D01*
G75*
G02*
X181148000Y-155797000I0J75000D01*
G01*
G37*
G36*
G01*
X181148000Y-155297000D02*
X181148000Y-155147000D01*
G75*
G02*
X181223000Y-155072000I75000J0D01*
G01*
X182523000Y-155072000D01*
G75*
G02*
X182598000Y-155147000I0J-75000D01*
G01*
X182598000Y-155297000D01*
G75*
G02*
X182523000Y-155372000I-75000J0D01*
G01*
X181223000Y-155372000D01*
G75*
G02*
X181148000Y-155297000I0J75000D01*
G01*
G37*
%TD*%
D17*
%TO.C,U2*%
X238379000Y-164592000D03*
G36*
G01*
X236791500Y-165967000D02*
X236091500Y-165967000D01*
G75*
G02*
X236029000Y-165904500I0J62500D01*
G01*
X236029000Y-165779500D01*
G75*
G02*
X236091500Y-165717000I62500J0D01*
G01*
X236791500Y-165717000D01*
G75*
G02*
X236854000Y-165779500I0J-62500D01*
G01*
X236854000Y-165904500D01*
G75*
G02*
X236791500Y-165967000I-62500J0D01*
G01*
G37*
G36*
G01*
X236791500Y-165467000D02*
X236091500Y-165467000D01*
G75*
G02*
X236029000Y-165404500I0J62500D01*
G01*
X236029000Y-165279500D01*
G75*
G02*
X236091500Y-165217000I62500J0D01*
G01*
X236791500Y-165217000D01*
G75*
G02*
X236854000Y-165279500I0J-62500D01*
G01*
X236854000Y-165404500D01*
G75*
G02*
X236791500Y-165467000I-62500J0D01*
G01*
G37*
G36*
G01*
X236791500Y-164967000D02*
X236091500Y-164967000D01*
G75*
G02*
X236029000Y-164904500I0J62500D01*
G01*
X236029000Y-164779500D01*
G75*
G02*
X236091500Y-164717000I62500J0D01*
G01*
X236791500Y-164717000D01*
G75*
G02*
X236854000Y-164779500I0J-62500D01*
G01*
X236854000Y-164904500D01*
G75*
G02*
X236791500Y-164967000I-62500J0D01*
G01*
G37*
G36*
G01*
X236791500Y-164467000D02*
X236091500Y-164467000D01*
G75*
G02*
X236029000Y-164404500I0J62500D01*
G01*
X236029000Y-164279500D01*
G75*
G02*
X236091500Y-164217000I62500J0D01*
G01*
X236791500Y-164217000D01*
G75*
G02*
X236854000Y-164279500I0J-62500D01*
G01*
X236854000Y-164404500D01*
G75*
G02*
X236791500Y-164467000I-62500J0D01*
G01*
G37*
G36*
G01*
X236791500Y-163967000D02*
X236091500Y-163967000D01*
G75*
G02*
X236029000Y-163904500I0J62500D01*
G01*
X236029000Y-163779500D01*
G75*
G02*
X236091500Y-163717000I62500J0D01*
G01*
X236791500Y-163717000D01*
G75*
G02*
X236854000Y-163779500I0J-62500D01*
G01*
X236854000Y-163904500D01*
G75*
G02*
X236791500Y-163967000I-62500J0D01*
G01*
G37*
G36*
G01*
X236791500Y-163467000D02*
X236091500Y-163467000D01*
G75*
G02*
X236029000Y-163404500I0J62500D01*
G01*
X236029000Y-163279500D01*
G75*
G02*
X236091500Y-163217000I62500J0D01*
G01*
X236791500Y-163217000D01*
G75*
G02*
X236854000Y-163279500I0J-62500D01*
G01*
X236854000Y-163404500D01*
G75*
G02*
X236791500Y-163467000I-62500J0D01*
G01*
G37*
G36*
G01*
X237191500Y-163067000D02*
X237066500Y-163067000D01*
G75*
G02*
X237004000Y-163004500I0J62500D01*
G01*
X237004000Y-162304500D01*
G75*
G02*
X237066500Y-162242000I62500J0D01*
G01*
X237191500Y-162242000D01*
G75*
G02*
X237254000Y-162304500I0J-62500D01*
G01*
X237254000Y-163004500D01*
G75*
G02*
X237191500Y-163067000I-62500J0D01*
G01*
G37*
G36*
G01*
X237691500Y-163067000D02*
X237566500Y-163067000D01*
G75*
G02*
X237504000Y-163004500I0J62500D01*
G01*
X237504000Y-162304500D01*
G75*
G02*
X237566500Y-162242000I62500J0D01*
G01*
X237691500Y-162242000D01*
G75*
G02*
X237754000Y-162304500I0J-62500D01*
G01*
X237754000Y-163004500D01*
G75*
G02*
X237691500Y-163067000I-62500J0D01*
G01*
G37*
G36*
G01*
X238191500Y-163067000D02*
X238066500Y-163067000D01*
G75*
G02*
X238004000Y-163004500I0J62500D01*
G01*
X238004000Y-162304500D01*
G75*
G02*
X238066500Y-162242000I62500J0D01*
G01*
X238191500Y-162242000D01*
G75*
G02*
X238254000Y-162304500I0J-62500D01*
G01*
X238254000Y-163004500D01*
G75*
G02*
X238191500Y-163067000I-62500J0D01*
G01*
G37*
G36*
G01*
X238691500Y-163067000D02*
X238566500Y-163067000D01*
G75*
G02*
X238504000Y-163004500I0J62500D01*
G01*
X238504000Y-162304500D01*
G75*
G02*
X238566500Y-162242000I62500J0D01*
G01*
X238691500Y-162242000D01*
G75*
G02*
X238754000Y-162304500I0J-62500D01*
G01*
X238754000Y-163004500D01*
G75*
G02*
X238691500Y-163067000I-62500J0D01*
G01*
G37*
G36*
G01*
X239191500Y-163067000D02*
X239066500Y-163067000D01*
G75*
G02*
X239004000Y-163004500I0J62500D01*
G01*
X239004000Y-162304500D01*
G75*
G02*
X239066500Y-162242000I62500J0D01*
G01*
X239191500Y-162242000D01*
G75*
G02*
X239254000Y-162304500I0J-62500D01*
G01*
X239254000Y-163004500D01*
G75*
G02*
X239191500Y-163067000I-62500J0D01*
G01*
G37*
G36*
G01*
X239691500Y-163067000D02*
X239566500Y-163067000D01*
G75*
G02*
X239504000Y-163004500I0J62500D01*
G01*
X239504000Y-162304500D01*
G75*
G02*
X239566500Y-162242000I62500J0D01*
G01*
X239691500Y-162242000D01*
G75*
G02*
X239754000Y-162304500I0J-62500D01*
G01*
X239754000Y-163004500D01*
G75*
G02*
X239691500Y-163067000I-62500J0D01*
G01*
G37*
G36*
G01*
X240666500Y-163467000D02*
X239966500Y-163467000D01*
G75*
G02*
X239904000Y-163404500I0J62500D01*
G01*
X239904000Y-163279500D01*
G75*
G02*
X239966500Y-163217000I62500J0D01*
G01*
X240666500Y-163217000D01*
G75*
G02*
X240729000Y-163279500I0J-62500D01*
G01*
X240729000Y-163404500D01*
G75*
G02*
X240666500Y-163467000I-62500J0D01*
G01*
G37*
G36*
G01*
X240666500Y-163967000D02*
X239966500Y-163967000D01*
G75*
G02*
X239904000Y-163904500I0J62500D01*
G01*
X239904000Y-163779500D01*
G75*
G02*
X239966500Y-163717000I62500J0D01*
G01*
X240666500Y-163717000D01*
G75*
G02*
X240729000Y-163779500I0J-62500D01*
G01*
X240729000Y-163904500D01*
G75*
G02*
X240666500Y-163967000I-62500J0D01*
G01*
G37*
G36*
G01*
X240666500Y-164467000D02*
X239966500Y-164467000D01*
G75*
G02*
X239904000Y-164404500I0J62500D01*
G01*
X239904000Y-164279500D01*
G75*
G02*
X239966500Y-164217000I62500J0D01*
G01*
X240666500Y-164217000D01*
G75*
G02*
X240729000Y-164279500I0J-62500D01*
G01*
X240729000Y-164404500D01*
G75*
G02*
X240666500Y-164467000I-62500J0D01*
G01*
G37*
G36*
G01*
X240666500Y-164967000D02*
X239966500Y-164967000D01*
G75*
G02*
X239904000Y-164904500I0J62500D01*
G01*
X239904000Y-164779500D01*
G75*
G02*
X239966500Y-164717000I62500J0D01*
G01*
X240666500Y-164717000D01*
G75*
G02*
X240729000Y-164779500I0J-62500D01*
G01*
X240729000Y-164904500D01*
G75*
G02*
X240666500Y-164967000I-62500J0D01*
G01*
G37*
G36*
G01*
X240666500Y-165467000D02*
X239966500Y-165467000D01*
G75*
G02*
X239904000Y-165404500I0J62500D01*
G01*
X239904000Y-165279500D01*
G75*
G02*
X239966500Y-165217000I62500J0D01*
G01*
X240666500Y-165217000D01*
G75*
G02*
X240729000Y-165279500I0J-62500D01*
G01*
X240729000Y-165404500D01*
G75*
G02*
X240666500Y-165467000I-62500J0D01*
G01*
G37*
G36*
G01*
X240666500Y-165967000D02*
X239966500Y-165967000D01*
G75*
G02*
X239904000Y-165904500I0J62500D01*
G01*
X239904000Y-165779500D01*
G75*
G02*
X239966500Y-165717000I62500J0D01*
G01*
X240666500Y-165717000D01*
G75*
G02*
X240729000Y-165779500I0J-62500D01*
G01*
X240729000Y-165904500D01*
G75*
G02*
X240666500Y-165967000I-62500J0D01*
G01*
G37*
G36*
G01*
X239691500Y-166942000D02*
X239566500Y-166942000D01*
G75*
G02*
X239504000Y-166879500I0J62500D01*
G01*
X239504000Y-166179500D01*
G75*
G02*
X239566500Y-166117000I62500J0D01*
G01*
X239691500Y-166117000D01*
G75*
G02*
X239754000Y-166179500I0J-62500D01*
G01*
X239754000Y-166879500D01*
G75*
G02*
X239691500Y-166942000I-62500J0D01*
G01*
G37*
G36*
G01*
X239191500Y-166942000D02*
X239066500Y-166942000D01*
G75*
G02*
X239004000Y-166879500I0J62500D01*
G01*
X239004000Y-166179500D01*
G75*
G02*
X239066500Y-166117000I62500J0D01*
G01*
X239191500Y-166117000D01*
G75*
G02*
X239254000Y-166179500I0J-62500D01*
G01*
X239254000Y-166879500D01*
G75*
G02*
X239191500Y-166942000I-62500J0D01*
G01*
G37*
G36*
G01*
X238691500Y-166942000D02*
X238566500Y-166942000D01*
G75*
G02*
X238504000Y-166879500I0J62500D01*
G01*
X238504000Y-166179500D01*
G75*
G02*
X238566500Y-166117000I62500J0D01*
G01*
X238691500Y-166117000D01*
G75*
G02*
X238754000Y-166179500I0J-62500D01*
G01*
X238754000Y-166879500D01*
G75*
G02*
X238691500Y-166942000I-62500J0D01*
G01*
G37*
G36*
G01*
X238191500Y-166942000D02*
X238066500Y-166942000D01*
G75*
G02*
X238004000Y-166879500I0J62500D01*
G01*
X238004000Y-166179500D01*
G75*
G02*
X238066500Y-166117000I62500J0D01*
G01*
X238191500Y-166117000D01*
G75*
G02*
X238254000Y-166179500I0J-62500D01*
G01*
X238254000Y-166879500D01*
G75*
G02*
X238191500Y-166942000I-62500J0D01*
G01*
G37*
G36*
G01*
X237691500Y-166942000D02*
X237566500Y-166942000D01*
G75*
G02*
X237504000Y-166879500I0J62500D01*
G01*
X237504000Y-166179500D01*
G75*
G02*
X237566500Y-166117000I62500J0D01*
G01*
X237691500Y-166117000D01*
G75*
G02*
X237754000Y-166179500I0J-62500D01*
G01*
X237754000Y-166879500D01*
G75*
G02*
X237691500Y-166942000I-62500J0D01*
G01*
G37*
G36*
G01*
X237191500Y-166942000D02*
X237066500Y-166942000D01*
G75*
G02*
X237004000Y-166879500I0J62500D01*
G01*
X237004000Y-166179500D01*
G75*
G02*
X237066500Y-166117000I62500J0D01*
G01*
X237191500Y-166117000D01*
G75*
G02*
X237254000Y-166179500I0J-62500D01*
G01*
X237254000Y-166879500D01*
G75*
G02*
X237191500Y-166942000I-62500J0D01*
G01*
G37*
%TD*%
D18*
%TO.C,J4*%
X186348000Y-203152000D03*
X186348000Y-197152000D03*
X175348000Y-197152000D03*
X175348000Y-203152000D03*
D19*
X180848000Y-198652000D03*
D20*
X180848000Y-203052000D03*
%TD*%
%TO.C,R36*%
G36*
G01*
X243694000Y-165665998D02*
X243694000Y-166566002D01*
G75*
G02*
X243444002Y-166816000I-249998J0D01*
G01*
X242918998Y-166816000D01*
G75*
G02*
X242669000Y-166566002I0J249998D01*
G01*
X242669000Y-165665998D01*
G75*
G02*
X242918998Y-165416000I249998J0D01*
G01*
X243444002Y-165416000D01*
G75*
G02*
X243694000Y-165665998I0J-249998D01*
G01*
G37*
G36*
G01*
X245519000Y-165665998D02*
X245519000Y-166566002D01*
G75*
G02*
X245269002Y-166816000I-249998J0D01*
G01*
X244743998Y-166816000D01*
G75*
G02*
X244494000Y-166566002I0J249998D01*
G01*
X244494000Y-165665998D01*
G75*
G02*
X244743998Y-165416000I249998J0D01*
G01*
X245269002Y-165416000D01*
G75*
G02*
X245519000Y-165665998I0J-249998D01*
G01*
G37*
%TD*%
D21*
%TO.C,TP11*%
X214757000Y-167132000D03*
%TD*%
%TO.C,R93*%
G36*
G01*
X222523000Y-172027002D02*
X222523000Y-171126998D01*
G75*
G02*
X222772998Y-170877000I249998J0D01*
G01*
X223298002Y-170877000D01*
G75*
G02*
X223548000Y-171126998I0J-249998D01*
G01*
X223548000Y-172027002D01*
G75*
G02*
X223298002Y-172277000I-249998J0D01*
G01*
X222772998Y-172277000D01*
G75*
G02*
X222523000Y-172027002I0J249998D01*
G01*
G37*
G36*
G01*
X220698000Y-172027002D02*
X220698000Y-171126998D01*
G75*
G02*
X220947998Y-170877000I249998J0D01*
G01*
X221473002Y-170877000D01*
G75*
G02*
X221723000Y-171126998I0J-249998D01*
G01*
X221723000Y-172027002D01*
G75*
G02*
X221473002Y-172277000I-249998J0D01*
G01*
X220947998Y-172277000D01*
G75*
G02*
X220698000Y-172027002I0J249998D01*
G01*
G37*
%TD*%
%TO.C,R92*%
G36*
G01*
X230143000Y-166312002D02*
X230143000Y-165411998D01*
G75*
G02*
X230392998Y-165162000I249998J0D01*
G01*
X230918002Y-165162000D01*
G75*
G02*
X231168000Y-165411998I0J-249998D01*
G01*
X231168000Y-166312002D01*
G75*
G02*
X230918002Y-166562000I-249998J0D01*
G01*
X230392998Y-166562000D01*
G75*
G02*
X230143000Y-166312002I0J249998D01*
G01*
G37*
G36*
G01*
X228318000Y-166312002D02*
X228318000Y-165411998D01*
G75*
G02*
X228567998Y-165162000I249998J0D01*
G01*
X229093002Y-165162000D01*
G75*
G02*
X229343000Y-165411998I0J-249998D01*
G01*
X229343000Y-166312002D01*
G75*
G02*
X229093002Y-166562000I-249998J0D01*
G01*
X228567998Y-166562000D01*
G75*
G02*
X228318000Y-166312002I0J249998D01*
G01*
G37*
%TD*%
%TO.C,R91*%
G36*
G01*
X230143000Y-169868002D02*
X230143000Y-168967998D01*
G75*
G02*
X230392998Y-168718000I249998J0D01*
G01*
X230918002Y-168718000D01*
G75*
G02*
X231168000Y-168967998I0J-249998D01*
G01*
X231168000Y-169868002D01*
G75*
G02*
X230918002Y-170118000I-249998J0D01*
G01*
X230392998Y-170118000D01*
G75*
G02*
X230143000Y-169868002I0J249998D01*
G01*
G37*
G36*
G01*
X228318000Y-169868002D02*
X228318000Y-168967998D01*
G75*
G02*
X228567998Y-168718000I249998J0D01*
G01*
X229093002Y-168718000D01*
G75*
G02*
X229343000Y-168967998I0J-249998D01*
G01*
X229343000Y-169868002D01*
G75*
G02*
X229093002Y-170118000I-249998J0D01*
G01*
X228567998Y-170118000D01*
G75*
G02*
X228318000Y-169868002I0J249998D01*
G01*
G37*
%TD*%
%TO.C,R43*%
G36*
G01*
X230143000Y-162756002D02*
X230143000Y-161855998D01*
G75*
G02*
X230392998Y-161606000I249998J0D01*
G01*
X230918002Y-161606000D01*
G75*
G02*
X231168000Y-161855998I0J-249998D01*
G01*
X231168000Y-162756002D01*
G75*
G02*
X230918002Y-163006000I-249998J0D01*
G01*
X230392998Y-163006000D01*
G75*
G02*
X230143000Y-162756002I0J249998D01*
G01*
G37*
G36*
G01*
X228318000Y-162756002D02*
X228318000Y-161855998D01*
G75*
G02*
X228567998Y-161606000I249998J0D01*
G01*
X229093002Y-161606000D01*
G75*
G02*
X229343000Y-161855998I0J-249998D01*
G01*
X229343000Y-162756002D01*
G75*
G02*
X229093002Y-163006000I-249998J0D01*
G01*
X228567998Y-163006000D01*
G75*
G02*
X228318000Y-162756002I0J249998D01*
G01*
G37*
%TD*%
%TO.C,R42*%
G36*
G01*
X230143000Y-159835002D02*
X230143000Y-158934998D01*
G75*
G02*
X230392998Y-158685000I249998J0D01*
G01*
X230918002Y-158685000D01*
G75*
G02*
X231168000Y-158934998I0J-249998D01*
G01*
X231168000Y-159835002D01*
G75*
G02*
X230918002Y-160085000I-249998J0D01*
G01*
X230392998Y-160085000D01*
G75*
G02*
X230143000Y-159835002I0J249998D01*
G01*
G37*
G36*
G01*
X228318000Y-159835002D02*
X228318000Y-158934998D01*
G75*
G02*
X228567998Y-158685000I249998J0D01*
G01*
X229093002Y-158685000D01*
G75*
G02*
X229343000Y-158934998I0J-249998D01*
G01*
X229343000Y-159835002D01*
G75*
G02*
X229093002Y-160085000I-249998J0D01*
G01*
X228567998Y-160085000D01*
G75*
G02*
X228318000Y-159835002I0J249998D01*
G01*
G37*
%TD*%
%TO.C,R41*%
G36*
G01*
X230143000Y-173297002D02*
X230143000Y-172396998D01*
G75*
G02*
X230392998Y-172147000I249998J0D01*
G01*
X230918002Y-172147000D01*
G75*
G02*
X231168000Y-172396998I0J-249998D01*
G01*
X231168000Y-173297002D01*
G75*
G02*
X230918002Y-173547000I-249998J0D01*
G01*
X230392998Y-173547000D01*
G75*
G02*
X230143000Y-173297002I0J249998D01*
G01*
G37*
G36*
G01*
X228318000Y-173297002D02*
X228318000Y-172396998D01*
G75*
G02*
X228567998Y-172147000I249998J0D01*
G01*
X229093002Y-172147000D01*
G75*
G02*
X229343000Y-172396998I0J-249998D01*
G01*
X229343000Y-173297002D01*
G75*
G02*
X229093002Y-173547000I-249998J0D01*
G01*
X228567998Y-173547000D01*
G75*
G02*
X228318000Y-173297002I0J249998D01*
G01*
G37*
%TD*%
%TO.C,R40*%
G36*
G01*
X249320000Y-168979002D02*
X249320000Y-168078998D01*
G75*
G02*
X249569998Y-167829000I249998J0D01*
G01*
X250095002Y-167829000D01*
G75*
G02*
X250345000Y-168078998I0J-249998D01*
G01*
X250345000Y-168979002D01*
G75*
G02*
X250095002Y-169229000I-249998J0D01*
G01*
X249569998Y-169229000D01*
G75*
G02*
X249320000Y-168979002I0J249998D01*
G01*
G37*
G36*
G01*
X247495000Y-168979002D02*
X247495000Y-168078998D01*
G75*
G02*
X247744998Y-167829000I249998J0D01*
G01*
X248270002Y-167829000D01*
G75*
G02*
X248520000Y-168078998I0J-249998D01*
G01*
X248520000Y-168979002D01*
G75*
G02*
X248270002Y-169229000I-249998J0D01*
G01*
X247744998Y-169229000D01*
G75*
G02*
X247495000Y-168979002I0J249998D01*
G01*
G37*
%TD*%
%TO.C,R39*%
G36*
G01*
X234715000Y-170376002D02*
X234715000Y-169475998D01*
G75*
G02*
X234964998Y-169226000I249998J0D01*
G01*
X235490002Y-169226000D01*
G75*
G02*
X235740000Y-169475998I0J-249998D01*
G01*
X235740000Y-170376002D01*
G75*
G02*
X235490002Y-170626000I-249998J0D01*
G01*
X234964998Y-170626000D01*
G75*
G02*
X234715000Y-170376002I0J249998D01*
G01*
G37*
G36*
G01*
X232890000Y-170376002D02*
X232890000Y-169475998D01*
G75*
G02*
X233139998Y-169226000I249998J0D01*
G01*
X233665002Y-169226000D01*
G75*
G02*
X233915000Y-169475998I0J-249998D01*
G01*
X233915000Y-170376002D01*
G75*
G02*
X233665002Y-170626000I-249998J0D01*
G01*
X233139998Y-170626000D01*
G75*
G02*
X232890000Y-170376002I0J249998D01*
G01*
G37*
%TD*%
%TO.C,R38*%
G36*
G01*
X248393000Y-163252998D02*
X248393000Y-164153002D01*
G75*
G02*
X248143002Y-164403000I-249998J0D01*
G01*
X247617998Y-164403000D01*
G75*
G02*
X247368000Y-164153002I0J249998D01*
G01*
X247368000Y-163252998D01*
G75*
G02*
X247617998Y-163003000I249998J0D01*
G01*
X248143002Y-163003000D01*
G75*
G02*
X248393000Y-163252998I0J-249998D01*
G01*
G37*
G36*
G01*
X250218000Y-163252998D02*
X250218000Y-164153002D01*
G75*
G02*
X249968002Y-164403000I-249998J0D01*
G01*
X249442998Y-164403000D01*
G75*
G02*
X249193000Y-164153002I0J249998D01*
G01*
X249193000Y-163252998D01*
G75*
G02*
X249442998Y-163003000I249998J0D01*
G01*
X249968002Y-163003000D01*
G75*
G02*
X250218000Y-163252998I0J-249998D01*
G01*
G37*
%TD*%
%TO.C,R37*%
G36*
G01*
X234715000Y-174059002D02*
X234715000Y-173158998D01*
G75*
G02*
X234964998Y-172909000I249998J0D01*
G01*
X235490002Y-172909000D01*
G75*
G02*
X235740000Y-173158998I0J-249998D01*
G01*
X235740000Y-174059002D01*
G75*
G02*
X235490002Y-174309000I-249998J0D01*
G01*
X234964998Y-174309000D01*
G75*
G02*
X234715000Y-174059002I0J249998D01*
G01*
G37*
G36*
G01*
X232890000Y-174059002D02*
X232890000Y-173158998D01*
G75*
G02*
X233139998Y-172909000I249998J0D01*
G01*
X233665002Y-172909000D01*
G75*
G02*
X233915000Y-173158998I0J-249998D01*
G01*
X233915000Y-174059002D01*
G75*
G02*
X233665002Y-174309000I-249998J0D01*
G01*
X233139998Y-174309000D01*
G75*
G02*
X232890000Y-174059002I0J249998D01*
G01*
G37*
%TD*%
%TO.C,R35*%
G36*
G01*
X243986000Y-189934002D02*
X243986000Y-189033998D01*
G75*
G02*
X244235998Y-188784000I249998J0D01*
G01*
X244761002Y-188784000D01*
G75*
G02*
X245011000Y-189033998I0J-249998D01*
G01*
X245011000Y-189934002D01*
G75*
G02*
X244761002Y-190184000I-249998J0D01*
G01*
X244235998Y-190184000D01*
G75*
G02*
X243986000Y-189934002I0J249998D01*
G01*
G37*
G36*
G01*
X242161000Y-189934002D02*
X242161000Y-189033998D01*
G75*
G02*
X242410998Y-188784000I249998J0D01*
G01*
X242936002Y-188784000D01*
G75*
G02*
X243186000Y-189033998I0J-249998D01*
G01*
X243186000Y-189934002D01*
G75*
G02*
X242936002Y-190184000I-249998J0D01*
G01*
X242410998Y-190184000D01*
G75*
G02*
X242161000Y-189934002I0J249998D01*
G01*
G37*
%TD*%
%TO.C,R34*%
G36*
G01*
X244009500Y-196030002D02*
X244009500Y-195129998D01*
G75*
G02*
X244259498Y-194880000I249998J0D01*
G01*
X244784502Y-194880000D01*
G75*
G02*
X245034500Y-195129998I0J-249998D01*
G01*
X245034500Y-196030002D01*
G75*
G02*
X244784502Y-196280000I-249998J0D01*
G01*
X244259498Y-196280000D01*
G75*
G02*
X244009500Y-196030002I0J249998D01*
G01*
G37*
G36*
G01*
X242184500Y-196030002D02*
X242184500Y-195129998D01*
G75*
G02*
X242434498Y-194880000I249998J0D01*
G01*
X242959502Y-194880000D01*
G75*
G02*
X243209500Y-195129998I0J-249998D01*
G01*
X243209500Y-196030002D01*
G75*
G02*
X242959502Y-196280000I-249998J0D01*
G01*
X242434498Y-196280000D01*
G75*
G02*
X242184500Y-196030002I0J249998D01*
G01*
G37*
%TD*%
%TO.C,R33*%
G36*
G01*
X221723000Y-166173998D02*
X221723000Y-167074002D01*
G75*
G02*
X221473002Y-167324000I-249998J0D01*
G01*
X220947998Y-167324000D01*
G75*
G02*
X220698000Y-167074002I0J249998D01*
G01*
X220698000Y-166173998D01*
G75*
G02*
X220947998Y-165924000I249998J0D01*
G01*
X221473002Y-165924000D01*
G75*
G02*
X221723000Y-166173998I0J-249998D01*
G01*
G37*
G36*
G01*
X223548000Y-166173998D02*
X223548000Y-167074002D01*
G75*
G02*
X223298002Y-167324000I-249998J0D01*
G01*
X222772998Y-167324000D01*
G75*
G02*
X222523000Y-167074002I0J249998D01*
G01*
X222523000Y-166173998D01*
G75*
G02*
X222772998Y-165924000I249998J0D01*
G01*
X223298002Y-165924000D01*
G75*
G02*
X223548000Y-166173998I0J-249998D01*
G01*
G37*
%TD*%
D22*
%TO.C,Q2*%
X250174000Y-194818000D03*
X248174000Y-195768000D03*
X248174000Y-193868000D03*
%TD*%
%TO.C,Q1*%
X250174000Y-188468000D03*
X248174000Y-189418000D03*
X248174000Y-187518000D03*
%TD*%
%TO.C,C19*%
G36*
G01*
X243644000Y-171864000D02*
X243644000Y-172814000D01*
G75*
G02*
X243394000Y-173064000I-250000J0D01*
G01*
X242894000Y-173064000D01*
G75*
G02*
X242644000Y-172814000I0J250000D01*
G01*
X242644000Y-171864000D01*
G75*
G02*
X242894000Y-171614000I250000J0D01*
G01*
X243394000Y-171614000D01*
G75*
G02*
X243644000Y-171864000I0J-250000D01*
G01*
G37*
G36*
G01*
X245544000Y-171864000D02*
X245544000Y-172814000D01*
G75*
G02*
X245294000Y-173064000I-250000J0D01*
G01*
X244794000Y-173064000D01*
G75*
G02*
X244544000Y-172814000I0J250000D01*
G01*
X244544000Y-171864000D01*
G75*
G02*
X244794000Y-171614000I250000J0D01*
G01*
X245294000Y-171614000D01*
G75*
G02*
X245544000Y-171864000I0J-250000D01*
G01*
G37*
%TD*%
%TO.C,C18*%
G36*
G01*
X249497000Y-172814000D02*
X249497000Y-171864000D01*
G75*
G02*
X249747000Y-171614000I250000J0D01*
G01*
X250247000Y-171614000D01*
G75*
G02*
X250497000Y-171864000I0J-250000D01*
G01*
X250497000Y-172814000D01*
G75*
G02*
X250247000Y-173064000I-250000J0D01*
G01*
X249747000Y-173064000D01*
G75*
G02*
X249497000Y-172814000I0J250000D01*
G01*
G37*
G36*
G01*
X247597000Y-172814000D02*
X247597000Y-171864000D01*
G75*
G02*
X247847000Y-171614000I250000J0D01*
G01*
X248347000Y-171614000D01*
G75*
G02*
X248597000Y-171864000I0J-250000D01*
G01*
X248597000Y-172814000D01*
G75*
G02*
X248347000Y-173064000I-250000J0D01*
G01*
X247847000Y-173064000D01*
G75*
G02*
X247597000Y-172814000I0J250000D01*
G01*
G37*
%TD*%
D23*
%TO.C,Y1*%
X211328000Y-160262000D03*
X211328000Y-158762000D03*
%TD*%
D24*
%TO.C,J2*%
X167640000Y-185928000D03*
X167640000Y-183388000D03*
X167640000Y-180848000D03*
X167640000Y-178308000D03*
X167640000Y-175768000D03*
X167640000Y-173228000D03*
X167640000Y-170688000D03*
X167640000Y-168148000D03*
X167640000Y-165608000D03*
X167640000Y-163068000D03*
X167640000Y-160528000D03*
X167640000Y-157988000D03*
X167640000Y-155448000D03*
X167640000Y-152908000D03*
X167640000Y-150368000D03*
X167640000Y-147828000D03*
X167640000Y-145288000D03*
X167640000Y-142748000D03*
X167640000Y-140208000D03*
X167640000Y-137668000D03*
X167640000Y-135128000D03*
D25*
X167640000Y-132588000D03*
%TD*%
D26*
%TO.C,U3*%
X204102000Y-143378000D03*
X204102000Y-142108000D03*
X204102000Y-140838000D03*
X204102000Y-139568000D03*
X204102000Y-138298000D03*
X204102000Y-137028000D03*
X204102000Y-135758000D03*
X204102000Y-134488000D03*
X204102000Y-133218000D03*
X204102000Y-131948000D03*
X204102000Y-130678000D03*
X204102000Y-129408000D03*
X204102000Y-128138000D03*
X204102000Y-126868000D03*
D27*
X205867000Y-144628000D03*
X207137000Y-144628000D03*
X208407000Y-144628000D03*
X209677000Y-144628000D03*
X210947000Y-144628000D03*
X212217000Y-144628000D03*
X213487000Y-144628000D03*
X214757000Y-144628000D03*
X216027000Y-144628000D03*
X217297000Y-144628000D03*
D26*
X221602000Y-143378000D03*
X221602000Y-142108000D03*
X221602000Y-140838000D03*
X221602000Y-139568000D03*
X221602000Y-138298000D03*
X221602000Y-137028000D03*
X221602000Y-135758000D03*
X221602000Y-134488000D03*
X221602000Y-133218000D03*
X221602000Y-131948000D03*
X221602000Y-130678000D03*
X221602000Y-129408000D03*
X221602000Y-128138000D03*
X221602000Y-126868000D03*
D28*
X211352000Y-134588000D03*
D27*
X218567000Y-144628000D03*
X219837000Y-144628000D03*
D28*
X212752000Y-134588000D03*
X212752000Y-133188000D03*
X211352000Y-133188000D03*
X209952000Y-133188000D03*
X209952000Y-134588000D03*
X209952000Y-135988000D03*
X211352000Y-135988000D03*
X212752000Y-135988000D03*
%TD*%
%TO.C,C2*%
G36*
G01*
X250386000Y-201643000D02*
X250386000Y-200693000D01*
G75*
G02*
X250636000Y-200443000I250000J0D01*
G01*
X251136000Y-200443000D01*
G75*
G02*
X251386000Y-200693000I0J-250000D01*
G01*
X251386000Y-201643000D01*
G75*
G02*
X251136000Y-201893000I-250000J0D01*
G01*
X250636000Y-201893000D01*
G75*
G02*
X250386000Y-201643000I0J250000D01*
G01*
G37*
G36*
G01*
X248486000Y-201643000D02*
X248486000Y-200693000D01*
G75*
G02*
X248736000Y-200443000I250000J0D01*
G01*
X249236000Y-200443000D01*
G75*
G02*
X249486000Y-200693000I0J-250000D01*
G01*
X249486000Y-201643000D01*
G75*
G02*
X249236000Y-201893000I-250000J0D01*
G01*
X248736000Y-201893000D01*
G75*
G02*
X248486000Y-201643000I0J250000D01*
G01*
G37*
%TD*%
%TO.C,C1*%
G36*
G01*
X243274000Y-201643000D02*
X243274000Y-200693000D01*
G75*
G02*
X243524000Y-200443000I250000J0D01*
G01*
X244024000Y-200443000D01*
G75*
G02*
X244274000Y-200693000I0J-250000D01*
G01*
X244274000Y-201643000D01*
G75*
G02*
X244024000Y-201893000I-250000J0D01*
G01*
X243524000Y-201893000D01*
G75*
G02*
X243274000Y-201643000I0J250000D01*
G01*
G37*
G36*
G01*
X241374000Y-201643000D02*
X241374000Y-200693000D01*
G75*
G02*
X241624000Y-200443000I250000J0D01*
G01*
X242124000Y-200443000D01*
G75*
G02*
X242374000Y-200693000I0J-250000D01*
G01*
X242374000Y-201643000D01*
G75*
G02*
X242124000Y-201893000I-250000J0D01*
G01*
X241624000Y-201893000D01*
G75*
G02*
X241374000Y-201643000I0J250000D01*
G01*
G37*
%TD*%
D29*
%TO.C,H1*%
X169634056Y-203661944D03*
X167937000Y-202959000D03*
X166239944Y-203661944D03*
X165537000Y-205359000D03*
X166239944Y-207056056D03*
X167937000Y-207759000D03*
X169634056Y-207056056D03*
X170337000Y-205359000D03*
D30*
X167937000Y-205359000D03*
%TD*%
%TO.C,H2*%
X257937000Y-205359000D03*
D29*
X260337000Y-205359000D03*
X259634056Y-207056056D03*
X257937000Y-207759000D03*
X256239944Y-207056056D03*
X255537000Y-205359000D03*
X256239944Y-203661944D03*
X257937000Y-202959000D03*
X259634056Y-203661944D03*
%TD*%
%TO.C,H3*%
X259607056Y-120603944D03*
X257910000Y-119901000D03*
X256212944Y-120603944D03*
X255510000Y-122301000D03*
X256212944Y-123998056D03*
X257910000Y-124701000D03*
X259607056Y-123998056D03*
X260310000Y-122301000D03*
D30*
X257910000Y-122301000D03*
%TD*%
%TO.C,H4*%
X167767000Y-122301000D03*
D29*
X170167000Y-122301000D03*
X169464056Y-123998056D03*
X167767000Y-124701000D03*
X166069944Y-123998056D03*
X165367000Y-122301000D03*
X166069944Y-120603944D03*
X167767000Y-119901000D03*
X169464056Y-120603944D03*
%TD*%
%TO.C,C3*%
G36*
G01*
X189009000Y-171016000D02*
X189959000Y-171016000D01*
G75*
G02*
X190209000Y-171266000I0J-250000D01*
G01*
X190209000Y-171766000D01*
G75*
G02*
X189959000Y-172016000I-250000J0D01*
G01*
X189009000Y-172016000D01*
G75*
G02*
X188759000Y-171766000I0J250000D01*
G01*
X188759000Y-171266000D01*
G75*
G02*
X189009000Y-171016000I250000J0D01*
G01*
G37*
G36*
G01*
X189009000Y-172916000D02*
X189959000Y-172916000D01*
G75*
G02*
X190209000Y-173166000I0J-250000D01*
G01*
X190209000Y-173666000D01*
G75*
G02*
X189959000Y-173916000I-250000J0D01*
G01*
X189009000Y-173916000D01*
G75*
G02*
X188759000Y-173666000I0J250000D01*
G01*
X188759000Y-173166000D01*
G75*
G02*
X189009000Y-172916000I250000J0D01*
G01*
G37*
%TD*%
%TO.C,C5*%
G36*
G01*
X176726000Y-160622000D02*
X176726000Y-159672000D01*
G75*
G02*
X176976000Y-159422000I250000J0D01*
G01*
X177476000Y-159422000D01*
G75*
G02*
X177726000Y-159672000I0J-250000D01*
G01*
X177726000Y-160622000D01*
G75*
G02*
X177476000Y-160872000I-250000J0D01*
G01*
X176976000Y-160872000D01*
G75*
G02*
X176726000Y-160622000I0J250000D01*
G01*
G37*
G36*
G01*
X174826000Y-160622000D02*
X174826000Y-159672000D01*
G75*
G02*
X175076000Y-159422000I250000J0D01*
G01*
X175576000Y-159422000D01*
G75*
G02*
X175826000Y-159672000I0J-250000D01*
G01*
X175826000Y-160622000D01*
G75*
G02*
X175576000Y-160872000I-250000J0D01*
G01*
X175076000Y-160872000D01*
G75*
G02*
X174826000Y-160622000I0J250000D01*
G01*
G37*
%TD*%
%TO.C,C7*%
G36*
G01*
X175572000Y-174531000D02*
X175572000Y-175481000D01*
G75*
G02*
X175322000Y-175731000I-250000J0D01*
G01*
X174822000Y-175731000D01*
G75*
G02*
X174572000Y-175481000I0J250000D01*
G01*
X174572000Y-174531000D01*
G75*
G02*
X174822000Y-174281000I250000J0D01*
G01*
X175322000Y-174281000D01*
G75*
G02*
X175572000Y-174531000I0J-250000D01*
G01*
G37*
G36*
G01*
X177472000Y-174531000D02*
X177472000Y-175481000D01*
G75*
G02*
X177222000Y-175731000I-250000J0D01*
G01*
X176722000Y-175731000D01*
G75*
G02*
X176472000Y-175481000I0J250000D01*
G01*
X176472000Y-174531000D01*
G75*
G02*
X176722000Y-174281000I250000J0D01*
G01*
X177222000Y-174281000D01*
G75*
G02*
X177472000Y-174531000I0J-250000D01*
G01*
G37*
%TD*%
%TO.C,C8*%
G36*
G01*
X192458000Y-159291000D02*
X192458000Y-160241000D01*
G75*
G02*
X192208000Y-160491000I-250000J0D01*
G01*
X191708000Y-160491000D01*
G75*
G02*
X191458000Y-160241000I0J250000D01*
G01*
X191458000Y-159291000D01*
G75*
G02*
X191708000Y-159041000I250000J0D01*
G01*
X192208000Y-159041000D01*
G75*
G02*
X192458000Y-159291000I0J-250000D01*
G01*
G37*
G36*
G01*
X190558000Y-159291000D02*
X190558000Y-160241000D01*
G75*
G02*
X190308000Y-160491000I-250000J0D01*
G01*
X189808000Y-160491000D01*
G75*
G02*
X189558000Y-160241000I0J250000D01*
G01*
X189558000Y-159291000D01*
G75*
G02*
X189808000Y-159041000I250000J0D01*
G01*
X190308000Y-159041000D01*
G75*
G02*
X190558000Y-159291000I0J-250000D01*
G01*
G37*
%TD*%
%TO.C,C9*%
G36*
G01*
X177726000Y-151671000D02*
X177726000Y-152621000D01*
G75*
G02*
X177476000Y-152871000I-250000J0D01*
G01*
X176976000Y-152871000D01*
G75*
G02*
X176726000Y-152621000I0J250000D01*
G01*
X176726000Y-151671000D01*
G75*
G02*
X176976000Y-151421000I250000J0D01*
G01*
X177476000Y-151421000D01*
G75*
G02*
X177726000Y-151671000I0J-250000D01*
G01*
G37*
G36*
G01*
X175826000Y-151671000D02*
X175826000Y-152621000D01*
G75*
G02*
X175576000Y-152871000I-250000J0D01*
G01*
X175076000Y-152871000D01*
G75*
G02*
X174826000Y-152621000I0J250000D01*
G01*
X174826000Y-151671000D01*
G75*
G02*
X175076000Y-151421000I250000J0D01*
G01*
X175576000Y-151421000D01*
G75*
G02*
X175826000Y-151671000I0J-250000D01*
G01*
G37*
%TD*%
%TO.C,C10*%
G36*
G01*
X196400000Y-159291000D02*
X196400000Y-160241000D01*
G75*
G02*
X196150000Y-160491000I-250000J0D01*
G01*
X195650000Y-160491000D01*
G75*
G02*
X195400000Y-160241000I0J250000D01*
G01*
X195400000Y-159291000D01*
G75*
G02*
X195650000Y-159041000I250000J0D01*
G01*
X196150000Y-159041000D01*
G75*
G02*
X196400000Y-159291000I0J-250000D01*
G01*
G37*
G36*
G01*
X198300000Y-159291000D02*
X198300000Y-160241000D01*
G75*
G02*
X198050000Y-160491000I-250000J0D01*
G01*
X197550000Y-160491000D01*
G75*
G02*
X197300000Y-160241000I0J250000D01*
G01*
X197300000Y-159291000D01*
G75*
G02*
X197550000Y-159041000I250000J0D01*
G01*
X198050000Y-159041000D01*
G75*
G02*
X198300000Y-159291000I0J-250000D01*
G01*
G37*
%TD*%
%TO.C,C11*%
G36*
G01*
X174826000Y-156431000D02*
X174826000Y-155481000D01*
G75*
G02*
X175076000Y-155231000I250000J0D01*
G01*
X175576000Y-155231000D01*
G75*
G02*
X175826000Y-155481000I0J-250000D01*
G01*
X175826000Y-156431000D01*
G75*
G02*
X175576000Y-156681000I-250000J0D01*
G01*
X175076000Y-156681000D01*
G75*
G02*
X174826000Y-156431000I0J250000D01*
G01*
G37*
G36*
G01*
X176726000Y-156431000D02*
X176726000Y-155481000D01*
G75*
G02*
X176976000Y-155231000I250000J0D01*
G01*
X177476000Y-155231000D01*
G75*
G02*
X177726000Y-155481000I0J-250000D01*
G01*
X177726000Y-156431000D01*
G75*
G02*
X177476000Y-156681000I-250000J0D01*
G01*
X176976000Y-156681000D01*
G75*
G02*
X176726000Y-156431000I0J250000D01*
G01*
G37*
%TD*%
%TO.C,C12*%
G36*
G01*
X175826000Y-162085000D02*
X175826000Y-163035000D01*
G75*
G02*
X175576000Y-163285000I-250000J0D01*
G01*
X175076000Y-163285000D01*
G75*
G02*
X174826000Y-163035000I0J250000D01*
G01*
X174826000Y-162085000D01*
G75*
G02*
X175076000Y-161835000I250000J0D01*
G01*
X175576000Y-161835000D01*
G75*
G02*
X175826000Y-162085000I0J-250000D01*
G01*
G37*
G36*
G01*
X177726000Y-162085000D02*
X177726000Y-163035000D01*
G75*
G02*
X177476000Y-163285000I-250000J0D01*
G01*
X176976000Y-163285000D01*
G75*
G02*
X176726000Y-163035000I0J250000D01*
G01*
X176726000Y-162085000D01*
G75*
G02*
X176976000Y-161835000I250000J0D01*
G01*
X177476000Y-161835000D01*
G75*
G02*
X177726000Y-162085000I0J-250000D01*
G01*
G37*
%TD*%
%TO.C,C14*%
G36*
G01*
X175948000Y-142527000D02*
X175948000Y-143477000D01*
G75*
G02*
X175698000Y-143727000I-250000J0D01*
G01*
X175198000Y-143727000D01*
G75*
G02*
X174948000Y-143477000I0J250000D01*
G01*
X174948000Y-142527000D01*
G75*
G02*
X175198000Y-142277000I250000J0D01*
G01*
X175698000Y-142277000D01*
G75*
G02*
X175948000Y-142527000I0J-250000D01*
G01*
G37*
G36*
G01*
X174048000Y-142527000D02*
X174048000Y-143477000D01*
G75*
G02*
X173798000Y-143727000I-250000J0D01*
G01*
X173298000Y-143727000D01*
G75*
G02*
X173048000Y-143477000I0J250000D01*
G01*
X173048000Y-142527000D01*
G75*
G02*
X173298000Y-142277000I250000J0D01*
G01*
X173798000Y-142277000D01*
G75*
G02*
X174048000Y-142527000I0J-250000D01*
G01*
G37*
%TD*%
%TO.C,C15*%
G36*
G01*
X228313000Y-189288000D02*
X227363000Y-189288000D01*
G75*
G02*
X227113000Y-189038000I0J250000D01*
G01*
X227113000Y-188538000D01*
G75*
G02*
X227363000Y-188288000I250000J0D01*
G01*
X228313000Y-188288000D01*
G75*
G02*
X228563000Y-188538000I0J-250000D01*
G01*
X228563000Y-189038000D01*
G75*
G02*
X228313000Y-189288000I-250000J0D01*
G01*
G37*
G36*
G01*
X228313000Y-191188000D02*
X227363000Y-191188000D01*
G75*
G02*
X227113000Y-190938000I0J250000D01*
G01*
X227113000Y-190438000D01*
G75*
G02*
X227363000Y-190188000I250000J0D01*
G01*
X228313000Y-190188000D01*
G75*
G02*
X228563000Y-190438000I0J-250000D01*
G01*
X228563000Y-190938000D01*
G75*
G02*
X228313000Y-191188000I-250000J0D01*
G01*
G37*
%TD*%
%TO.C,C16*%
G36*
G01*
X234475000Y-188288000D02*
X235425000Y-188288000D01*
G75*
G02*
X235675000Y-188538000I0J-250000D01*
G01*
X235675000Y-189038000D01*
G75*
G02*
X235425000Y-189288000I-250000J0D01*
G01*
X234475000Y-189288000D01*
G75*
G02*
X234225000Y-189038000I0J250000D01*
G01*
X234225000Y-188538000D01*
G75*
G02*
X234475000Y-188288000I250000J0D01*
G01*
G37*
G36*
G01*
X234475000Y-190188000D02*
X235425000Y-190188000D01*
G75*
G02*
X235675000Y-190438000I0J-250000D01*
G01*
X235675000Y-190938000D01*
G75*
G02*
X235425000Y-191188000I-250000J0D01*
G01*
X234475000Y-191188000D01*
G75*
G02*
X234225000Y-190938000I0J250000D01*
G01*
X234225000Y-190438000D01*
G75*
G02*
X234475000Y-190188000I250000J0D01*
G01*
G37*
%TD*%
%TO.C,C17*%
G36*
G01*
X214536000Y-188161000D02*
X215486000Y-188161000D01*
G75*
G02*
X215736000Y-188411000I0J-250000D01*
G01*
X215736000Y-188911000D01*
G75*
G02*
X215486000Y-189161000I-250000J0D01*
G01*
X214536000Y-189161000D01*
G75*
G02*
X214286000Y-188911000I0J250000D01*
G01*
X214286000Y-188411000D01*
G75*
G02*
X214536000Y-188161000I250000J0D01*
G01*
G37*
G36*
G01*
X214536000Y-190061000D02*
X215486000Y-190061000D01*
G75*
G02*
X215736000Y-190311000I0J-250000D01*
G01*
X215736000Y-190811000D01*
G75*
G02*
X215486000Y-191061000I-250000J0D01*
G01*
X214536000Y-191061000D01*
G75*
G02*
X214286000Y-190811000I0J250000D01*
G01*
X214286000Y-190311000D01*
G75*
G02*
X214536000Y-190061000I250000J0D01*
G01*
G37*
%TD*%
%TO.C,C21*%
G36*
G01*
X182552000Y-127922000D02*
X182552000Y-128872000D01*
G75*
G02*
X182302000Y-129122000I-250000J0D01*
G01*
X181802000Y-129122000D01*
G75*
G02*
X181552000Y-128872000I0J250000D01*
G01*
X181552000Y-127922000D01*
G75*
G02*
X181802000Y-127672000I250000J0D01*
G01*
X182302000Y-127672000D01*
G75*
G02*
X182552000Y-127922000I0J-250000D01*
G01*
G37*
G36*
G01*
X180652000Y-127922000D02*
X180652000Y-128872000D01*
G75*
G02*
X180402000Y-129122000I-250000J0D01*
G01*
X179902000Y-129122000D01*
G75*
G02*
X179652000Y-128872000I0J250000D01*
G01*
X179652000Y-127922000D01*
G75*
G02*
X179902000Y-127672000I250000J0D01*
G01*
X180402000Y-127672000D01*
G75*
G02*
X180652000Y-127922000I0J-250000D01*
G01*
G37*
%TD*%
%TO.C,C22*%
G36*
G01*
X220668000Y-158717000D02*
X220668000Y-157767000D01*
G75*
G02*
X220918000Y-157517000I250000J0D01*
G01*
X221418000Y-157517000D01*
G75*
G02*
X221668000Y-157767000I0J-250000D01*
G01*
X221668000Y-158717000D01*
G75*
G02*
X221418000Y-158967000I-250000J0D01*
G01*
X220918000Y-158967000D01*
G75*
G02*
X220668000Y-158717000I0J250000D01*
G01*
G37*
G36*
G01*
X218768000Y-158717000D02*
X218768000Y-157767000D01*
G75*
G02*
X219018000Y-157517000I250000J0D01*
G01*
X219518000Y-157517000D01*
G75*
G02*
X219768000Y-157767000I0J-250000D01*
G01*
X219768000Y-158717000D01*
G75*
G02*
X219518000Y-158967000I-250000J0D01*
G01*
X219018000Y-158967000D01*
G75*
G02*
X218768000Y-158717000I0J250000D01*
G01*
G37*
%TD*%
%TO.C,C23*%
G36*
G01*
X218768000Y-161511000D02*
X218768000Y-160561000D01*
G75*
G02*
X219018000Y-160311000I250000J0D01*
G01*
X219518000Y-160311000D01*
G75*
G02*
X219768000Y-160561000I0J-250000D01*
G01*
X219768000Y-161511000D01*
G75*
G02*
X219518000Y-161761000I-250000J0D01*
G01*
X219018000Y-161761000D01*
G75*
G02*
X218768000Y-161511000I0J250000D01*
G01*
G37*
G36*
G01*
X220668000Y-161511000D02*
X220668000Y-160561000D01*
G75*
G02*
X220918000Y-160311000I250000J0D01*
G01*
X221418000Y-160311000D01*
G75*
G02*
X221668000Y-160561000I0J-250000D01*
G01*
X221668000Y-161511000D01*
G75*
G02*
X221418000Y-161761000I-250000J0D01*
G01*
X220918000Y-161761000D01*
G75*
G02*
X220668000Y-161511000I0J250000D01*
G01*
G37*
%TD*%
%TO.C,C25*%
G36*
G01*
X179164000Y-123629000D02*
X178214000Y-123629000D01*
G75*
G02*
X177964000Y-123379000I0J250000D01*
G01*
X177964000Y-122879000D01*
G75*
G02*
X178214000Y-122629000I250000J0D01*
G01*
X179164000Y-122629000D01*
G75*
G02*
X179414000Y-122879000I0J-250000D01*
G01*
X179414000Y-123379000D01*
G75*
G02*
X179164000Y-123629000I-250000J0D01*
G01*
G37*
G36*
G01*
X179164000Y-125529000D02*
X178214000Y-125529000D01*
G75*
G02*
X177964000Y-125279000I0J250000D01*
G01*
X177964000Y-124779000D01*
G75*
G02*
X178214000Y-124529000I250000J0D01*
G01*
X179164000Y-124529000D01*
G75*
G02*
X179414000Y-124779000I0J-250000D01*
G01*
X179414000Y-125279000D01*
G75*
G02*
X179164000Y-125529000I-250000J0D01*
G01*
G37*
%TD*%
%TO.C,D1*%
G36*
G01*
X184232000Y-134617750D02*
X184232000Y-135130250D01*
G75*
G02*
X184013250Y-135349000I-218750J0D01*
G01*
X183575750Y-135349000D01*
G75*
G02*
X183357000Y-135130250I0J218750D01*
G01*
X183357000Y-134617750D01*
G75*
G02*
X183575750Y-134399000I218750J0D01*
G01*
X184013250Y-134399000D01*
G75*
G02*
X184232000Y-134617750I0J-218750D01*
G01*
G37*
G36*
G01*
X182657000Y-134617750D02*
X182657000Y-135130250D01*
G75*
G02*
X182438250Y-135349000I-218750J0D01*
G01*
X182000750Y-135349000D01*
G75*
G02*
X181782000Y-135130250I0J218750D01*
G01*
X181782000Y-134617750D01*
G75*
G02*
X182000750Y-134399000I218750J0D01*
G01*
X182438250Y-134399000D01*
G75*
G02*
X182657000Y-134617750I0J-218750D01*
G01*
G37*
%TD*%
D31*
%TO.C,D2*%
X170688000Y-198662000D03*
X170688000Y-196562000D03*
%TD*%
%TO.C,D3*%
G36*
G01*
X182530000Y-188719750D02*
X182530000Y-189232250D01*
G75*
G02*
X182311250Y-189451000I-218750J0D01*
G01*
X181873750Y-189451000D01*
G75*
G02*
X181655000Y-189232250I0J218750D01*
G01*
X181655000Y-188719750D01*
G75*
G02*
X181873750Y-188501000I218750J0D01*
G01*
X182311250Y-188501000D01*
G75*
G02*
X182530000Y-188719750I0J-218750D01*
G01*
G37*
G36*
G01*
X184105000Y-188719750D02*
X184105000Y-189232250D01*
G75*
G02*
X183886250Y-189451000I-218750J0D01*
G01*
X183448750Y-189451000D01*
G75*
G02*
X183230000Y-189232250I0J218750D01*
G01*
X183230000Y-188719750D01*
G75*
G02*
X183448750Y-188501000I218750J0D01*
G01*
X183886250Y-188501000D01*
G75*
G02*
X184105000Y-188719750I0J-218750D01*
G01*
G37*
%TD*%
%TO.C,D4*%
G36*
G01*
X175799000Y-167383750D02*
X175799000Y-167896250D01*
G75*
G02*
X175580250Y-168115000I-218750J0D01*
G01*
X175142750Y-168115000D01*
G75*
G02*
X174924000Y-167896250I0J218750D01*
G01*
X174924000Y-167383750D01*
G75*
G02*
X175142750Y-167165000I218750J0D01*
G01*
X175580250Y-167165000D01*
G75*
G02*
X175799000Y-167383750I0J-218750D01*
G01*
G37*
G36*
G01*
X177374000Y-167383750D02*
X177374000Y-167896250D01*
G75*
G02*
X177155250Y-168115000I-218750J0D01*
G01*
X176717750Y-168115000D01*
G75*
G02*
X176499000Y-167896250I0J218750D01*
G01*
X176499000Y-167383750D01*
G75*
G02*
X176717750Y-167165000I218750J0D01*
G01*
X177155250Y-167165000D01*
G75*
G02*
X177374000Y-167383750I0J-218750D01*
G01*
G37*
%TD*%
%TO.C,D11*%
X231394000Y-190788000D03*
X231394000Y-188688000D03*
%TD*%
%TO.C,D12*%
X218694000Y-188561000D03*
X218694000Y-190661000D03*
%TD*%
%TO.C,D13*%
G36*
G01*
X222252250Y-185121000D02*
X221739750Y-185121000D01*
G75*
G02*
X221521000Y-184902250I0J218750D01*
G01*
X221521000Y-184464750D01*
G75*
G02*
X221739750Y-184246000I218750J0D01*
G01*
X222252250Y-184246000D01*
G75*
G02*
X222471000Y-184464750I0J-218750D01*
G01*
X222471000Y-184902250D01*
G75*
G02*
X222252250Y-185121000I-218750J0D01*
G01*
G37*
G36*
G01*
X222252250Y-183546000D02*
X221739750Y-183546000D01*
G75*
G02*
X221521000Y-183327250I0J218750D01*
G01*
X221521000Y-182889750D01*
G75*
G02*
X221739750Y-182671000I218750J0D01*
G01*
X222252250Y-182671000D01*
G75*
G02*
X222471000Y-182889750I0J-218750D01*
G01*
X222471000Y-183327250D01*
G75*
G02*
X222252250Y-183546000I-218750J0D01*
G01*
G37*
%TD*%
D32*
%TO.C,J1*%
X239350000Y-147320000D03*
X243250000Y-147320000D03*
X239350000Y-148590000D03*
X243250000Y-148590000D03*
X239350000Y-149860000D03*
X243250000Y-149860000D03*
X239350000Y-151130000D03*
X243250000Y-151130000D03*
X239350000Y-152400000D03*
X243250000Y-152400000D03*
%TD*%
D25*
%TO.C,J3*%
X258064000Y-132588000D03*
D24*
X258064000Y-135128000D03*
X258064000Y-137668000D03*
X258064000Y-140208000D03*
X258064000Y-142748000D03*
X258064000Y-145288000D03*
X258064000Y-147828000D03*
X258064000Y-150368000D03*
X258064000Y-152908000D03*
X258064000Y-155448000D03*
X258064000Y-157988000D03*
X258064000Y-160528000D03*
X258064000Y-163068000D03*
X258064000Y-165608000D03*
X258064000Y-168148000D03*
X258064000Y-170688000D03*
X258064000Y-173228000D03*
X258064000Y-175768000D03*
X258064000Y-178308000D03*
X258064000Y-180848000D03*
X258064000Y-183388000D03*
X258064000Y-185928000D03*
%TD*%
%TO.C,J5*%
X184404000Y-184912000D03*
X181864000Y-184912000D03*
X184404000Y-182372000D03*
D25*
X181864000Y-182372000D03*
%TD*%
%TO.C,J6*%
X249174000Y-126492000D03*
D24*
X251714000Y-126492000D03*
X249174000Y-129032000D03*
X251714000Y-129032000D03*
%TD*%
D33*
%TO.C,J9*%
X200812000Y-192532000D03*
X199712000Y-192532000D03*
X198612000Y-192532000D03*
X197512000Y-192532000D03*
X196412000Y-192532000D03*
X195312000Y-192532000D03*
X194212000Y-192532000D03*
X193112000Y-192532000D03*
X192162000Y-192532000D03*
D34*
X202362000Y-192532000D03*
X191212000Y-196832000D03*
D35*
X191212000Y-203032000D03*
D36*
X191212000Y-207182000D03*
D37*
X204712000Y-207632000D03*
%TD*%
%TO.C,L1*%
G36*
G01*
X179996000Y-144997000D02*
X179996000Y-143547000D01*
G75*
G02*
X180371000Y-143172000I375000J0D01*
G01*
X181121000Y-143172000D01*
G75*
G02*
X181496000Y-143547000I0J-375000D01*
G01*
X181496000Y-144997000D01*
G75*
G02*
X181121000Y-145372000I-375000J0D01*
G01*
X180371000Y-145372000D01*
G75*
G02*
X179996000Y-144997000I0J375000D01*
G01*
G37*
G36*
G01*
X186296000Y-144997000D02*
X186296000Y-143547000D01*
G75*
G02*
X186671000Y-143172000I375000J0D01*
G01*
X187421000Y-143172000D01*
G75*
G02*
X187796000Y-143547000I0J-375000D01*
G01*
X187796000Y-144997000D01*
G75*
G02*
X187421000Y-145372000I-375000J0D01*
G01*
X186671000Y-145372000D01*
G75*
G02*
X186296000Y-144997000I0J375000D01*
G01*
G37*
%TD*%
%TO.C,R1*%
G36*
G01*
X178844000Y-134423998D02*
X178844000Y-135324002D01*
G75*
G02*
X178594002Y-135574000I-249998J0D01*
G01*
X178068998Y-135574000D01*
G75*
G02*
X177819000Y-135324002I0J249998D01*
G01*
X177819000Y-134423998D01*
G75*
G02*
X178068998Y-134174000I249998J0D01*
G01*
X178594002Y-134174000D01*
G75*
G02*
X178844000Y-134423998I0J-249998D01*
G01*
G37*
G36*
G01*
X177019000Y-134423998D02*
X177019000Y-135324002D01*
G75*
G02*
X176769002Y-135574000I-249998J0D01*
G01*
X176243998Y-135574000D01*
G75*
G02*
X175994000Y-135324002I0J249998D01*
G01*
X175994000Y-134423998D01*
G75*
G02*
X176243998Y-134174000I249998J0D01*
G01*
X176769002Y-134174000D01*
G75*
G02*
X177019000Y-134423998I0J-249998D01*
G01*
G37*
%TD*%
%TO.C,R2*%
G36*
G01*
X231070998Y-148736000D02*
X231971002Y-148736000D01*
G75*
G02*
X232221000Y-148985998I0J-249998D01*
G01*
X232221000Y-149511002D01*
G75*
G02*
X231971002Y-149761000I-249998J0D01*
G01*
X231070998Y-149761000D01*
G75*
G02*
X230821000Y-149511002I0J249998D01*
G01*
X230821000Y-148985998D01*
G75*
G02*
X231070998Y-148736000I249998J0D01*
G01*
G37*
G36*
G01*
X231070998Y-146911000D02*
X231971002Y-146911000D01*
G75*
G02*
X232221000Y-147160998I0J-249998D01*
G01*
X232221000Y-147686002D01*
G75*
G02*
X231971002Y-147936000I-249998J0D01*
G01*
X231070998Y-147936000D01*
G75*
G02*
X230821000Y-147686002I0J249998D01*
G01*
X230821000Y-147160998D01*
G75*
G02*
X231070998Y-146911000I249998J0D01*
G01*
G37*
%TD*%
%TO.C,R3*%
G36*
G01*
X226879998Y-148736000D02*
X227780002Y-148736000D01*
G75*
G02*
X228030000Y-148985998I0J-249998D01*
G01*
X228030000Y-149511002D01*
G75*
G02*
X227780002Y-149761000I-249998J0D01*
G01*
X226879998Y-149761000D01*
G75*
G02*
X226630000Y-149511002I0J249998D01*
G01*
X226630000Y-148985998D01*
G75*
G02*
X226879998Y-148736000I249998J0D01*
G01*
G37*
G36*
G01*
X226879998Y-146911000D02*
X227780002Y-146911000D01*
G75*
G02*
X228030000Y-147160998I0J-249998D01*
G01*
X228030000Y-147686002D01*
G75*
G02*
X227780002Y-147936000I-249998J0D01*
G01*
X226879998Y-147936000D01*
G75*
G02*
X226630000Y-147686002I0J249998D01*
G01*
X226630000Y-147160998D01*
G75*
G02*
X226879998Y-146911000I249998J0D01*
G01*
G37*
%TD*%
%TO.C,R4*%
G36*
G01*
X232509000Y-179520002D02*
X232509000Y-178619998D01*
G75*
G02*
X232758998Y-178370000I249998J0D01*
G01*
X233284002Y-178370000D01*
G75*
G02*
X233534000Y-178619998I0J-249998D01*
G01*
X233534000Y-179520002D01*
G75*
G02*
X233284002Y-179770000I-249998J0D01*
G01*
X232758998Y-179770000D01*
G75*
G02*
X232509000Y-179520002I0J249998D01*
G01*
G37*
G36*
G01*
X234334000Y-179520002D02*
X234334000Y-178619998D01*
G75*
G02*
X234583998Y-178370000I249998J0D01*
G01*
X235109002Y-178370000D01*
G75*
G02*
X235359000Y-178619998I0J-249998D01*
G01*
X235359000Y-179520002D01*
G75*
G02*
X235109002Y-179770000I-249998J0D01*
G01*
X234583998Y-179770000D01*
G75*
G02*
X234334000Y-179520002I0J249998D01*
G01*
G37*
%TD*%
%TO.C,R5*%
G36*
G01*
X232509000Y-183076002D02*
X232509000Y-182175998D01*
G75*
G02*
X232758998Y-181926000I249998J0D01*
G01*
X233284002Y-181926000D01*
G75*
G02*
X233534000Y-182175998I0J-249998D01*
G01*
X233534000Y-183076002D01*
G75*
G02*
X233284002Y-183326000I-249998J0D01*
G01*
X232758998Y-183326000D01*
G75*
G02*
X232509000Y-183076002I0J249998D01*
G01*
G37*
G36*
G01*
X234334000Y-183076002D02*
X234334000Y-182175998D01*
G75*
G02*
X234583998Y-181926000I249998J0D01*
G01*
X235109002Y-181926000D01*
G75*
G02*
X235359000Y-182175998I0J-249998D01*
G01*
X235359000Y-183076002D01*
G75*
G02*
X235109002Y-183326000I-249998J0D01*
G01*
X234583998Y-183326000D01*
G75*
G02*
X234334000Y-183076002I0J249998D01*
G01*
G37*
%TD*%
%TO.C,R6*%
G36*
G01*
X246606000Y-156152002D02*
X246606000Y-155251998D01*
G75*
G02*
X246855998Y-155002000I249998J0D01*
G01*
X247381002Y-155002000D01*
G75*
G02*
X247631000Y-155251998I0J-249998D01*
G01*
X247631000Y-156152002D01*
G75*
G02*
X247381002Y-156402000I-249998J0D01*
G01*
X246855998Y-156402000D01*
G75*
G02*
X246606000Y-156152002I0J249998D01*
G01*
G37*
G36*
G01*
X248431000Y-156152002D02*
X248431000Y-155251998D01*
G75*
G02*
X248680998Y-155002000I249998J0D01*
G01*
X249206002Y-155002000D01*
G75*
G02*
X249456000Y-155251998I0J-249998D01*
G01*
X249456000Y-156152002D01*
G75*
G02*
X249206002Y-156402000I-249998J0D01*
G01*
X248680998Y-156402000D01*
G75*
G02*
X248431000Y-156152002I0J249998D01*
G01*
G37*
%TD*%
%TO.C,R7*%
G36*
G01*
X193910000Y-148901998D02*
X193910000Y-149802002D01*
G75*
G02*
X193660002Y-150052000I-249998J0D01*
G01*
X193134998Y-150052000D01*
G75*
G02*
X192885000Y-149802002I0J249998D01*
G01*
X192885000Y-148901998D01*
G75*
G02*
X193134998Y-148652000I249998J0D01*
G01*
X193660002Y-148652000D01*
G75*
G02*
X193910000Y-148901998I0J-249998D01*
G01*
G37*
G36*
G01*
X195735000Y-148901998D02*
X195735000Y-149802002D01*
G75*
G02*
X195485002Y-150052000I-249998J0D01*
G01*
X194959998Y-150052000D01*
G75*
G02*
X194710000Y-149802002I0J249998D01*
G01*
X194710000Y-148901998D01*
G75*
G02*
X194959998Y-148652000I249998J0D01*
G01*
X195485002Y-148652000D01*
G75*
G02*
X195735000Y-148901998I0J-249998D01*
G01*
G37*
%TD*%
%TO.C,R8*%
G36*
G01*
X195735000Y-151441998D02*
X195735000Y-152342002D01*
G75*
G02*
X195485002Y-152592000I-249998J0D01*
G01*
X194959998Y-152592000D01*
G75*
G02*
X194710000Y-152342002I0J249998D01*
G01*
X194710000Y-151441998D01*
G75*
G02*
X194959998Y-151192000I249998J0D01*
G01*
X195485002Y-151192000D01*
G75*
G02*
X195735000Y-151441998I0J-249998D01*
G01*
G37*
G36*
G01*
X193910000Y-151441998D02*
X193910000Y-152342002D01*
G75*
G02*
X193660002Y-152592000I-249998J0D01*
G01*
X193134998Y-152592000D01*
G75*
G02*
X192885000Y-152342002I0J249998D01*
G01*
X192885000Y-151441998D01*
G75*
G02*
X193134998Y-151192000I249998J0D01*
G01*
X193660002Y-151192000D01*
G75*
G02*
X193910000Y-151441998I0J-249998D01*
G01*
G37*
%TD*%
%TO.C,R9*%
G36*
G01*
X199282000Y-149802002D02*
X199282000Y-148901998D01*
G75*
G02*
X199531998Y-148652000I249998J0D01*
G01*
X200057002Y-148652000D01*
G75*
G02*
X200307000Y-148901998I0J-249998D01*
G01*
X200307000Y-149802002D01*
G75*
G02*
X200057002Y-150052000I-249998J0D01*
G01*
X199531998Y-150052000D01*
G75*
G02*
X199282000Y-149802002I0J249998D01*
G01*
G37*
G36*
G01*
X197457000Y-149802002D02*
X197457000Y-148901998D01*
G75*
G02*
X197706998Y-148652000I249998J0D01*
G01*
X198232002Y-148652000D01*
G75*
G02*
X198482000Y-148901998I0J-249998D01*
G01*
X198482000Y-149802002D01*
G75*
G02*
X198232002Y-150052000I-249998J0D01*
G01*
X197706998Y-150052000D01*
G75*
G02*
X197457000Y-149802002I0J249998D01*
G01*
G37*
%TD*%
%TO.C,R10*%
G36*
G01*
X197457000Y-152342002D02*
X197457000Y-151441998D01*
G75*
G02*
X197706998Y-151192000I249998J0D01*
G01*
X198232002Y-151192000D01*
G75*
G02*
X198482000Y-151441998I0J-249998D01*
G01*
X198482000Y-152342002D01*
G75*
G02*
X198232002Y-152592000I-249998J0D01*
G01*
X197706998Y-152592000D01*
G75*
G02*
X197457000Y-152342002I0J249998D01*
G01*
G37*
G36*
G01*
X199282000Y-152342002D02*
X199282000Y-151441998D01*
G75*
G02*
X199531998Y-151192000I249998J0D01*
G01*
X200057002Y-151192000D01*
G75*
G02*
X200307000Y-151441998I0J-249998D01*
G01*
X200307000Y-152342002D01*
G75*
G02*
X200057002Y-152592000I-249998J0D01*
G01*
X199531998Y-152592000D01*
G75*
G02*
X199282000Y-152342002I0J249998D01*
G01*
G37*
%TD*%
%TO.C,R11*%
G36*
G01*
X200159000Y-173541003D02*
X200159000Y-171390997D01*
G75*
G02*
X200408997Y-171141000I249997J0D01*
G01*
X201034003Y-171141000D01*
G75*
G02*
X201284000Y-171390997I0J-249997D01*
G01*
X201284000Y-173541003D01*
G75*
G02*
X201034003Y-173791000I-249997J0D01*
G01*
X200408997Y-173791000D01*
G75*
G02*
X200159000Y-173541003I0J249997D01*
G01*
G37*
G36*
G01*
X203084000Y-173541003D02*
X203084000Y-171390997D01*
G75*
G02*
X203333997Y-171141000I249997J0D01*
G01*
X203959003Y-171141000D01*
G75*
G02*
X204209000Y-171390997I0J-249997D01*
G01*
X204209000Y-173541003D01*
G75*
G02*
X203959003Y-173791000I-249997J0D01*
G01*
X203333997Y-173791000D01*
G75*
G02*
X203084000Y-173541003I0J249997D01*
G01*
G37*
%TD*%
%TO.C,R12*%
G36*
G01*
X209749500Y-173083803D02*
X209749500Y-170933797D01*
G75*
G02*
X209999497Y-170683800I249997J0D01*
G01*
X210624503Y-170683800D01*
G75*
G02*
X210874500Y-170933797I0J-249997D01*
G01*
X210874500Y-173083803D01*
G75*
G02*
X210624503Y-173333800I-249997J0D01*
G01*
X209999497Y-173333800D01*
G75*
G02*
X209749500Y-173083803I0J249997D01*
G01*
G37*
G36*
G01*
X206824500Y-173083803D02*
X206824500Y-170933797D01*
G75*
G02*
X207074497Y-170683800I249997J0D01*
G01*
X207699503Y-170683800D01*
G75*
G02*
X207949500Y-170933797I0J-249997D01*
G01*
X207949500Y-173083803D01*
G75*
G02*
X207699503Y-173333800I-249997J0D01*
G01*
X207074497Y-173333800D01*
G75*
G02*
X206824500Y-173083803I0J249997D01*
G01*
G37*
%TD*%
%TO.C,R13*%
G36*
G01*
X174759000Y-186495003D02*
X174759000Y-184344997D01*
G75*
G02*
X175008997Y-184095000I249997J0D01*
G01*
X175634003Y-184095000D01*
G75*
G02*
X175884000Y-184344997I0J-249997D01*
G01*
X175884000Y-186495003D01*
G75*
G02*
X175634003Y-186745000I-249997J0D01*
G01*
X175008997Y-186745000D01*
G75*
G02*
X174759000Y-186495003I0J249997D01*
G01*
G37*
G36*
G01*
X177684000Y-186495003D02*
X177684000Y-184344997D01*
G75*
G02*
X177933997Y-184095000I249997J0D01*
G01*
X178559003Y-184095000D01*
G75*
G02*
X178809000Y-184344997I0J-249997D01*
G01*
X178809000Y-186495003D01*
G75*
G02*
X178559003Y-186745000I-249997J0D01*
G01*
X177933997Y-186745000D01*
G75*
G02*
X177684000Y-186495003I0J249997D01*
G01*
G37*
%TD*%
%TO.C,R14*%
G36*
G01*
X178844000Y-188525998D02*
X178844000Y-189426002D01*
G75*
G02*
X178594002Y-189676000I-249998J0D01*
G01*
X178068998Y-189676000D01*
G75*
G02*
X177819000Y-189426002I0J249998D01*
G01*
X177819000Y-188525998D01*
G75*
G02*
X178068998Y-188276000I249998J0D01*
G01*
X178594002Y-188276000D01*
G75*
G02*
X178844000Y-188525998I0J-249998D01*
G01*
G37*
G36*
G01*
X177019000Y-188525998D02*
X177019000Y-189426002D01*
G75*
G02*
X176769002Y-189676000I-249998J0D01*
G01*
X176243998Y-189676000D01*
G75*
G02*
X175994000Y-189426002I0J249998D01*
G01*
X175994000Y-188525998D01*
G75*
G02*
X176243998Y-188276000I249998J0D01*
G01*
X176769002Y-188276000D01*
G75*
G02*
X177019000Y-188525998I0J-249998D01*
G01*
G37*
%TD*%
%TO.C,R15*%
G36*
G01*
X197250000Y-166947002D02*
X197250000Y-166046998D01*
G75*
G02*
X197499998Y-165797000I249998J0D01*
G01*
X198025002Y-165797000D01*
G75*
G02*
X198275000Y-166046998I0J-249998D01*
G01*
X198275000Y-166947002D01*
G75*
G02*
X198025002Y-167197000I-249998J0D01*
G01*
X197499998Y-167197000D01*
G75*
G02*
X197250000Y-166947002I0J249998D01*
G01*
G37*
G36*
G01*
X195425000Y-166947002D02*
X195425000Y-166046998D01*
G75*
G02*
X195674998Y-165797000I249998J0D01*
G01*
X196200002Y-165797000D01*
G75*
G02*
X196450000Y-166046998I0J-249998D01*
G01*
X196450000Y-166947002D01*
G75*
G02*
X196200002Y-167197000I-249998J0D01*
G01*
X195674998Y-167197000D01*
G75*
G02*
X195425000Y-166947002I0J249998D01*
G01*
G37*
%TD*%
%TO.C,R16*%
G36*
G01*
X174597000Y-172408002D02*
X174597000Y-171507998D01*
G75*
G02*
X174846998Y-171258000I249998J0D01*
G01*
X175372002Y-171258000D01*
G75*
G02*
X175622000Y-171507998I0J-249998D01*
G01*
X175622000Y-172408002D01*
G75*
G02*
X175372002Y-172658000I-249998J0D01*
G01*
X174846998Y-172658000D01*
G75*
G02*
X174597000Y-172408002I0J249998D01*
G01*
G37*
G36*
G01*
X176422000Y-172408002D02*
X176422000Y-171507998D01*
G75*
G02*
X176671998Y-171258000I249998J0D01*
G01*
X177197002Y-171258000D01*
G75*
G02*
X177447000Y-171507998I0J-249998D01*
G01*
X177447000Y-172408002D01*
G75*
G02*
X177197002Y-172658000I-249998J0D01*
G01*
X176671998Y-172658000D01*
G75*
G02*
X176422000Y-172408002I0J249998D01*
G01*
G37*
%TD*%
%TO.C,R17*%
G36*
G01*
X176676000Y-148786002D02*
X176676000Y-147885998D01*
G75*
G02*
X176925998Y-147636000I249998J0D01*
G01*
X177451002Y-147636000D01*
G75*
G02*
X177701000Y-147885998I0J-249998D01*
G01*
X177701000Y-148786002D01*
G75*
G02*
X177451002Y-149036000I-249998J0D01*
G01*
X176925998Y-149036000D01*
G75*
G02*
X176676000Y-148786002I0J249998D01*
G01*
G37*
G36*
G01*
X174851000Y-148786002D02*
X174851000Y-147885998D01*
G75*
G02*
X175100998Y-147636000I249998J0D01*
G01*
X175626002Y-147636000D01*
G75*
G02*
X175876000Y-147885998I0J-249998D01*
G01*
X175876000Y-148786002D01*
G75*
G02*
X175626002Y-149036000I-249998J0D01*
G01*
X175100998Y-149036000D01*
G75*
G02*
X174851000Y-148786002I0J249998D01*
G01*
G37*
%TD*%
%TO.C,R18*%
G36*
G01*
X181502000Y-151834002D02*
X181502000Y-150933998D01*
G75*
G02*
X181751998Y-150684000I249998J0D01*
G01*
X182277002Y-150684000D01*
G75*
G02*
X182527000Y-150933998I0J-249998D01*
G01*
X182527000Y-151834002D01*
G75*
G02*
X182277002Y-152084000I-249998J0D01*
G01*
X181751998Y-152084000D01*
G75*
G02*
X181502000Y-151834002I0J249998D01*
G01*
G37*
G36*
G01*
X179677000Y-151834002D02*
X179677000Y-150933998D01*
G75*
G02*
X179926998Y-150684000I249998J0D01*
G01*
X180452002Y-150684000D01*
G75*
G02*
X180702000Y-150933998I0J-249998D01*
G01*
X180702000Y-151834002D01*
G75*
G02*
X180452002Y-152084000I-249998J0D01*
G01*
X179926998Y-152084000D01*
G75*
G02*
X179677000Y-151834002I0J249998D01*
G01*
G37*
%TD*%
%TO.C,R19*%
G36*
G01*
X184503000Y-151834002D02*
X184503000Y-150933998D01*
G75*
G02*
X184752998Y-150684000I249998J0D01*
G01*
X185278002Y-150684000D01*
G75*
G02*
X185528000Y-150933998I0J-249998D01*
G01*
X185528000Y-151834002D01*
G75*
G02*
X185278002Y-152084000I-249998J0D01*
G01*
X184752998Y-152084000D01*
G75*
G02*
X184503000Y-151834002I0J249998D01*
G01*
G37*
G36*
G01*
X186328000Y-151834002D02*
X186328000Y-150933998D01*
G75*
G02*
X186577998Y-150684000I249998J0D01*
G01*
X187103002Y-150684000D01*
G75*
G02*
X187353000Y-150933998I0J-249998D01*
G01*
X187353000Y-151834002D01*
G75*
G02*
X187103002Y-152084000I-249998J0D01*
G01*
X186577998Y-152084000D01*
G75*
G02*
X186328000Y-151834002I0J249998D01*
G01*
G37*
%TD*%
%TO.C,R20*%
G36*
G01*
X184423000Y-163010002D02*
X184423000Y-162109998D01*
G75*
G02*
X184672998Y-161860000I249998J0D01*
G01*
X185198002Y-161860000D01*
G75*
G02*
X185448000Y-162109998I0J-249998D01*
G01*
X185448000Y-163010002D01*
G75*
G02*
X185198002Y-163260000I-249998J0D01*
G01*
X184672998Y-163260000D01*
G75*
G02*
X184423000Y-163010002I0J249998D01*
G01*
G37*
G36*
G01*
X182598000Y-163010002D02*
X182598000Y-162109998D01*
G75*
G02*
X182847998Y-161860000I249998J0D01*
G01*
X183373002Y-161860000D01*
G75*
G02*
X183623000Y-162109998I0J-249998D01*
G01*
X183623000Y-163010002D01*
G75*
G02*
X183373002Y-163260000I-249998J0D01*
G01*
X182847998Y-163260000D01*
G75*
G02*
X182598000Y-163010002I0J249998D01*
G01*
G37*
%TD*%
%TO.C,R21*%
G36*
G01*
X190980000Y-156279002D02*
X190980000Y-155378998D01*
G75*
G02*
X191229998Y-155129000I249998J0D01*
G01*
X191755002Y-155129000D01*
G75*
G02*
X192005000Y-155378998I0J-249998D01*
G01*
X192005000Y-156279002D01*
G75*
G02*
X191755002Y-156529000I-249998J0D01*
G01*
X191229998Y-156529000D01*
G75*
G02*
X190980000Y-156279002I0J249998D01*
G01*
G37*
G36*
G01*
X192805000Y-156279002D02*
X192805000Y-155378998D01*
G75*
G02*
X193054998Y-155129000I249998J0D01*
G01*
X193580002Y-155129000D01*
G75*
G02*
X193830000Y-155378998I0J-249998D01*
G01*
X193830000Y-156279002D01*
G75*
G02*
X193580002Y-156529000I-249998J0D01*
G01*
X193054998Y-156529000D01*
G75*
G02*
X192805000Y-156279002I0J249998D01*
G01*
G37*
%TD*%
%TO.C,R22*%
G36*
G01*
X190608000Y-166046998D02*
X190608000Y-166947002D01*
G75*
G02*
X190358002Y-167197000I-249998J0D01*
G01*
X189832998Y-167197000D01*
G75*
G02*
X189583000Y-166947002I0J249998D01*
G01*
X189583000Y-166046998D01*
G75*
G02*
X189832998Y-165797000I249998J0D01*
G01*
X190358002Y-165797000D01*
G75*
G02*
X190608000Y-166046998I0J-249998D01*
G01*
G37*
G36*
G01*
X192433000Y-166046998D02*
X192433000Y-166947002D01*
G75*
G02*
X192183002Y-167197000I-249998J0D01*
G01*
X191657998Y-167197000D01*
G75*
G02*
X191408000Y-166947002I0J249998D01*
G01*
X191408000Y-166046998D01*
G75*
G02*
X191657998Y-165797000I249998J0D01*
G01*
X192183002Y-165797000D01*
G75*
G02*
X192433000Y-166046998I0J-249998D01*
G01*
G37*
%TD*%
%TO.C,R23*%
G36*
G01*
X191408000Y-163645002D02*
X191408000Y-162744998D01*
G75*
G02*
X191657998Y-162495000I249998J0D01*
G01*
X192183002Y-162495000D01*
G75*
G02*
X192433000Y-162744998I0J-249998D01*
G01*
X192433000Y-163645002D01*
G75*
G02*
X192183002Y-163895000I-249998J0D01*
G01*
X191657998Y-163895000D01*
G75*
G02*
X191408000Y-163645002I0J249998D01*
G01*
G37*
G36*
G01*
X189583000Y-163645002D02*
X189583000Y-162744998D01*
G75*
G02*
X189832998Y-162495000I249998J0D01*
G01*
X190358002Y-162495000D01*
G75*
G02*
X190608000Y-162744998I0J-249998D01*
G01*
X190608000Y-163645002D01*
G75*
G02*
X190358002Y-163895000I-249998J0D01*
G01*
X189832998Y-163895000D01*
G75*
G02*
X189583000Y-163645002I0J249998D01*
G01*
G37*
%TD*%
%TO.C,R24*%
G36*
G01*
X182471000Y-168039202D02*
X182471000Y-167139198D01*
G75*
G02*
X182720998Y-166889200I249998J0D01*
G01*
X183246002Y-166889200D01*
G75*
G02*
X183496000Y-167139198I0J-249998D01*
G01*
X183496000Y-168039202D01*
G75*
G02*
X183246002Y-168289200I-249998J0D01*
G01*
X182720998Y-168289200D01*
G75*
G02*
X182471000Y-168039202I0J249998D01*
G01*
G37*
G36*
G01*
X184296000Y-168039202D02*
X184296000Y-167139198D01*
G75*
G02*
X184545998Y-166889200I249998J0D01*
G01*
X185071002Y-166889200D01*
G75*
G02*
X185321000Y-167139198I0J-249998D01*
G01*
X185321000Y-168039202D01*
G75*
G02*
X185071002Y-168289200I-249998J0D01*
G01*
X184545998Y-168289200D01*
G75*
G02*
X184296000Y-168039202I0J249998D01*
G01*
G37*
%TD*%
%TO.C,R25*%
G36*
G01*
X175906000Y-140521003D02*
X175906000Y-138370997D01*
G75*
G02*
X176155997Y-138121000I249997J0D01*
G01*
X176781003Y-138121000D01*
G75*
G02*
X177031000Y-138370997I0J-249997D01*
G01*
X177031000Y-140521003D01*
G75*
G02*
X176781003Y-140771000I-249997J0D01*
G01*
X176155997Y-140771000D01*
G75*
G02*
X175906000Y-140521003I0J249997D01*
G01*
G37*
G36*
G01*
X172981000Y-140521003D02*
X172981000Y-138370997D01*
G75*
G02*
X173230997Y-138121000I249997J0D01*
G01*
X173856003Y-138121000D01*
G75*
G02*
X174106000Y-138370997I0J-249997D01*
G01*
X174106000Y-140521003D01*
G75*
G02*
X173856003Y-140771000I-249997J0D01*
G01*
X173230997Y-140771000D01*
G75*
G02*
X172981000Y-140521003I0J249997D01*
G01*
G37*
%TD*%
%TO.C,R26*%
G36*
G01*
X208083998Y-194663000D02*
X208984002Y-194663000D01*
G75*
G02*
X209234000Y-194912998I0J-249998D01*
G01*
X209234000Y-195438002D01*
G75*
G02*
X208984002Y-195688000I-249998J0D01*
G01*
X208083998Y-195688000D01*
G75*
G02*
X207834000Y-195438002I0J249998D01*
G01*
X207834000Y-194912998D01*
G75*
G02*
X208083998Y-194663000I249998J0D01*
G01*
G37*
G36*
G01*
X208083998Y-196488000D02*
X208984002Y-196488000D01*
G75*
G02*
X209234000Y-196737998I0J-249998D01*
G01*
X209234000Y-197263002D01*
G75*
G02*
X208984002Y-197513000I-249998J0D01*
G01*
X208083998Y-197513000D01*
G75*
G02*
X207834000Y-197263002I0J249998D01*
G01*
X207834000Y-196737998D01*
G75*
G02*
X208083998Y-196488000I249998J0D01*
G01*
G37*
%TD*%
%TO.C,R27*%
G36*
G01*
X224339998Y-194559500D02*
X225240002Y-194559500D01*
G75*
G02*
X225490000Y-194809498I0J-249998D01*
G01*
X225490000Y-195334502D01*
G75*
G02*
X225240002Y-195584500I-249998J0D01*
G01*
X224339998Y-195584500D01*
G75*
G02*
X224090000Y-195334502I0J249998D01*
G01*
X224090000Y-194809498D01*
G75*
G02*
X224339998Y-194559500I249998J0D01*
G01*
G37*
G36*
G01*
X224339998Y-196384500D02*
X225240002Y-196384500D01*
G75*
G02*
X225490000Y-196634498I0J-249998D01*
G01*
X225490000Y-197159502D01*
G75*
G02*
X225240002Y-197409500I-249998J0D01*
G01*
X224339998Y-197409500D01*
G75*
G02*
X224090000Y-197159502I0J249998D01*
G01*
X224090000Y-196634498D01*
G75*
G02*
X224339998Y-196384500I249998J0D01*
G01*
G37*
%TD*%
%TO.C,R28*%
G36*
G01*
X211131998Y-196488000D02*
X212032002Y-196488000D01*
G75*
G02*
X212282000Y-196737998I0J-249998D01*
G01*
X212282000Y-197263002D01*
G75*
G02*
X212032002Y-197513000I-249998J0D01*
G01*
X211131998Y-197513000D01*
G75*
G02*
X210882000Y-197263002I0J249998D01*
G01*
X210882000Y-196737998D01*
G75*
G02*
X211131998Y-196488000I249998J0D01*
G01*
G37*
G36*
G01*
X211131998Y-194663000D02*
X212032002Y-194663000D01*
G75*
G02*
X212282000Y-194912998I0J-249998D01*
G01*
X212282000Y-195438002D01*
G75*
G02*
X212032002Y-195688000I-249998J0D01*
G01*
X211131998Y-195688000D01*
G75*
G02*
X210882000Y-195438002I0J249998D01*
G01*
X210882000Y-194912998D01*
G75*
G02*
X211131998Y-194663000I249998J0D01*
G01*
G37*
%TD*%
%TO.C,R29*%
G36*
G01*
X227387998Y-196337500D02*
X228288002Y-196337500D01*
G75*
G02*
X228538000Y-196587498I0J-249998D01*
G01*
X228538000Y-197112502D01*
G75*
G02*
X228288002Y-197362500I-249998J0D01*
G01*
X227387998Y-197362500D01*
G75*
G02*
X227138000Y-197112502I0J249998D01*
G01*
X227138000Y-196587498D01*
G75*
G02*
X227387998Y-196337500I249998J0D01*
G01*
G37*
G36*
G01*
X227387998Y-194512500D02*
X228288002Y-194512500D01*
G75*
G02*
X228538000Y-194762498I0J-249998D01*
G01*
X228538000Y-195287502D01*
G75*
G02*
X228288002Y-195537500I-249998J0D01*
G01*
X227387998Y-195537500D01*
G75*
G02*
X227138000Y-195287502I0J249998D01*
G01*
X227138000Y-194762498D01*
G75*
G02*
X227387998Y-194512500I249998J0D01*
G01*
G37*
%TD*%
%TO.C,R30*%
G36*
G01*
X217054000Y-179891003D02*
X217054000Y-177740997D01*
G75*
G02*
X217303997Y-177491000I249997J0D01*
G01*
X217929003Y-177491000D01*
G75*
G02*
X218179000Y-177740997I0J-249997D01*
G01*
X218179000Y-179891003D01*
G75*
G02*
X217929003Y-180141000I-249997J0D01*
G01*
X217303997Y-180141000D01*
G75*
G02*
X217054000Y-179891003I0J249997D01*
G01*
G37*
G36*
G01*
X214129000Y-179891003D02*
X214129000Y-177740997D01*
G75*
G02*
X214378997Y-177491000I249997J0D01*
G01*
X215004003Y-177491000D01*
G75*
G02*
X215254000Y-177740997I0J-249997D01*
G01*
X215254000Y-179891003D01*
G75*
G02*
X215004003Y-180141000I-249997J0D01*
G01*
X214378997Y-180141000D01*
G75*
G02*
X214129000Y-179891003I0J249997D01*
G01*
G37*
%TD*%
%TO.C,R31*%
G36*
G01*
X216465998Y-184296000D02*
X217366002Y-184296000D01*
G75*
G02*
X217616000Y-184545998I0J-249998D01*
G01*
X217616000Y-185071002D01*
G75*
G02*
X217366002Y-185321000I-249998J0D01*
G01*
X216465998Y-185321000D01*
G75*
G02*
X216216000Y-185071002I0J249998D01*
G01*
X216216000Y-184545998D01*
G75*
G02*
X216465998Y-184296000I249998J0D01*
G01*
G37*
G36*
G01*
X216465998Y-182471000D02*
X217366002Y-182471000D01*
G75*
G02*
X217616000Y-182720998I0J-249998D01*
G01*
X217616000Y-183246002D01*
G75*
G02*
X217366002Y-183496000I-249998J0D01*
G01*
X216465998Y-183496000D01*
G75*
G02*
X216216000Y-183246002I0J249998D01*
G01*
X216216000Y-182720998D01*
G75*
G02*
X216465998Y-182471000I249998J0D01*
G01*
G37*
%TD*%
%TO.C,R32*%
G36*
G01*
X214129000Y-174303003D02*
X214129000Y-172152997D01*
G75*
G02*
X214378997Y-171903000I249997J0D01*
G01*
X215004003Y-171903000D01*
G75*
G02*
X215254000Y-172152997I0J-249997D01*
G01*
X215254000Y-174303003D01*
G75*
G02*
X215004003Y-174553000I-249997J0D01*
G01*
X214378997Y-174553000D01*
G75*
G02*
X214129000Y-174303003I0J249997D01*
G01*
G37*
G36*
G01*
X217054000Y-174303003D02*
X217054000Y-172152997D01*
G75*
G02*
X217303997Y-171903000I249997J0D01*
G01*
X217929003Y-171903000D01*
G75*
G02*
X218179000Y-172152997I0J-249997D01*
G01*
X218179000Y-174303003D01*
G75*
G02*
X217929003Y-174553000I-249997J0D01*
G01*
X217303997Y-174553000D01*
G75*
G02*
X217054000Y-174303003I0J249997D01*
G01*
G37*
%TD*%
%TO.C,R44*%
G36*
G01*
X237589000Y-183076002D02*
X237589000Y-182175998D01*
G75*
G02*
X237838998Y-181926000I249998J0D01*
G01*
X238364002Y-181926000D01*
G75*
G02*
X238614000Y-182175998I0J-249998D01*
G01*
X238614000Y-183076002D01*
G75*
G02*
X238364002Y-183326000I-249998J0D01*
G01*
X237838998Y-183326000D01*
G75*
G02*
X237589000Y-183076002I0J249998D01*
G01*
G37*
G36*
G01*
X239414000Y-183076002D02*
X239414000Y-182175998D01*
G75*
G02*
X239663998Y-181926000I249998J0D01*
G01*
X240189002Y-181926000D01*
G75*
G02*
X240439000Y-182175998I0J-249998D01*
G01*
X240439000Y-183076002D01*
G75*
G02*
X240189002Y-183326000I-249998J0D01*
G01*
X239663998Y-183326000D01*
G75*
G02*
X239414000Y-183076002I0J249998D01*
G01*
G37*
%TD*%
%TO.C,R45*%
G36*
G01*
X237589000Y-179520002D02*
X237589000Y-178619998D01*
G75*
G02*
X237838998Y-178370000I249998J0D01*
G01*
X238364002Y-178370000D01*
G75*
G02*
X238614000Y-178619998I0J-249998D01*
G01*
X238614000Y-179520002D01*
G75*
G02*
X238364002Y-179770000I-249998J0D01*
G01*
X237838998Y-179770000D01*
G75*
G02*
X237589000Y-179520002I0J249998D01*
G01*
G37*
G36*
G01*
X239414000Y-179520002D02*
X239414000Y-178619998D01*
G75*
G02*
X239663998Y-178370000I249998J0D01*
G01*
X240189002Y-178370000D01*
G75*
G02*
X240439000Y-178619998I0J-249998D01*
G01*
X240439000Y-179520002D01*
G75*
G02*
X240189002Y-179770000I-249998J0D01*
G01*
X239663998Y-179770000D01*
G75*
G02*
X239414000Y-179520002I0J249998D01*
G01*
G37*
%TD*%
%TO.C,R46*%
G36*
G01*
X248812000Y-182822002D02*
X248812000Y-181921998D01*
G75*
G02*
X249061998Y-181672000I249998J0D01*
G01*
X249587002Y-181672000D01*
G75*
G02*
X249837000Y-181921998I0J-249998D01*
G01*
X249837000Y-182822002D01*
G75*
G02*
X249587002Y-183072000I-249998J0D01*
G01*
X249061998Y-183072000D01*
G75*
G02*
X248812000Y-182822002I0J249998D01*
G01*
G37*
G36*
G01*
X246987000Y-182822002D02*
X246987000Y-181921998D01*
G75*
G02*
X247236998Y-181672000I249998J0D01*
G01*
X247762002Y-181672000D01*
G75*
G02*
X248012000Y-181921998I0J-249998D01*
G01*
X248012000Y-182822002D01*
G75*
G02*
X247762002Y-183072000I-249998J0D01*
G01*
X247236998Y-183072000D01*
G75*
G02*
X246987000Y-182822002I0J249998D01*
G01*
G37*
%TD*%
%TO.C,R47*%
G36*
G01*
X249733500Y-178365998D02*
X249733500Y-179266002D01*
G75*
G02*
X249483502Y-179516000I-249998J0D01*
G01*
X248958498Y-179516000D01*
G75*
G02*
X248708500Y-179266002I0J249998D01*
G01*
X248708500Y-178365998D01*
G75*
G02*
X248958498Y-178116000I249998J0D01*
G01*
X249483502Y-178116000D01*
G75*
G02*
X249733500Y-178365998I0J-249998D01*
G01*
G37*
G36*
G01*
X247908500Y-178365998D02*
X247908500Y-179266002D01*
G75*
G02*
X247658502Y-179516000I-249998J0D01*
G01*
X247133498Y-179516000D01*
G75*
G02*
X246883500Y-179266002I0J249998D01*
G01*
X246883500Y-178365998D01*
G75*
G02*
X247133498Y-178116000I249998J0D01*
G01*
X247658502Y-178116000D01*
G75*
G02*
X247908500Y-178365998I0J-249998D01*
G01*
G37*
%TD*%
%TO.C,R48*%
G36*
G01*
X186798000Y-127946998D02*
X186798000Y-128847002D01*
G75*
G02*
X186548002Y-129097000I-249998J0D01*
G01*
X186022998Y-129097000D01*
G75*
G02*
X185773000Y-128847002I0J249998D01*
G01*
X185773000Y-127946998D01*
G75*
G02*
X186022998Y-127697000I249998J0D01*
G01*
X186548002Y-127697000D01*
G75*
G02*
X186798000Y-127946998I0J-249998D01*
G01*
G37*
G36*
G01*
X188623000Y-127946998D02*
X188623000Y-128847002D01*
G75*
G02*
X188373002Y-129097000I-249998J0D01*
G01*
X187847998Y-129097000D01*
G75*
G02*
X187598000Y-128847002I0J249998D01*
G01*
X187598000Y-127946998D01*
G75*
G02*
X187847998Y-127697000I249998J0D01*
G01*
X188373002Y-127697000D01*
G75*
G02*
X188623000Y-127946998I0J-249998D01*
G01*
G37*
%TD*%
%TO.C,R49*%
G36*
G01*
X198773000Y-129228000D02*
X198773000Y-129598000D01*
G75*
G02*
X198638000Y-129733000I-135000J0D01*
G01*
X198368000Y-129733000D01*
G75*
G02*
X198233000Y-129598000I0J135000D01*
G01*
X198233000Y-129228000D01*
G75*
G02*
X198368000Y-129093000I135000J0D01*
G01*
X198638000Y-129093000D01*
G75*
G02*
X198773000Y-129228000I0J-135000D01*
G01*
G37*
G36*
G01*
X197753000Y-129228000D02*
X197753000Y-129598000D01*
G75*
G02*
X197618000Y-129733000I-135000J0D01*
G01*
X197348000Y-129733000D01*
G75*
G02*
X197213000Y-129598000I0J135000D01*
G01*
X197213000Y-129228000D01*
G75*
G02*
X197348000Y-129093000I135000J0D01*
G01*
X197618000Y-129093000D01*
G75*
G02*
X197753000Y-129228000I0J-135000D01*
G01*
G37*
%TD*%
%TO.C,R50*%
G36*
G01*
X227185000Y-143568000D02*
X227185000Y-143198000D01*
G75*
G02*
X227320000Y-143063000I135000J0D01*
G01*
X227590000Y-143063000D01*
G75*
G02*
X227725000Y-143198000I0J-135000D01*
G01*
X227725000Y-143568000D01*
G75*
G02*
X227590000Y-143703000I-135000J0D01*
G01*
X227320000Y-143703000D01*
G75*
G02*
X227185000Y-143568000I0J135000D01*
G01*
G37*
G36*
G01*
X228205000Y-143568000D02*
X228205000Y-143198000D01*
G75*
G02*
X228340000Y-143063000I135000J0D01*
G01*
X228610000Y-143063000D01*
G75*
G02*
X228745000Y-143198000I0J-135000D01*
G01*
X228745000Y-143568000D01*
G75*
G02*
X228610000Y-143703000I-135000J0D01*
G01*
X228340000Y-143703000D01*
G75*
G02*
X228205000Y-143568000I0J135000D01*
G01*
G37*
%TD*%
%TO.C,R51*%
G36*
G01*
X227185000Y-128328000D02*
X227185000Y-127958000D01*
G75*
G02*
X227320000Y-127823000I135000J0D01*
G01*
X227590000Y-127823000D01*
G75*
G02*
X227725000Y-127958000I0J-135000D01*
G01*
X227725000Y-128328000D01*
G75*
G02*
X227590000Y-128463000I-135000J0D01*
G01*
X227320000Y-128463000D01*
G75*
G02*
X227185000Y-128328000I0J135000D01*
G01*
G37*
G36*
G01*
X228205000Y-128328000D02*
X228205000Y-127958000D01*
G75*
G02*
X228340000Y-127823000I135000J0D01*
G01*
X228610000Y-127823000D01*
G75*
G02*
X228745000Y-127958000I0J-135000D01*
G01*
X228745000Y-128328000D01*
G75*
G02*
X228610000Y-128463000I-135000J0D01*
G01*
X228340000Y-128463000D01*
G75*
G02*
X228205000Y-128328000I0J135000D01*
G01*
G37*
%TD*%
%TO.C,R52*%
G36*
G01*
X228205000Y-129598000D02*
X228205000Y-129228000D01*
G75*
G02*
X228340000Y-129093000I135000J0D01*
G01*
X228610000Y-129093000D01*
G75*
G02*
X228745000Y-129228000I0J-135000D01*
G01*
X228745000Y-129598000D01*
G75*
G02*
X228610000Y-129733000I-135000J0D01*
G01*
X228340000Y-129733000D01*
G75*
G02*
X228205000Y-129598000I0J135000D01*
G01*
G37*
G36*
G01*
X227185000Y-129598000D02*
X227185000Y-129228000D01*
G75*
G02*
X227320000Y-129093000I135000J0D01*
G01*
X227590000Y-129093000D01*
G75*
G02*
X227725000Y-129228000I0J-135000D01*
G01*
X227725000Y-129598000D01*
G75*
G02*
X227590000Y-129733000I-135000J0D01*
G01*
X227320000Y-129733000D01*
G75*
G02*
X227185000Y-129598000I0J135000D01*
G01*
G37*
%TD*%
%TO.C,R53*%
G36*
G01*
X205682000Y-150862000D02*
X206052000Y-150862000D01*
G75*
G02*
X206187000Y-150997000I0J-135000D01*
G01*
X206187000Y-151267000D01*
G75*
G02*
X206052000Y-151402000I-135000J0D01*
G01*
X205682000Y-151402000D01*
G75*
G02*
X205547000Y-151267000I0J135000D01*
G01*
X205547000Y-150997000D01*
G75*
G02*
X205682000Y-150862000I135000J0D01*
G01*
G37*
G36*
G01*
X205682000Y-149842000D02*
X206052000Y-149842000D01*
G75*
G02*
X206187000Y-149977000I0J-135000D01*
G01*
X206187000Y-150247000D01*
G75*
G02*
X206052000Y-150382000I-135000J0D01*
G01*
X205682000Y-150382000D01*
G75*
G02*
X205547000Y-150247000I0J135000D01*
G01*
X205547000Y-149977000D01*
G75*
G02*
X205682000Y-149842000I135000J0D01*
G01*
G37*
%TD*%
%TO.C,R54*%
G36*
G01*
X197753000Y-130498000D02*
X197753000Y-130868000D01*
G75*
G02*
X197618000Y-131003000I-135000J0D01*
G01*
X197348000Y-131003000D01*
G75*
G02*
X197213000Y-130868000I0J135000D01*
G01*
X197213000Y-130498000D01*
G75*
G02*
X197348000Y-130363000I135000J0D01*
G01*
X197618000Y-130363000D01*
G75*
G02*
X197753000Y-130498000I0J-135000D01*
G01*
G37*
G36*
G01*
X198773000Y-130498000D02*
X198773000Y-130868000D01*
G75*
G02*
X198638000Y-131003000I-135000J0D01*
G01*
X198368000Y-131003000D01*
G75*
G02*
X198233000Y-130868000I0J135000D01*
G01*
X198233000Y-130498000D01*
G75*
G02*
X198368000Y-130363000I135000J0D01*
G01*
X198638000Y-130363000D01*
G75*
G02*
X198773000Y-130498000I0J-135000D01*
G01*
G37*
%TD*%
%TO.C,R55*%
G36*
G01*
X198773000Y-131768000D02*
X198773000Y-132138000D01*
G75*
G02*
X198638000Y-132273000I-135000J0D01*
G01*
X198368000Y-132273000D01*
G75*
G02*
X198233000Y-132138000I0J135000D01*
G01*
X198233000Y-131768000D01*
G75*
G02*
X198368000Y-131633000I135000J0D01*
G01*
X198638000Y-131633000D01*
G75*
G02*
X198773000Y-131768000I0J-135000D01*
G01*
G37*
G36*
G01*
X197753000Y-131768000D02*
X197753000Y-132138000D01*
G75*
G02*
X197618000Y-132273000I-135000J0D01*
G01*
X197348000Y-132273000D01*
G75*
G02*
X197213000Y-132138000I0J135000D01*
G01*
X197213000Y-131768000D01*
G75*
G02*
X197348000Y-131633000I135000J0D01*
G01*
X197618000Y-131633000D01*
G75*
G02*
X197753000Y-131768000I0J-135000D01*
G01*
G37*
%TD*%
%TO.C,R56*%
G36*
G01*
X197753000Y-133038000D02*
X197753000Y-133408000D01*
G75*
G02*
X197618000Y-133543000I-135000J0D01*
G01*
X197348000Y-133543000D01*
G75*
G02*
X197213000Y-133408000I0J135000D01*
G01*
X197213000Y-133038000D01*
G75*
G02*
X197348000Y-132903000I135000J0D01*
G01*
X197618000Y-132903000D01*
G75*
G02*
X197753000Y-133038000I0J-135000D01*
G01*
G37*
G36*
G01*
X198773000Y-133038000D02*
X198773000Y-133408000D01*
G75*
G02*
X198638000Y-133543000I-135000J0D01*
G01*
X198368000Y-133543000D01*
G75*
G02*
X198233000Y-133408000I0J135000D01*
G01*
X198233000Y-133038000D01*
G75*
G02*
X198368000Y-132903000I135000J0D01*
G01*
X198638000Y-132903000D01*
G75*
G02*
X198773000Y-133038000I0J-135000D01*
G01*
G37*
%TD*%
%TO.C,R57*%
G36*
G01*
X198773000Y-134308000D02*
X198773000Y-134678000D01*
G75*
G02*
X198638000Y-134813000I-135000J0D01*
G01*
X198368000Y-134813000D01*
G75*
G02*
X198233000Y-134678000I0J135000D01*
G01*
X198233000Y-134308000D01*
G75*
G02*
X198368000Y-134173000I135000J0D01*
G01*
X198638000Y-134173000D01*
G75*
G02*
X198773000Y-134308000I0J-135000D01*
G01*
G37*
G36*
G01*
X197753000Y-134308000D02*
X197753000Y-134678000D01*
G75*
G02*
X197618000Y-134813000I-135000J0D01*
G01*
X197348000Y-134813000D01*
G75*
G02*
X197213000Y-134678000I0J135000D01*
G01*
X197213000Y-134308000D01*
G75*
G02*
X197348000Y-134173000I135000J0D01*
G01*
X197618000Y-134173000D01*
G75*
G02*
X197753000Y-134308000I0J-135000D01*
G01*
G37*
%TD*%
%TO.C,R58*%
G36*
G01*
X198773000Y-140658000D02*
X198773000Y-141028000D01*
G75*
G02*
X198638000Y-141163000I-135000J0D01*
G01*
X198368000Y-141163000D01*
G75*
G02*
X198233000Y-141028000I0J135000D01*
G01*
X198233000Y-140658000D01*
G75*
G02*
X198368000Y-140523000I135000J0D01*
G01*
X198638000Y-140523000D01*
G75*
G02*
X198773000Y-140658000I0J-135000D01*
G01*
G37*
G36*
G01*
X197753000Y-140658000D02*
X197753000Y-141028000D01*
G75*
G02*
X197618000Y-141163000I-135000J0D01*
G01*
X197348000Y-141163000D01*
G75*
G02*
X197213000Y-141028000I0J135000D01*
G01*
X197213000Y-140658000D01*
G75*
G02*
X197348000Y-140523000I135000J0D01*
G01*
X197618000Y-140523000D01*
G75*
G02*
X197753000Y-140658000I0J-135000D01*
G01*
G37*
%TD*%
%TO.C,R59*%
G36*
G01*
X208222000Y-149842000D02*
X208592000Y-149842000D01*
G75*
G02*
X208727000Y-149977000I0J-135000D01*
G01*
X208727000Y-150247000D01*
G75*
G02*
X208592000Y-150382000I-135000J0D01*
G01*
X208222000Y-150382000D01*
G75*
G02*
X208087000Y-150247000I0J135000D01*
G01*
X208087000Y-149977000D01*
G75*
G02*
X208222000Y-149842000I135000J0D01*
G01*
G37*
G36*
G01*
X208222000Y-150862000D02*
X208592000Y-150862000D01*
G75*
G02*
X208727000Y-150997000I0J-135000D01*
G01*
X208727000Y-151267000D01*
G75*
G02*
X208592000Y-151402000I-135000J0D01*
G01*
X208222000Y-151402000D01*
G75*
G02*
X208087000Y-151267000I0J135000D01*
G01*
X208087000Y-150997000D01*
G75*
G02*
X208222000Y-150862000I135000J0D01*
G01*
G37*
%TD*%
%TO.C,R60*%
G36*
G01*
X209492000Y-150862000D02*
X209862000Y-150862000D01*
G75*
G02*
X209997000Y-150997000I0J-135000D01*
G01*
X209997000Y-151267000D01*
G75*
G02*
X209862000Y-151402000I-135000J0D01*
G01*
X209492000Y-151402000D01*
G75*
G02*
X209357000Y-151267000I0J135000D01*
G01*
X209357000Y-150997000D01*
G75*
G02*
X209492000Y-150862000I135000J0D01*
G01*
G37*
G36*
G01*
X209492000Y-149842000D02*
X209862000Y-149842000D01*
G75*
G02*
X209997000Y-149977000I0J-135000D01*
G01*
X209997000Y-150247000D01*
G75*
G02*
X209862000Y-150382000I-135000J0D01*
G01*
X209492000Y-150382000D01*
G75*
G02*
X209357000Y-150247000I0J135000D01*
G01*
X209357000Y-149977000D01*
G75*
G02*
X209492000Y-149842000I135000J0D01*
G01*
G37*
%TD*%
%TO.C,R61*%
G36*
G01*
X210762000Y-150862000D02*
X211132000Y-150862000D01*
G75*
G02*
X211267000Y-150997000I0J-135000D01*
G01*
X211267000Y-151267000D01*
G75*
G02*
X211132000Y-151402000I-135000J0D01*
G01*
X210762000Y-151402000D01*
G75*
G02*
X210627000Y-151267000I0J135000D01*
G01*
X210627000Y-150997000D01*
G75*
G02*
X210762000Y-150862000I135000J0D01*
G01*
G37*
G36*
G01*
X210762000Y-149842000D02*
X211132000Y-149842000D01*
G75*
G02*
X211267000Y-149977000I0J-135000D01*
G01*
X211267000Y-150247000D01*
G75*
G02*
X211132000Y-150382000I-135000J0D01*
G01*
X210762000Y-150382000D01*
G75*
G02*
X210627000Y-150247000I0J135000D01*
G01*
X210627000Y-149977000D01*
G75*
G02*
X210762000Y-149842000I135000J0D01*
G01*
G37*
%TD*%
%TO.C,R62*%
G36*
G01*
X212032000Y-150862000D02*
X212402000Y-150862000D01*
G75*
G02*
X212537000Y-150997000I0J-135000D01*
G01*
X212537000Y-151267000D01*
G75*
G02*
X212402000Y-151402000I-135000J0D01*
G01*
X212032000Y-151402000D01*
G75*
G02*
X211897000Y-151267000I0J135000D01*
G01*
X211897000Y-150997000D01*
G75*
G02*
X212032000Y-150862000I135000J0D01*
G01*
G37*
G36*
G01*
X212032000Y-149842000D02*
X212402000Y-149842000D01*
G75*
G02*
X212537000Y-149977000I0J-135000D01*
G01*
X212537000Y-150247000D01*
G75*
G02*
X212402000Y-150382000I-135000J0D01*
G01*
X212032000Y-150382000D01*
G75*
G02*
X211897000Y-150247000I0J135000D01*
G01*
X211897000Y-149977000D01*
G75*
G02*
X212032000Y-149842000I135000J0D01*
G01*
G37*
%TD*%
%TO.C,R63*%
G36*
G01*
X213302000Y-149842000D02*
X213672000Y-149842000D01*
G75*
G02*
X213807000Y-149977000I0J-135000D01*
G01*
X213807000Y-150247000D01*
G75*
G02*
X213672000Y-150382000I-135000J0D01*
G01*
X213302000Y-150382000D01*
G75*
G02*
X213167000Y-150247000I0J135000D01*
G01*
X213167000Y-149977000D01*
G75*
G02*
X213302000Y-149842000I135000J0D01*
G01*
G37*
G36*
G01*
X213302000Y-150862000D02*
X213672000Y-150862000D01*
G75*
G02*
X213807000Y-150997000I0J-135000D01*
G01*
X213807000Y-151267000D01*
G75*
G02*
X213672000Y-151402000I-135000J0D01*
G01*
X213302000Y-151402000D01*
G75*
G02*
X213167000Y-151267000I0J135000D01*
G01*
X213167000Y-150997000D01*
G75*
G02*
X213302000Y-150862000I135000J0D01*
G01*
G37*
%TD*%
%TO.C,R64*%
G36*
G01*
X214572000Y-150862000D02*
X214942000Y-150862000D01*
G75*
G02*
X215077000Y-150997000I0J-135000D01*
G01*
X215077000Y-151267000D01*
G75*
G02*
X214942000Y-151402000I-135000J0D01*
G01*
X214572000Y-151402000D01*
G75*
G02*
X214437000Y-151267000I0J135000D01*
G01*
X214437000Y-150997000D01*
G75*
G02*
X214572000Y-150862000I135000J0D01*
G01*
G37*
G36*
G01*
X214572000Y-149842000D02*
X214942000Y-149842000D01*
G75*
G02*
X215077000Y-149977000I0J-135000D01*
G01*
X215077000Y-150247000D01*
G75*
G02*
X214942000Y-150382000I-135000J0D01*
G01*
X214572000Y-150382000D01*
G75*
G02*
X214437000Y-150247000I0J135000D01*
G01*
X214437000Y-149977000D01*
G75*
G02*
X214572000Y-149842000I135000J0D01*
G01*
G37*
%TD*%
%TO.C,R65*%
G36*
G01*
X197753000Y-135578000D02*
X197753000Y-135948000D01*
G75*
G02*
X197618000Y-136083000I-135000J0D01*
G01*
X197348000Y-136083000D01*
G75*
G02*
X197213000Y-135948000I0J135000D01*
G01*
X197213000Y-135578000D01*
G75*
G02*
X197348000Y-135443000I135000J0D01*
G01*
X197618000Y-135443000D01*
G75*
G02*
X197753000Y-135578000I0J-135000D01*
G01*
G37*
G36*
G01*
X198773000Y-135578000D02*
X198773000Y-135948000D01*
G75*
G02*
X198638000Y-136083000I-135000J0D01*
G01*
X198368000Y-136083000D01*
G75*
G02*
X198233000Y-135948000I0J135000D01*
G01*
X198233000Y-135578000D01*
G75*
G02*
X198368000Y-135443000I135000J0D01*
G01*
X198638000Y-135443000D01*
G75*
G02*
X198773000Y-135578000I0J-135000D01*
G01*
G37*
%TD*%
%TO.C,R66*%
G36*
G01*
X197753000Y-136848000D02*
X197753000Y-137218000D01*
G75*
G02*
X197618000Y-137353000I-135000J0D01*
G01*
X197348000Y-137353000D01*
G75*
G02*
X197213000Y-137218000I0J135000D01*
G01*
X197213000Y-136848000D01*
G75*
G02*
X197348000Y-136713000I135000J0D01*
G01*
X197618000Y-136713000D01*
G75*
G02*
X197753000Y-136848000I0J-135000D01*
G01*
G37*
G36*
G01*
X198773000Y-136848000D02*
X198773000Y-137218000D01*
G75*
G02*
X198638000Y-137353000I-135000J0D01*
G01*
X198368000Y-137353000D01*
G75*
G02*
X198233000Y-137218000I0J135000D01*
G01*
X198233000Y-136848000D01*
G75*
G02*
X198368000Y-136713000I135000J0D01*
G01*
X198638000Y-136713000D01*
G75*
G02*
X198773000Y-136848000I0J-135000D01*
G01*
G37*
%TD*%
%TO.C,R67*%
G36*
G01*
X198773000Y-138118000D02*
X198773000Y-138488000D01*
G75*
G02*
X198638000Y-138623000I-135000J0D01*
G01*
X198368000Y-138623000D01*
G75*
G02*
X198233000Y-138488000I0J135000D01*
G01*
X198233000Y-138118000D01*
G75*
G02*
X198368000Y-137983000I135000J0D01*
G01*
X198638000Y-137983000D01*
G75*
G02*
X198773000Y-138118000I0J-135000D01*
G01*
G37*
G36*
G01*
X197753000Y-138118000D02*
X197753000Y-138488000D01*
G75*
G02*
X197618000Y-138623000I-135000J0D01*
G01*
X197348000Y-138623000D01*
G75*
G02*
X197213000Y-138488000I0J135000D01*
G01*
X197213000Y-138118000D01*
G75*
G02*
X197348000Y-137983000I135000J0D01*
G01*
X197618000Y-137983000D01*
G75*
G02*
X197753000Y-138118000I0J-135000D01*
G01*
G37*
%TD*%
%TO.C,R68*%
G36*
G01*
X198773000Y-139388000D02*
X198773000Y-139758000D01*
G75*
G02*
X198638000Y-139893000I-135000J0D01*
G01*
X198368000Y-139893000D01*
G75*
G02*
X198233000Y-139758000I0J135000D01*
G01*
X198233000Y-139388000D01*
G75*
G02*
X198368000Y-139253000I135000J0D01*
G01*
X198638000Y-139253000D01*
G75*
G02*
X198773000Y-139388000I0J-135000D01*
G01*
G37*
G36*
G01*
X197753000Y-139388000D02*
X197753000Y-139758000D01*
G75*
G02*
X197618000Y-139893000I-135000J0D01*
G01*
X197348000Y-139893000D01*
G75*
G02*
X197213000Y-139758000I0J135000D01*
G01*
X197213000Y-139388000D01*
G75*
G02*
X197348000Y-139253000I135000J0D01*
G01*
X197618000Y-139253000D01*
G75*
G02*
X197753000Y-139388000I0J-135000D01*
G01*
G37*
%TD*%
%TO.C,R69*%
G36*
G01*
X197213000Y-143568000D02*
X197213000Y-143198000D01*
G75*
G02*
X197348000Y-143063000I135000J0D01*
G01*
X197618000Y-143063000D01*
G75*
G02*
X197753000Y-143198000I0J-135000D01*
G01*
X197753000Y-143568000D01*
G75*
G02*
X197618000Y-143703000I-135000J0D01*
G01*
X197348000Y-143703000D01*
G75*
G02*
X197213000Y-143568000I0J135000D01*
G01*
G37*
G36*
G01*
X198233000Y-143568000D02*
X198233000Y-143198000D01*
G75*
G02*
X198368000Y-143063000I135000J0D01*
G01*
X198638000Y-143063000D01*
G75*
G02*
X198773000Y-143198000I0J-135000D01*
G01*
X198773000Y-143568000D01*
G75*
G02*
X198638000Y-143703000I-135000J0D01*
G01*
X198368000Y-143703000D01*
G75*
G02*
X198233000Y-143568000I0J135000D01*
G01*
G37*
%TD*%
%TO.C,R70*%
G36*
G01*
X197213000Y-142298000D02*
X197213000Y-141928000D01*
G75*
G02*
X197348000Y-141793000I135000J0D01*
G01*
X197618000Y-141793000D01*
G75*
G02*
X197753000Y-141928000I0J-135000D01*
G01*
X197753000Y-142298000D01*
G75*
G02*
X197618000Y-142433000I-135000J0D01*
G01*
X197348000Y-142433000D01*
G75*
G02*
X197213000Y-142298000I0J135000D01*
G01*
G37*
G36*
G01*
X198233000Y-142298000D02*
X198233000Y-141928000D01*
G75*
G02*
X198368000Y-141793000I135000J0D01*
G01*
X198638000Y-141793000D01*
G75*
G02*
X198773000Y-141928000I0J-135000D01*
G01*
X198773000Y-142298000D01*
G75*
G02*
X198638000Y-142433000I-135000J0D01*
G01*
X198368000Y-142433000D01*
G75*
G02*
X198233000Y-142298000I0J135000D01*
G01*
G37*
%TD*%
%TO.C,R71*%
G36*
G01*
X228745000Y-130498000D02*
X228745000Y-130868000D01*
G75*
G02*
X228610000Y-131003000I-135000J0D01*
G01*
X228340000Y-131003000D01*
G75*
G02*
X228205000Y-130868000I0J135000D01*
G01*
X228205000Y-130498000D01*
G75*
G02*
X228340000Y-130363000I135000J0D01*
G01*
X228610000Y-130363000D01*
G75*
G02*
X228745000Y-130498000I0J-135000D01*
G01*
G37*
G36*
G01*
X227725000Y-130498000D02*
X227725000Y-130868000D01*
G75*
G02*
X227590000Y-131003000I-135000J0D01*
G01*
X227320000Y-131003000D01*
G75*
G02*
X227185000Y-130868000I0J135000D01*
G01*
X227185000Y-130498000D01*
G75*
G02*
X227320000Y-130363000I135000J0D01*
G01*
X227590000Y-130363000D01*
G75*
G02*
X227725000Y-130498000I0J-135000D01*
G01*
G37*
%TD*%
%TO.C,R72*%
G36*
G01*
X227725000Y-131768000D02*
X227725000Y-132138000D01*
G75*
G02*
X227590000Y-132273000I-135000J0D01*
G01*
X227320000Y-132273000D01*
G75*
G02*
X227185000Y-132138000I0J135000D01*
G01*
X227185000Y-131768000D01*
G75*
G02*
X227320000Y-131633000I135000J0D01*
G01*
X227590000Y-131633000D01*
G75*
G02*
X227725000Y-131768000I0J-135000D01*
G01*
G37*
G36*
G01*
X228745000Y-131768000D02*
X228745000Y-132138000D01*
G75*
G02*
X228610000Y-132273000I-135000J0D01*
G01*
X228340000Y-132273000D01*
G75*
G02*
X228205000Y-132138000I0J135000D01*
G01*
X228205000Y-131768000D01*
G75*
G02*
X228340000Y-131633000I135000J0D01*
G01*
X228610000Y-131633000D01*
G75*
G02*
X228745000Y-131768000I0J-135000D01*
G01*
G37*
%TD*%
%TO.C,R73*%
G36*
G01*
X216212000Y-150382000D02*
X215842000Y-150382000D01*
G75*
G02*
X215707000Y-150247000I0J135000D01*
G01*
X215707000Y-149977000D01*
G75*
G02*
X215842000Y-149842000I135000J0D01*
G01*
X216212000Y-149842000D01*
G75*
G02*
X216347000Y-149977000I0J-135000D01*
G01*
X216347000Y-150247000D01*
G75*
G02*
X216212000Y-150382000I-135000J0D01*
G01*
G37*
G36*
G01*
X216212000Y-151402000D02*
X215842000Y-151402000D01*
G75*
G02*
X215707000Y-151267000I0J135000D01*
G01*
X215707000Y-150997000D01*
G75*
G02*
X215842000Y-150862000I135000J0D01*
G01*
X216212000Y-150862000D01*
G75*
G02*
X216347000Y-150997000I0J-135000D01*
G01*
X216347000Y-151267000D01*
G75*
G02*
X216212000Y-151402000I-135000J0D01*
G01*
G37*
%TD*%
%TO.C,R74*%
G36*
G01*
X220022000Y-151402000D02*
X219652000Y-151402000D01*
G75*
G02*
X219517000Y-151267000I0J135000D01*
G01*
X219517000Y-150997000D01*
G75*
G02*
X219652000Y-150862000I135000J0D01*
G01*
X220022000Y-150862000D01*
G75*
G02*
X220157000Y-150997000I0J-135000D01*
G01*
X220157000Y-151267000D01*
G75*
G02*
X220022000Y-151402000I-135000J0D01*
G01*
G37*
G36*
G01*
X220022000Y-150382000D02*
X219652000Y-150382000D01*
G75*
G02*
X219517000Y-150247000I0J135000D01*
G01*
X219517000Y-149977000D01*
G75*
G02*
X219652000Y-149842000I135000J0D01*
G01*
X220022000Y-149842000D01*
G75*
G02*
X220157000Y-149977000I0J-135000D01*
G01*
X220157000Y-150247000D01*
G75*
G02*
X220022000Y-150382000I-135000J0D01*
G01*
G37*
%TD*%
%TO.C,R75*%
G36*
G01*
X207322000Y-150382000D02*
X206952000Y-150382000D01*
G75*
G02*
X206817000Y-150247000I0J135000D01*
G01*
X206817000Y-149977000D01*
G75*
G02*
X206952000Y-149842000I135000J0D01*
G01*
X207322000Y-149842000D01*
G75*
G02*
X207457000Y-149977000I0J-135000D01*
G01*
X207457000Y-150247000D01*
G75*
G02*
X207322000Y-150382000I-135000J0D01*
G01*
G37*
G36*
G01*
X207322000Y-151402000D02*
X206952000Y-151402000D01*
G75*
G02*
X206817000Y-151267000I0J135000D01*
G01*
X206817000Y-150997000D01*
G75*
G02*
X206952000Y-150862000I135000J0D01*
G01*
X207322000Y-150862000D01*
G75*
G02*
X207457000Y-150997000I0J-135000D01*
G01*
X207457000Y-151267000D01*
G75*
G02*
X207322000Y-151402000I-135000J0D01*
G01*
G37*
%TD*%
%TO.C,R76*%
G36*
G01*
X218752000Y-151402000D02*
X218382000Y-151402000D01*
G75*
G02*
X218247000Y-151267000I0J135000D01*
G01*
X218247000Y-150997000D01*
G75*
G02*
X218382000Y-150862000I135000J0D01*
G01*
X218752000Y-150862000D01*
G75*
G02*
X218887000Y-150997000I0J-135000D01*
G01*
X218887000Y-151267000D01*
G75*
G02*
X218752000Y-151402000I-135000J0D01*
G01*
G37*
G36*
G01*
X218752000Y-150382000D02*
X218382000Y-150382000D01*
G75*
G02*
X218247000Y-150247000I0J135000D01*
G01*
X218247000Y-149977000D01*
G75*
G02*
X218382000Y-149842000I135000J0D01*
G01*
X218752000Y-149842000D01*
G75*
G02*
X218887000Y-149977000I0J-135000D01*
G01*
X218887000Y-150247000D01*
G75*
G02*
X218752000Y-150382000I-135000J0D01*
G01*
G37*
%TD*%
%TO.C,R77*%
G36*
G01*
X217482000Y-150382000D02*
X217112000Y-150382000D01*
G75*
G02*
X216977000Y-150247000I0J135000D01*
G01*
X216977000Y-149977000D01*
G75*
G02*
X217112000Y-149842000I135000J0D01*
G01*
X217482000Y-149842000D01*
G75*
G02*
X217617000Y-149977000I0J-135000D01*
G01*
X217617000Y-150247000D01*
G75*
G02*
X217482000Y-150382000I-135000J0D01*
G01*
G37*
G36*
G01*
X217482000Y-151402000D02*
X217112000Y-151402000D01*
G75*
G02*
X216977000Y-151267000I0J135000D01*
G01*
X216977000Y-150997000D01*
G75*
G02*
X217112000Y-150862000I135000J0D01*
G01*
X217482000Y-150862000D01*
G75*
G02*
X217617000Y-150997000I0J-135000D01*
G01*
X217617000Y-151267000D01*
G75*
G02*
X217482000Y-151402000I-135000J0D01*
G01*
G37*
%TD*%
%TO.C,R78*%
G36*
G01*
X227725000Y-141928000D02*
X227725000Y-142298000D01*
G75*
G02*
X227590000Y-142433000I-135000J0D01*
G01*
X227320000Y-142433000D01*
G75*
G02*
X227185000Y-142298000I0J135000D01*
G01*
X227185000Y-141928000D01*
G75*
G02*
X227320000Y-141793000I135000J0D01*
G01*
X227590000Y-141793000D01*
G75*
G02*
X227725000Y-141928000I0J-135000D01*
G01*
G37*
G36*
G01*
X228745000Y-141928000D02*
X228745000Y-142298000D01*
G75*
G02*
X228610000Y-142433000I-135000J0D01*
G01*
X228340000Y-142433000D01*
G75*
G02*
X228205000Y-142298000I0J135000D01*
G01*
X228205000Y-141928000D01*
G75*
G02*
X228340000Y-141793000I135000J0D01*
G01*
X228610000Y-141793000D01*
G75*
G02*
X228745000Y-141928000I0J-135000D01*
G01*
G37*
%TD*%
%TO.C,R79*%
G36*
G01*
X228745000Y-140658000D02*
X228745000Y-141028000D01*
G75*
G02*
X228610000Y-141163000I-135000J0D01*
G01*
X228340000Y-141163000D01*
G75*
G02*
X228205000Y-141028000I0J135000D01*
G01*
X228205000Y-140658000D01*
G75*
G02*
X228340000Y-140523000I135000J0D01*
G01*
X228610000Y-140523000D01*
G75*
G02*
X228745000Y-140658000I0J-135000D01*
G01*
G37*
G36*
G01*
X227725000Y-140658000D02*
X227725000Y-141028000D01*
G75*
G02*
X227590000Y-141163000I-135000J0D01*
G01*
X227320000Y-141163000D01*
G75*
G02*
X227185000Y-141028000I0J135000D01*
G01*
X227185000Y-140658000D01*
G75*
G02*
X227320000Y-140523000I135000J0D01*
G01*
X227590000Y-140523000D01*
G75*
G02*
X227725000Y-140658000I0J-135000D01*
G01*
G37*
%TD*%
%TO.C,R80*%
G36*
G01*
X227725000Y-139388000D02*
X227725000Y-139758000D01*
G75*
G02*
X227590000Y-139893000I-135000J0D01*
G01*
X227320000Y-139893000D01*
G75*
G02*
X227185000Y-139758000I0J135000D01*
G01*
X227185000Y-139388000D01*
G75*
G02*
X227320000Y-139253000I135000J0D01*
G01*
X227590000Y-139253000D01*
G75*
G02*
X227725000Y-139388000I0J-135000D01*
G01*
G37*
G36*
G01*
X228745000Y-139388000D02*
X228745000Y-139758000D01*
G75*
G02*
X228610000Y-139893000I-135000J0D01*
G01*
X228340000Y-139893000D01*
G75*
G02*
X228205000Y-139758000I0J135000D01*
G01*
X228205000Y-139388000D01*
G75*
G02*
X228340000Y-139253000I135000J0D01*
G01*
X228610000Y-139253000D01*
G75*
G02*
X228745000Y-139388000I0J-135000D01*
G01*
G37*
%TD*%
%TO.C,R81*%
G36*
G01*
X228745000Y-138118000D02*
X228745000Y-138488000D01*
G75*
G02*
X228610000Y-138623000I-135000J0D01*
G01*
X228340000Y-138623000D01*
G75*
G02*
X228205000Y-138488000I0J135000D01*
G01*
X228205000Y-138118000D01*
G75*
G02*
X228340000Y-137983000I135000J0D01*
G01*
X228610000Y-137983000D01*
G75*
G02*
X228745000Y-138118000I0J-135000D01*
G01*
G37*
G36*
G01*
X227725000Y-138118000D02*
X227725000Y-138488000D01*
G75*
G02*
X227590000Y-138623000I-135000J0D01*
G01*
X227320000Y-138623000D01*
G75*
G02*
X227185000Y-138488000I0J135000D01*
G01*
X227185000Y-138118000D01*
G75*
G02*
X227320000Y-137983000I135000J0D01*
G01*
X227590000Y-137983000D01*
G75*
G02*
X227725000Y-138118000I0J-135000D01*
G01*
G37*
%TD*%
%TO.C,R82*%
G36*
G01*
X227725000Y-136848000D02*
X227725000Y-137218000D01*
G75*
G02*
X227590000Y-137353000I-135000J0D01*
G01*
X227320000Y-137353000D01*
G75*
G02*
X227185000Y-137218000I0J135000D01*
G01*
X227185000Y-136848000D01*
G75*
G02*
X227320000Y-136713000I135000J0D01*
G01*
X227590000Y-136713000D01*
G75*
G02*
X227725000Y-136848000I0J-135000D01*
G01*
G37*
G36*
G01*
X228745000Y-136848000D02*
X228745000Y-137218000D01*
G75*
G02*
X228610000Y-137353000I-135000J0D01*
G01*
X228340000Y-137353000D01*
G75*
G02*
X228205000Y-137218000I0J135000D01*
G01*
X228205000Y-136848000D01*
G75*
G02*
X228340000Y-136713000I135000J0D01*
G01*
X228610000Y-136713000D01*
G75*
G02*
X228745000Y-136848000I0J-135000D01*
G01*
G37*
%TD*%
%TO.C,R83*%
G36*
G01*
X227725000Y-135578000D02*
X227725000Y-135948000D01*
G75*
G02*
X227590000Y-136083000I-135000J0D01*
G01*
X227320000Y-136083000D01*
G75*
G02*
X227185000Y-135948000I0J135000D01*
G01*
X227185000Y-135578000D01*
G75*
G02*
X227320000Y-135443000I135000J0D01*
G01*
X227590000Y-135443000D01*
G75*
G02*
X227725000Y-135578000I0J-135000D01*
G01*
G37*
G36*
G01*
X228745000Y-135578000D02*
X228745000Y-135948000D01*
G75*
G02*
X228610000Y-136083000I-135000J0D01*
G01*
X228340000Y-136083000D01*
G75*
G02*
X228205000Y-135948000I0J135000D01*
G01*
X228205000Y-135578000D01*
G75*
G02*
X228340000Y-135443000I135000J0D01*
G01*
X228610000Y-135443000D01*
G75*
G02*
X228745000Y-135578000I0J-135000D01*
G01*
G37*
%TD*%
%TO.C,R84*%
G36*
G01*
X228745000Y-134308000D02*
X228745000Y-134678000D01*
G75*
G02*
X228610000Y-134813000I-135000J0D01*
G01*
X228340000Y-134813000D01*
G75*
G02*
X228205000Y-134678000I0J135000D01*
G01*
X228205000Y-134308000D01*
G75*
G02*
X228340000Y-134173000I135000J0D01*
G01*
X228610000Y-134173000D01*
G75*
G02*
X228745000Y-134308000I0J-135000D01*
G01*
G37*
G36*
G01*
X227725000Y-134308000D02*
X227725000Y-134678000D01*
G75*
G02*
X227590000Y-134813000I-135000J0D01*
G01*
X227320000Y-134813000D01*
G75*
G02*
X227185000Y-134678000I0J135000D01*
G01*
X227185000Y-134308000D01*
G75*
G02*
X227320000Y-134173000I135000J0D01*
G01*
X227590000Y-134173000D01*
G75*
G02*
X227725000Y-134308000I0J-135000D01*
G01*
G37*
%TD*%
%TO.C,R85*%
G36*
G01*
X228745000Y-133038000D02*
X228745000Y-133408000D01*
G75*
G02*
X228610000Y-133543000I-135000J0D01*
G01*
X228340000Y-133543000D01*
G75*
G02*
X228205000Y-133408000I0J135000D01*
G01*
X228205000Y-133038000D01*
G75*
G02*
X228340000Y-132903000I135000J0D01*
G01*
X228610000Y-132903000D01*
G75*
G02*
X228745000Y-133038000I0J-135000D01*
G01*
G37*
G36*
G01*
X227725000Y-133038000D02*
X227725000Y-133408000D01*
G75*
G02*
X227590000Y-133543000I-135000J0D01*
G01*
X227320000Y-133543000D01*
G75*
G02*
X227185000Y-133408000I0J135000D01*
G01*
X227185000Y-133038000D01*
G75*
G02*
X227320000Y-132903000I135000J0D01*
G01*
X227590000Y-132903000D01*
G75*
G02*
X227725000Y-133038000I0J-135000D01*
G01*
G37*
%TD*%
%TO.C,R86*%
G36*
G01*
X239042000Y-130613998D02*
X239042000Y-131514002D01*
G75*
G02*
X238792002Y-131764000I-249998J0D01*
G01*
X238266998Y-131764000D01*
G75*
G02*
X238017000Y-131514002I0J249998D01*
G01*
X238017000Y-130613998D01*
G75*
G02*
X238266998Y-130364000I249998J0D01*
G01*
X238792002Y-130364000D01*
G75*
G02*
X239042000Y-130613998I0J-249998D01*
G01*
G37*
G36*
G01*
X237217000Y-130613998D02*
X237217000Y-131514002D01*
G75*
G02*
X236967002Y-131764000I-249998J0D01*
G01*
X236441998Y-131764000D01*
G75*
G02*
X236192000Y-131514002I0J249998D01*
G01*
X236192000Y-130613998D01*
G75*
G02*
X236441998Y-130364000I249998J0D01*
G01*
X236967002Y-130364000D01*
G75*
G02*
X237217000Y-130613998I0J-249998D01*
G01*
G37*
%TD*%
%TO.C,R87*%
G36*
G01*
X242170000Y-130613998D02*
X242170000Y-131514002D01*
G75*
G02*
X241920002Y-131764000I-249998J0D01*
G01*
X241394998Y-131764000D01*
G75*
G02*
X241145000Y-131514002I0J249998D01*
G01*
X241145000Y-130613998D01*
G75*
G02*
X241394998Y-130364000I249998J0D01*
G01*
X241920002Y-130364000D01*
G75*
G02*
X242170000Y-130613998I0J-249998D01*
G01*
G37*
G36*
G01*
X243995000Y-130613998D02*
X243995000Y-131514002D01*
G75*
G02*
X243745002Y-131764000I-249998J0D01*
G01*
X243219998Y-131764000D01*
G75*
G02*
X242970000Y-131514002I0J249998D01*
G01*
X242970000Y-130613998D01*
G75*
G02*
X243219998Y-130364000I249998J0D01*
G01*
X243745002Y-130364000D01*
G75*
G02*
X243995000Y-130613998I0J-249998D01*
G01*
G37*
%TD*%
%TO.C,R88*%
G36*
G01*
X239065500Y-134169998D02*
X239065500Y-135070002D01*
G75*
G02*
X238815502Y-135320000I-249998J0D01*
G01*
X238290498Y-135320000D01*
G75*
G02*
X238040500Y-135070002I0J249998D01*
G01*
X238040500Y-134169998D01*
G75*
G02*
X238290498Y-133920000I249998J0D01*
G01*
X238815502Y-133920000D01*
G75*
G02*
X239065500Y-134169998I0J-249998D01*
G01*
G37*
G36*
G01*
X237240500Y-134169998D02*
X237240500Y-135070002D01*
G75*
G02*
X236990502Y-135320000I-249998J0D01*
G01*
X236465498Y-135320000D01*
G75*
G02*
X236215500Y-135070002I0J249998D01*
G01*
X236215500Y-134169998D01*
G75*
G02*
X236465498Y-133920000I249998J0D01*
G01*
X236990502Y-133920000D01*
G75*
G02*
X237240500Y-134169998I0J-249998D01*
G01*
G37*
%TD*%
%TO.C,R89*%
G36*
G01*
X242170000Y-134169998D02*
X242170000Y-135070002D01*
G75*
G02*
X241920002Y-135320000I-249998J0D01*
G01*
X241394998Y-135320000D01*
G75*
G02*
X241145000Y-135070002I0J249998D01*
G01*
X241145000Y-134169998D01*
G75*
G02*
X241394998Y-133920000I249998J0D01*
G01*
X241920002Y-133920000D01*
G75*
G02*
X242170000Y-134169998I0J-249998D01*
G01*
G37*
G36*
G01*
X243995000Y-134169998D02*
X243995000Y-135070002D01*
G75*
G02*
X243745002Y-135320000I-249998J0D01*
G01*
X243219998Y-135320000D01*
G75*
G02*
X242970000Y-135070002I0J249998D01*
G01*
X242970000Y-134169998D01*
G75*
G02*
X243219998Y-133920000I249998J0D01*
G01*
X243745002Y-133920000D01*
G75*
G02*
X243995000Y-134169998I0J-249998D01*
G01*
G37*
%TD*%
%TO.C,R90*%
G36*
G01*
X216350002Y-160937000D02*
X215449998Y-160937000D01*
G75*
G02*
X215200000Y-160687002I0J249998D01*
G01*
X215200000Y-160161998D01*
G75*
G02*
X215449998Y-159912000I249998J0D01*
G01*
X216350002Y-159912000D01*
G75*
G02*
X216600000Y-160161998I0J-249998D01*
G01*
X216600000Y-160687002D01*
G75*
G02*
X216350002Y-160937000I-249998J0D01*
G01*
G37*
G36*
G01*
X216350002Y-159112000D02*
X215449998Y-159112000D01*
G75*
G02*
X215200000Y-158862002I0J249998D01*
G01*
X215200000Y-158336998D01*
G75*
G02*
X215449998Y-158087000I249998J0D01*
G01*
X216350002Y-158087000D01*
G75*
G02*
X216600000Y-158336998I0J-249998D01*
G01*
X216600000Y-158862002D01*
G75*
G02*
X216350002Y-159112000I-249998J0D01*
G01*
G37*
%TD*%
%TO.C,R99*%
G36*
G01*
X195472000Y-125926002D02*
X195472000Y-125025998D01*
G75*
G02*
X195721998Y-124776000I249998J0D01*
G01*
X196247002Y-124776000D01*
G75*
G02*
X196497000Y-125025998I0J-249998D01*
G01*
X196497000Y-125926002D01*
G75*
G02*
X196247002Y-126176000I-249998J0D01*
G01*
X195721998Y-126176000D01*
G75*
G02*
X195472000Y-125926002I0J249998D01*
G01*
G37*
G36*
G01*
X193647000Y-125926002D02*
X193647000Y-125025998D01*
G75*
G02*
X193896998Y-124776000I249998J0D01*
G01*
X194422002Y-124776000D01*
G75*
G02*
X194672000Y-125025998I0J-249998D01*
G01*
X194672000Y-125926002D01*
G75*
G02*
X194422002Y-126176000I-249998J0D01*
G01*
X193896998Y-126176000D01*
G75*
G02*
X193647000Y-125926002I0J249998D01*
G01*
G37*
%TD*%
%TO.C,R100*%
G36*
G01*
X239042000Y-137725998D02*
X239042000Y-138626002D01*
G75*
G02*
X238792002Y-138876000I-249998J0D01*
G01*
X238266998Y-138876000D01*
G75*
G02*
X238017000Y-138626002I0J249998D01*
G01*
X238017000Y-137725998D01*
G75*
G02*
X238266998Y-137476000I249998J0D01*
G01*
X238792002Y-137476000D01*
G75*
G02*
X239042000Y-137725998I0J-249998D01*
G01*
G37*
G36*
G01*
X237217000Y-137725998D02*
X237217000Y-138626002D01*
G75*
G02*
X236967002Y-138876000I-249998J0D01*
G01*
X236441998Y-138876000D01*
G75*
G02*
X236192000Y-138626002I0J249998D01*
G01*
X236192000Y-137725998D01*
G75*
G02*
X236441998Y-137476000I249998J0D01*
G01*
X236967002Y-137476000D01*
G75*
G02*
X237217000Y-137725998I0J-249998D01*
G01*
G37*
%TD*%
%TO.C,R101*%
G36*
G01*
X242170000Y-137725998D02*
X242170000Y-138626002D01*
G75*
G02*
X241920002Y-138876000I-249998J0D01*
G01*
X241394998Y-138876000D01*
G75*
G02*
X241145000Y-138626002I0J249998D01*
G01*
X241145000Y-137725998D01*
G75*
G02*
X241394998Y-137476000I249998J0D01*
G01*
X241920002Y-137476000D01*
G75*
G02*
X242170000Y-137725998I0J-249998D01*
G01*
G37*
G36*
G01*
X243995000Y-137725998D02*
X243995000Y-138626002D01*
G75*
G02*
X243745002Y-138876000I-249998J0D01*
G01*
X243219998Y-138876000D01*
G75*
G02*
X242970000Y-138626002I0J249998D01*
G01*
X242970000Y-137725998D01*
G75*
G02*
X243219998Y-137476000I249998J0D01*
G01*
X243745002Y-137476000D01*
G75*
G02*
X243995000Y-137725998I0J-249998D01*
G01*
G37*
%TD*%
%TO.C,R102*%
G36*
G01*
X206902000Y-158946002D02*
X206902000Y-158045998D01*
G75*
G02*
X207151998Y-157796000I249998J0D01*
G01*
X207677002Y-157796000D01*
G75*
G02*
X207927000Y-158045998I0J-249998D01*
G01*
X207927000Y-158946002D01*
G75*
G02*
X207677002Y-159196000I-249998J0D01*
G01*
X207151998Y-159196000D01*
G75*
G02*
X206902000Y-158946002I0J249998D01*
G01*
G37*
G36*
G01*
X205077000Y-158946002D02*
X205077000Y-158045998D01*
G75*
G02*
X205326998Y-157796000I249998J0D01*
G01*
X205852002Y-157796000D01*
G75*
G02*
X206102000Y-158045998I0J-249998D01*
G01*
X206102000Y-158946002D01*
G75*
G02*
X205852002Y-159196000I-249998J0D01*
G01*
X205326998Y-159196000D01*
G75*
G02*
X205077000Y-158946002I0J249998D01*
G01*
G37*
%TD*%
%TO.C,R103*%
G36*
G01*
X205077000Y-161232002D02*
X205077000Y-160331998D01*
G75*
G02*
X205326998Y-160082000I249998J0D01*
G01*
X205852002Y-160082000D01*
G75*
G02*
X206102000Y-160331998I0J-249998D01*
G01*
X206102000Y-161232002D01*
G75*
G02*
X205852002Y-161482000I-249998J0D01*
G01*
X205326998Y-161482000D01*
G75*
G02*
X205077000Y-161232002I0J249998D01*
G01*
G37*
G36*
G01*
X206902000Y-161232002D02*
X206902000Y-160331998D01*
G75*
G02*
X207151998Y-160082000I249998J0D01*
G01*
X207677002Y-160082000D01*
G75*
G02*
X207927000Y-160331998I0J-249998D01*
G01*
X207927000Y-161232002D01*
G75*
G02*
X207677002Y-161482000I-249998J0D01*
G01*
X207151998Y-161482000D01*
G75*
G02*
X206902000Y-161232002I0J249998D01*
G01*
G37*
%TD*%
%TO.C,R104*%
G36*
G01*
X239042000Y-141281998D02*
X239042000Y-142182002D01*
G75*
G02*
X238792002Y-142432000I-249998J0D01*
G01*
X238266998Y-142432000D01*
G75*
G02*
X238017000Y-142182002I0J249998D01*
G01*
X238017000Y-141281998D01*
G75*
G02*
X238266998Y-141032000I249998J0D01*
G01*
X238792002Y-141032000D01*
G75*
G02*
X239042000Y-141281998I0J-249998D01*
G01*
G37*
G36*
G01*
X237217000Y-141281998D02*
X237217000Y-142182002D01*
G75*
G02*
X236967002Y-142432000I-249998J0D01*
G01*
X236441998Y-142432000D01*
G75*
G02*
X236192000Y-142182002I0J249998D01*
G01*
X236192000Y-141281998D01*
G75*
G02*
X236441998Y-141032000I249998J0D01*
G01*
X236967002Y-141032000D01*
G75*
G02*
X237217000Y-141281998I0J-249998D01*
G01*
G37*
%TD*%
%TO.C,R105*%
G36*
G01*
X242170000Y-141281998D02*
X242170000Y-142182002D01*
G75*
G02*
X241920002Y-142432000I-249998J0D01*
G01*
X241394998Y-142432000D01*
G75*
G02*
X241145000Y-142182002I0J249998D01*
G01*
X241145000Y-141281998D01*
G75*
G02*
X241394998Y-141032000I249998J0D01*
G01*
X241920002Y-141032000D01*
G75*
G02*
X242170000Y-141281998I0J-249998D01*
G01*
G37*
G36*
G01*
X243995000Y-141281998D02*
X243995000Y-142182002D01*
G75*
G02*
X243745002Y-142432000I-249998J0D01*
G01*
X243219998Y-142432000D01*
G75*
G02*
X242970000Y-142182002I0J249998D01*
G01*
X242970000Y-141281998D01*
G75*
G02*
X243219998Y-141032000I249998J0D01*
G01*
X243745002Y-141032000D01*
G75*
G02*
X243995000Y-141281998I0J-249998D01*
G01*
G37*
%TD*%
%TO.C,R106*%
G36*
G01*
X189934002Y-177908000D02*
X189033998Y-177908000D01*
G75*
G02*
X188784000Y-177658002I0J249998D01*
G01*
X188784000Y-177132998D01*
G75*
G02*
X189033998Y-176883000I249998J0D01*
G01*
X189934002Y-176883000D01*
G75*
G02*
X190184000Y-177132998I0J-249998D01*
G01*
X190184000Y-177658002D01*
G75*
G02*
X189934002Y-177908000I-249998J0D01*
G01*
G37*
G36*
G01*
X189934002Y-179733000D02*
X189033998Y-179733000D01*
G75*
G02*
X188784000Y-179483002I0J249998D01*
G01*
X188784000Y-178957998D01*
G75*
G02*
X189033998Y-178708000I249998J0D01*
G01*
X189934002Y-178708000D01*
G75*
G02*
X190184000Y-178957998I0J-249998D01*
G01*
X190184000Y-179483002D01*
G75*
G02*
X189934002Y-179733000I-249998J0D01*
G01*
G37*
%TD*%
%TO.C,R107*%
G36*
G01*
X197046002Y-184813000D02*
X196145998Y-184813000D01*
G75*
G02*
X195896000Y-184563002I0J249998D01*
G01*
X195896000Y-184037998D01*
G75*
G02*
X196145998Y-183788000I249998J0D01*
G01*
X197046002Y-183788000D01*
G75*
G02*
X197296000Y-184037998I0J-249998D01*
G01*
X197296000Y-184563002D01*
G75*
G02*
X197046002Y-184813000I-249998J0D01*
G01*
G37*
G36*
G01*
X197046002Y-182988000D02*
X196145998Y-182988000D01*
G75*
G02*
X195896000Y-182738002I0J249998D01*
G01*
X195896000Y-182212998D01*
G75*
G02*
X196145998Y-181963000I249998J0D01*
G01*
X197046002Y-181963000D01*
G75*
G02*
X197296000Y-182212998I0J-249998D01*
G01*
X197296000Y-182738002D01*
G75*
G02*
X197046002Y-182988000I-249998J0D01*
G01*
G37*
%TD*%
%TO.C,R108*%
G36*
G01*
X193490002Y-182988000D02*
X192589998Y-182988000D01*
G75*
G02*
X192340000Y-182738002I0J249998D01*
G01*
X192340000Y-182212998D01*
G75*
G02*
X192589998Y-181963000I249998J0D01*
G01*
X193490002Y-181963000D01*
G75*
G02*
X193740000Y-182212998I0J-249998D01*
G01*
X193740000Y-182738002D01*
G75*
G02*
X193490002Y-182988000I-249998J0D01*
G01*
G37*
G36*
G01*
X193490002Y-184813000D02*
X192589998Y-184813000D01*
G75*
G02*
X192340000Y-184563002I0J249998D01*
G01*
X192340000Y-184037998D01*
G75*
G02*
X192589998Y-183788000I249998J0D01*
G01*
X193490002Y-183788000D01*
G75*
G02*
X193740000Y-184037998I0J-249998D01*
G01*
X193740000Y-184563002D01*
G75*
G02*
X193490002Y-184813000I-249998J0D01*
G01*
G37*
%TD*%
%TO.C,R109*%
G36*
G01*
X211270002Y-184813000D02*
X210369998Y-184813000D01*
G75*
G02*
X210120000Y-184563002I0J249998D01*
G01*
X210120000Y-184037998D01*
G75*
G02*
X210369998Y-183788000I249998J0D01*
G01*
X211270002Y-183788000D01*
G75*
G02*
X211520000Y-184037998I0J-249998D01*
G01*
X211520000Y-184563002D01*
G75*
G02*
X211270002Y-184813000I-249998J0D01*
G01*
G37*
G36*
G01*
X211270002Y-182988000D02*
X210369998Y-182988000D01*
G75*
G02*
X210120000Y-182738002I0J249998D01*
G01*
X210120000Y-182212998D01*
G75*
G02*
X210369998Y-181963000I249998J0D01*
G01*
X211270002Y-181963000D01*
G75*
G02*
X211520000Y-182212998I0J-249998D01*
G01*
X211520000Y-182738002D01*
G75*
G02*
X211270002Y-182988000I-249998J0D01*
G01*
G37*
%TD*%
%TO.C,R110*%
G36*
G01*
X207714002Y-182988000D02*
X206813998Y-182988000D01*
G75*
G02*
X206564000Y-182738002I0J249998D01*
G01*
X206564000Y-182212998D01*
G75*
G02*
X206813998Y-181963000I249998J0D01*
G01*
X207714002Y-181963000D01*
G75*
G02*
X207964000Y-182212998I0J-249998D01*
G01*
X207964000Y-182738002D01*
G75*
G02*
X207714002Y-182988000I-249998J0D01*
G01*
G37*
G36*
G01*
X207714002Y-184813000D02*
X206813998Y-184813000D01*
G75*
G02*
X206564000Y-184563002I0J249998D01*
G01*
X206564000Y-184037998D01*
G75*
G02*
X206813998Y-183788000I249998J0D01*
G01*
X207714002Y-183788000D01*
G75*
G02*
X207964000Y-184037998I0J-249998D01*
G01*
X207964000Y-184563002D01*
G75*
G02*
X207714002Y-184813000I-249998J0D01*
G01*
G37*
%TD*%
%TO.C,R111*%
G36*
G01*
X204158002Y-184813000D02*
X203257998Y-184813000D01*
G75*
G02*
X203008000Y-184563002I0J249998D01*
G01*
X203008000Y-184037998D01*
G75*
G02*
X203257998Y-183788000I249998J0D01*
G01*
X204158002Y-183788000D01*
G75*
G02*
X204408000Y-184037998I0J-249998D01*
G01*
X204408000Y-184563002D01*
G75*
G02*
X204158002Y-184813000I-249998J0D01*
G01*
G37*
G36*
G01*
X204158002Y-182988000D02*
X203257998Y-182988000D01*
G75*
G02*
X203008000Y-182738002I0J249998D01*
G01*
X203008000Y-182212998D01*
G75*
G02*
X203257998Y-181963000I249998J0D01*
G01*
X204158002Y-181963000D01*
G75*
G02*
X204408000Y-182212998I0J-249998D01*
G01*
X204408000Y-182738002D01*
G75*
G02*
X204158002Y-182988000I-249998J0D01*
G01*
G37*
%TD*%
%TO.C,R112*%
G36*
G01*
X200602002Y-182988000D02*
X199701998Y-182988000D01*
G75*
G02*
X199452000Y-182738002I0J249998D01*
G01*
X199452000Y-182212998D01*
G75*
G02*
X199701998Y-181963000I249998J0D01*
G01*
X200602002Y-181963000D01*
G75*
G02*
X200852000Y-182212998I0J-249998D01*
G01*
X200852000Y-182738002D01*
G75*
G02*
X200602002Y-182988000I-249998J0D01*
G01*
G37*
G36*
G01*
X200602002Y-184813000D02*
X199701998Y-184813000D01*
G75*
G02*
X199452000Y-184563002I0J249998D01*
G01*
X199452000Y-184037998D01*
G75*
G02*
X199701998Y-183788000I249998J0D01*
G01*
X200602002Y-183788000D01*
G75*
G02*
X200852000Y-184037998I0J-249998D01*
G01*
X200852000Y-184563002D01*
G75*
G02*
X200602002Y-184813000I-249998J0D01*
G01*
G37*
%TD*%
%TO.C,R113*%
G36*
G01*
X189934002Y-184813000D02*
X189033998Y-184813000D01*
G75*
G02*
X188784000Y-184563002I0J249998D01*
G01*
X188784000Y-184037998D01*
G75*
G02*
X189033998Y-183788000I249998J0D01*
G01*
X189934002Y-183788000D01*
G75*
G02*
X190184000Y-184037998I0J-249998D01*
G01*
X190184000Y-184563002D01*
G75*
G02*
X189934002Y-184813000I-249998J0D01*
G01*
G37*
G36*
G01*
X189934002Y-182988000D02*
X189033998Y-182988000D01*
G75*
G02*
X188784000Y-182738002I0J249998D01*
G01*
X188784000Y-182212998D01*
G75*
G02*
X189033998Y-181963000I249998J0D01*
G01*
X189934002Y-181963000D01*
G75*
G02*
X190184000Y-182212998I0J-249998D01*
G01*
X190184000Y-182738002D01*
G75*
G02*
X189934002Y-182988000I-249998J0D01*
G01*
G37*
%TD*%
%TO.C,R114*%
G36*
G01*
X200602002Y-177908000D02*
X199701998Y-177908000D01*
G75*
G02*
X199452000Y-177658002I0J249998D01*
G01*
X199452000Y-177132998D01*
G75*
G02*
X199701998Y-176883000I249998J0D01*
G01*
X200602002Y-176883000D01*
G75*
G02*
X200852000Y-177132998I0J-249998D01*
G01*
X200852000Y-177658002D01*
G75*
G02*
X200602002Y-177908000I-249998J0D01*
G01*
G37*
G36*
G01*
X200602002Y-179733000D02*
X199701998Y-179733000D01*
G75*
G02*
X199452000Y-179483002I0J249998D01*
G01*
X199452000Y-178957998D01*
G75*
G02*
X199701998Y-178708000I249998J0D01*
G01*
X200602002Y-178708000D01*
G75*
G02*
X200852000Y-178957998I0J-249998D01*
G01*
X200852000Y-179483002D01*
G75*
G02*
X200602002Y-179733000I-249998J0D01*
G01*
G37*
%TD*%
%TO.C,R115*%
G36*
G01*
X204158002Y-179733000D02*
X203257998Y-179733000D01*
G75*
G02*
X203008000Y-179483002I0J249998D01*
G01*
X203008000Y-178957998D01*
G75*
G02*
X203257998Y-178708000I249998J0D01*
G01*
X204158002Y-178708000D01*
G75*
G02*
X204408000Y-178957998I0J-249998D01*
G01*
X204408000Y-179483002D01*
G75*
G02*
X204158002Y-179733000I-249998J0D01*
G01*
G37*
G36*
G01*
X204158002Y-177908000D02*
X203257998Y-177908000D01*
G75*
G02*
X203008000Y-177658002I0J249998D01*
G01*
X203008000Y-177132998D01*
G75*
G02*
X203257998Y-176883000I249998J0D01*
G01*
X204158002Y-176883000D01*
G75*
G02*
X204408000Y-177132998I0J-249998D01*
G01*
X204408000Y-177658002D01*
G75*
G02*
X204158002Y-177908000I-249998J0D01*
G01*
G37*
%TD*%
%TO.C,R116*%
G36*
G01*
X207714002Y-177908000D02*
X206813998Y-177908000D01*
G75*
G02*
X206564000Y-177658002I0J249998D01*
G01*
X206564000Y-177132998D01*
G75*
G02*
X206813998Y-176883000I249998J0D01*
G01*
X207714002Y-176883000D01*
G75*
G02*
X207964000Y-177132998I0J-249998D01*
G01*
X207964000Y-177658002D01*
G75*
G02*
X207714002Y-177908000I-249998J0D01*
G01*
G37*
G36*
G01*
X207714002Y-179733000D02*
X206813998Y-179733000D01*
G75*
G02*
X206564000Y-179483002I0J249998D01*
G01*
X206564000Y-178957998D01*
G75*
G02*
X206813998Y-178708000I249998J0D01*
G01*
X207714002Y-178708000D01*
G75*
G02*
X207964000Y-178957998I0J-249998D01*
G01*
X207964000Y-179483002D01*
G75*
G02*
X207714002Y-179733000I-249998J0D01*
G01*
G37*
%TD*%
%TO.C,R117*%
G36*
G01*
X211270002Y-179733000D02*
X210369998Y-179733000D01*
G75*
G02*
X210120000Y-179483002I0J249998D01*
G01*
X210120000Y-178957998D01*
G75*
G02*
X210369998Y-178708000I249998J0D01*
G01*
X211270002Y-178708000D01*
G75*
G02*
X211520000Y-178957998I0J-249998D01*
G01*
X211520000Y-179483002D01*
G75*
G02*
X211270002Y-179733000I-249998J0D01*
G01*
G37*
G36*
G01*
X211270002Y-177908000D02*
X210369998Y-177908000D01*
G75*
G02*
X210120000Y-177658002I0J249998D01*
G01*
X210120000Y-177132998D01*
G75*
G02*
X210369998Y-176883000I249998J0D01*
G01*
X211270002Y-176883000D01*
G75*
G02*
X211520000Y-177132998I0J-249998D01*
G01*
X211520000Y-177658002D01*
G75*
G02*
X211270002Y-177908000I-249998J0D01*
G01*
G37*
%TD*%
%TO.C,R118*%
G36*
G01*
X193744002Y-177908000D02*
X192843998Y-177908000D01*
G75*
G02*
X192594000Y-177658002I0J249998D01*
G01*
X192594000Y-177132998D01*
G75*
G02*
X192843998Y-176883000I249998J0D01*
G01*
X193744002Y-176883000D01*
G75*
G02*
X193994000Y-177132998I0J-249998D01*
G01*
X193994000Y-177658002D01*
G75*
G02*
X193744002Y-177908000I-249998J0D01*
G01*
G37*
G36*
G01*
X193744002Y-179733000D02*
X192843998Y-179733000D01*
G75*
G02*
X192594000Y-179483002I0J249998D01*
G01*
X192594000Y-178957998D01*
G75*
G02*
X192843998Y-178708000I249998J0D01*
G01*
X193744002Y-178708000D01*
G75*
G02*
X193994000Y-178957998I0J-249998D01*
G01*
X193994000Y-179483002D01*
G75*
G02*
X193744002Y-179733000I-249998J0D01*
G01*
G37*
%TD*%
%TO.C,R119*%
G36*
G01*
X197046002Y-179733000D02*
X196145998Y-179733000D01*
G75*
G02*
X195896000Y-179483002I0J249998D01*
G01*
X195896000Y-178957998D01*
G75*
G02*
X196145998Y-178708000I249998J0D01*
G01*
X197046002Y-178708000D01*
G75*
G02*
X197296000Y-178957998I0J-249998D01*
G01*
X197296000Y-179483002D01*
G75*
G02*
X197046002Y-179733000I-249998J0D01*
G01*
G37*
G36*
G01*
X197046002Y-177908000D02*
X196145998Y-177908000D01*
G75*
G02*
X195896000Y-177658002I0J249998D01*
G01*
X195896000Y-177132998D01*
G75*
G02*
X196145998Y-176883000I249998J0D01*
G01*
X197046002Y-176883000D01*
G75*
G02*
X197296000Y-177132998I0J-249998D01*
G01*
X197296000Y-177658002D01*
G75*
G02*
X197046002Y-177908000I-249998J0D01*
G01*
G37*
%TD*%
D38*
%TO.C,SW1*%
X240191000Y-206756000D03*
X244441000Y-206756000D03*
G36*
G01*
X240716000Y-206568500D02*
X240716000Y-205143500D01*
G75*
G02*
X240903500Y-204956000I187500J0D01*
G01*
X241278500Y-204956000D01*
G75*
G02*
X241466000Y-205143500I0J-187500D01*
G01*
X241466000Y-206568500D01*
G75*
G02*
X241278500Y-206756000I-187500J0D01*
G01*
X240903500Y-206756000D01*
G75*
G02*
X240716000Y-206568500I0J187500D01*
G01*
G37*
G36*
G01*
X243166000Y-206568500D02*
X243166000Y-205143500D01*
G75*
G02*
X243353500Y-204956000I187500J0D01*
G01*
X243728500Y-204956000D01*
G75*
G02*
X243916000Y-205143500I0J-187500D01*
G01*
X243916000Y-206568500D01*
G75*
G02*
X243728500Y-206756000I-187500J0D01*
G01*
X243353500Y-206756000D01*
G75*
G02*
X243166000Y-206568500I0J187500D01*
G01*
G37*
G36*
G01*
X242016000Y-206606000D02*
X242016000Y-205106000D01*
G75*
G02*
X242166000Y-204956000I150000J0D01*
G01*
X242466000Y-204956000D01*
G75*
G02*
X242616000Y-205106000I0J-150000D01*
G01*
X242616000Y-206606000D01*
G75*
G02*
X242466000Y-206756000I-150000J0D01*
G01*
X242166000Y-206756000D01*
G75*
G02*
X242016000Y-206606000I0J150000D01*
G01*
G37*
G36*
G01*
X239816000Y-208031000D02*
X239816000Y-207581000D01*
G75*
G02*
X240041000Y-207356000I225000J0D01*
G01*
X240891000Y-207356000D01*
G75*
G02*
X241116000Y-207581000I0J-225000D01*
G01*
X241116000Y-208031000D01*
G75*
G02*
X240891000Y-208256000I-225000J0D01*
G01*
X240041000Y-208256000D01*
G75*
G02*
X239816000Y-208031000I0J225000D01*
G01*
G37*
G36*
G01*
X243516000Y-208031000D02*
X243516000Y-207581000D01*
G75*
G02*
X243741000Y-207356000I225000J0D01*
G01*
X244591000Y-207356000D01*
G75*
G02*
X244816000Y-207581000I0J-225000D01*
G01*
X244816000Y-208031000D01*
G75*
G02*
X244591000Y-208256000I-225000J0D01*
G01*
X243741000Y-208256000D01*
G75*
G02*
X243516000Y-208031000I0J225000D01*
G01*
G37*
%TD*%
%TO.C,SW2*%
G36*
G01*
X250628000Y-208031000D02*
X250628000Y-207581000D01*
G75*
G02*
X250853000Y-207356000I225000J0D01*
G01*
X251703000Y-207356000D01*
G75*
G02*
X251928000Y-207581000I0J-225000D01*
G01*
X251928000Y-208031000D01*
G75*
G02*
X251703000Y-208256000I-225000J0D01*
G01*
X250853000Y-208256000D01*
G75*
G02*
X250628000Y-208031000I0J225000D01*
G01*
G37*
G36*
G01*
X246928000Y-208031000D02*
X246928000Y-207581000D01*
G75*
G02*
X247153000Y-207356000I225000J0D01*
G01*
X248003000Y-207356000D01*
G75*
G02*
X248228000Y-207581000I0J-225000D01*
G01*
X248228000Y-208031000D01*
G75*
G02*
X248003000Y-208256000I-225000J0D01*
G01*
X247153000Y-208256000D01*
G75*
G02*
X246928000Y-208031000I0J225000D01*
G01*
G37*
G36*
G01*
X249128000Y-206606000D02*
X249128000Y-205106000D01*
G75*
G02*
X249278000Y-204956000I150000J0D01*
G01*
X249578000Y-204956000D01*
G75*
G02*
X249728000Y-205106000I0J-150000D01*
G01*
X249728000Y-206606000D01*
G75*
G02*
X249578000Y-206756000I-150000J0D01*
G01*
X249278000Y-206756000D01*
G75*
G02*
X249128000Y-206606000I0J150000D01*
G01*
G37*
G36*
G01*
X250278000Y-206568500D02*
X250278000Y-205143500D01*
G75*
G02*
X250465500Y-204956000I187500J0D01*
G01*
X250840500Y-204956000D01*
G75*
G02*
X251028000Y-205143500I0J-187500D01*
G01*
X251028000Y-206568500D01*
G75*
G02*
X250840500Y-206756000I-187500J0D01*
G01*
X250465500Y-206756000D01*
G75*
G02*
X250278000Y-206568500I0J187500D01*
G01*
G37*
G36*
G01*
X247828000Y-206568500D02*
X247828000Y-205143500D01*
G75*
G02*
X248015500Y-204956000I187500J0D01*
G01*
X248390500Y-204956000D01*
G75*
G02*
X248578000Y-205143500I0J-187500D01*
G01*
X248578000Y-206568500D01*
G75*
G02*
X248390500Y-206756000I-187500J0D01*
G01*
X248015500Y-206756000D01*
G75*
G02*
X247828000Y-206568500I0J187500D01*
G01*
G37*
X251553000Y-206756000D03*
X247303000Y-206756000D03*
%TD*%
D21*
%TO.C,TP1*%
X251206000Y-139065000D03*
%TD*%
%TO.C,TP2*%
X251079000Y-152527000D03*
%TD*%
%TO.C,TP3*%
X251079000Y-148082000D03*
%TD*%
%TO.C,TP4*%
X251079000Y-143637000D03*
%TD*%
%TO.C,TP5*%
X171831000Y-185420000D03*
%TD*%
%TO.C,TP6*%
X258064000Y-196342000D03*
%TD*%
%TO.C,TP7*%
X176022000Y-180340000D03*
%TD*%
%TO.C,TP8*%
X203708000Y-167132000D03*
%TD*%
%TO.C,TP9*%
X209042000Y-167132000D03*
%TD*%
%TO.C,TP10*%
X258064000Y-191262000D03*
%TD*%
%TO.C,TP12*%
X191262000Y-122428000D03*
%TD*%
%TO.C,TP13*%
X198882000Y-122428000D03*
%TD*%
M02*
