%TF.GenerationSoftware,KiCad,Pcbnew,(5.1.12)-1*%
%TF.CreationDate,2022-03-11T14:49:08+01:00*%
%TF.ProjectId,ESP_S3-CP-24_Platform,4553505f-5333-42d4-9350-2d32345f506c,R0.8*%
%TF.SameCoordinates,Original*%
%TF.FileFunction,Soldermask,Bot*%
%TF.FilePolarity,Negative*%
%FSLAX46Y46*%
G04 Gerber Fmt 4.6, Leading zero omitted, Abs format (unit mm)*
G04 Created by KiCad (PCBNEW (5.1.12)-1) date 2022-03-11 14:49:08*
%MOMM*%
%LPD*%
G01*
G04 APERTURE LIST*
%ADD10C,0.300000*%
%ADD11C,0.650000*%
%ADD12C,2.000000*%
%ADD13C,1.800000*%
%ADD14O,1.700000X1.700000*%
%ADD15R,1.700000X1.700000*%
%ADD16C,0.800000*%
%ADD17C,6.400000*%
%ADD18C,0.900000*%
G04 APERTURE END LIST*
D10*
X219422857Y-115732642D02*
X219208571Y-115804071D01*
X218851428Y-115804071D01*
X218708571Y-115732642D01*
X218637142Y-115661214D01*
X218565714Y-115518357D01*
X218565714Y-115375500D01*
X218637142Y-115232642D01*
X218708571Y-115161214D01*
X218851428Y-115089785D01*
X219137142Y-115018357D01*
X219280000Y-114946928D01*
X219351428Y-114875500D01*
X219422857Y-114732642D01*
X219422857Y-114589785D01*
X219351428Y-114446928D01*
X219280000Y-114375500D01*
X219137142Y-114304071D01*
X218780000Y-114304071D01*
X218565714Y-114375500D01*
X217708571Y-115804071D02*
X217851428Y-115732642D01*
X217922857Y-115661214D01*
X217994285Y-115518357D01*
X217994285Y-115089785D01*
X217922857Y-114946928D01*
X217851428Y-114875500D01*
X217708571Y-114804071D01*
X217494285Y-114804071D01*
X217351428Y-114875500D01*
X217280000Y-114946928D01*
X217208571Y-115089785D01*
X217208571Y-115518357D01*
X217280000Y-115661214D01*
X217351428Y-115732642D01*
X217494285Y-115804071D01*
X217708571Y-115804071D01*
X216351428Y-115804071D02*
X216494285Y-115732642D01*
X216565714Y-115589785D01*
X216565714Y-114304071D01*
X215137142Y-115804071D02*
X215137142Y-114304071D01*
X215137142Y-115732642D02*
X215280000Y-115804071D01*
X215565714Y-115804071D01*
X215708571Y-115732642D01*
X215780000Y-115661214D01*
X215851428Y-115518357D01*
X215851428Y-115089785D01*
X215780000Y-114946928D01*
X215708571Y-114875500D01*
X215565714Y-114804071D01*
X215280000Y-114804071D01*
X215137142Y-114875500D01*
X213851428Y-115732642D02*
X213994285Y-115804071D01*
X214280000Y-115804071D01*
X214422857Y-115732642D01*
X214494285Y-115589785D01*
X214494285Y-115018357D01*
X214422857Y-114875500D01*
X214280000Y-114804071D01*
X213994285Y-114804071D01*
X213851428Y-114875500D01*
X213780000Y-115018357D01*
X213780000Y-115161214D01*
X214494285Y-115304071D01*
X213137142Y-115804071D02*
X213137142Y-114804071D01*
X213137142Y-115089785D02*
X213065714Y-114946928D01*
X212994285Y-114875500D01*
X212851428Y-114804071D01*
X212708571Y-114804071D01*
X211065714Y-115804071D02*
X211065714Y-114304071D01*
X210565714Y-115375500D01*
X210065714Y-114304071D01*
X210065714Y-115804071D01*
X208708571Y-115804071D02*
X208708571Y-115018357D01*
X208780000Y-114875500D01*
X208922857Y-114804071D01*
X209208571Y-114804071D01*
X209351428Y-114875500D01*
X208708571Y-115732642D02*
X208851428Y-115804071D01*
X209208571Y-115804071D01*
X209351428Y-115732642D01*
X209422857Y-115589785D01*
X209422857Y-115446928D01*
X209351428Y-115304071D01*
X209208571Y-115232642D01*
X208851428Y-115232642D01*
X208708571Y-115161214D01*
X208065714Y-115732642D02*
X207922857Y-115804071D01*
X207637142Y-115804071D01*
X207494285Y-115732642D01*
X207422857Y-115589785D01*
X207422857Y-115518357D01*
X207494285Y-115375500D01*
X207637142Y-115304071D01*
X207851428Y-115304071D01*
X207994285Y-115232642D01*
X208065714Y-115089785D01*
X208065714Y-115018357D01*
X207994285Y-114875500D01*
X207851428Y-114804071D01*
X207637142Y-114804071D01*
X207494285Y-114875500D01*
X206780000Y-115804071D02*
X206780000Y-114304071D01*
X206637142Y-115232642D02*
X206208571Y-115804071D01*
X206208571Y-114804071D02*
X206780000Y-115375500D01*
X203922857Y-115018357D02*
X203708571Y-115089785D01*
X203637142Y-115161214D01*
X203565714Y-115304071D01*
X203565714Y-115518357D01*
X203637142Y-115661214D01*
X203708571Y-115732642D01*
X203851428Y-115804071D01*
X204422857Y-115804071D01*
X204422857Y-114304071D01*
X203922857Y-114304071D01*
X203780000Y-114375500D01*
X203708571Y-114446928D01*
X203637142Y-114589785D01*
X203637142Y-114732642D01*
X203708571Y-114875500D01*
X203780000Y-114946928D01*
X203922857Y-115018357D01*
X204422857Y-115018357D01*
X202708571Y-115804071D02*
X202851428Y-115732642D01*
X202922857Y-115661214D01*
X202994285Y-115518357D01*
X202994285Y-115089785D01*
X202922857Y-114946928D01*
X202851428Y-114875500D01*
X202708571Y-114804071D01*
X202494285Y-114804071D01*
X202351428Y-114875500D01*
X202280000Y-114946928D01*
X202208571Y-115089785D01*
X202208571Y-115518357D01*
X202280000Y-115661214D01*
X202351428Y-115732642D01*
X202494285Y-115804071D01*
X202708571Y-115804071D01*
X201780000Y-114804071D02*
X201208571Y-114804071D01*
X201565714Y-114304071D02*
X201565714Y-115589785D01*
X201494285Y-115732642D01*
X201351428Y-115804071D01*
X201208571Y-115804071D01*
X200922857Y-114804071D02*
X200351428Y-114804071D01*
X200708571Y-114304071D02*
X200708571Y-115589785D01*
X200637142Y-115732642D01*
X200494285Y-115804071D01*
X200351428Y-115804071D01*
X199637142Y-115804071D02*
X199780000Y-115732642D01*
X199851428Y-115661214D01*
X199922857Y-115518357D01*
X199922857Y-115089785D01*
X199851428Y-114946928D01*
X199780000Y-114875500D01*
X199637142Y-114804071D01*
X199422857Y-114804071D01*
X199280000Y-114875500D01*
X199208571Y-114946928D01*
X199137142Y-115089785D01*
X199137142Y-115518357D01*
X199208571Y-115661214D01*
X199280000Y-115732642D01*
X199422857Y-115804071D01*
X199637142Y-115804071D01*
X198494285Y-115804071D02*
X198494285Y-114804071D01*
X198494285Y-114946928D02*
X198422857Y-114875500D01*
X198280000Y-114804071D01*
X198065714Y-114804071D01*
X197922857Y-114875500D01*
X197851428Y-115018357D01*
X197851428Y-115804071D01*
X197851428Y-115018357D02*
X197780000Y-114875500D01*
X197637142Y-114804071D01*
X197422857Y-114804071D01*
X197280000Y-114875500D01*
X197208571Y-115018357D01*
X197208571Y-115804071D01*
D11*
%TO.C,J8*%
X233522000Y-202565000D03*
X227742000Y-202565000D03*
%TD*%
%TO.C,J7*%
X217393000Y-202565000D03*
X211613000Y-202565000D03*
%TD*%
D12*
%TO.C,J4*%
X180848000Y-198652000D03*
D13*
X180848000Y-203052000D03*
%TD*%
D14*
%TO.C,J2*%
X167640000Y-185928000D03*
X167640000Y-183388000D03*
X167640000Y-180848000D03*
X167640000Y-178308000D03*
X167640000Y-175768000D03*
X167640000Y-173228000D03*
X167640000Y-170688000D03*
X167640000Y-168148000D03*
X167640000Y-165608000D03*
X167640000Y-163068000D03*
X167640000Y-160528000D03*
X167640000Y-157988000D03*
X167640000Y-155448000D03*
X167640000Y-152908000D03*
X167640000Y-150368000D03*
X167640000Y-147828000D03*
X167640000Y-145288000D03*
X167640000Y-142748000D03*
X167640000Y-140208000D03*
X167640000Y-137668000D03*
X167640000Y-135128000D03*
D15*
X167640000Y-132588000D03*
%TD*%
D16*
%TO.C,H1*%
X169634056Y-203661944D03*
X167937000Y-202959000D03*
X166239944Y-203661944D03*
X165537000Y-205359000D03*
X166239944Y-207056056D03*
X167937000Y-207759000D03*
X169634056Y-207056056D03*
X170337000Y-205359000D03*
D17*
X167937000Y-205359000D03*
%TD*%
%TO.C,H2*%
X257937000Y-205359000D03*
D16*
X260337000Y-205359000D03*
X259634056Y-207056056D03*
X257937000Y-207759000D03*
X256239944Y-207056056D03*
X255537000Y-205359000D03*
X256239944Y-203661944D03*
X257937000Y-202959000D03*
X259634056Y-203661944D03*
%TD*%
%TO.C,H3*%
X259607056Y-120603944D03*
X257910000Y-119901000D03*
X256212944Y-120603944D03*
X255510000Y-122301000D03*
X256212944Y-123998056D03*
X257910000Y-124701000D03*
X259607056Y-123998056D03*
X260310000Y-122301000D03*
D17*
X257910000Y-122301000D03*
%TD*%
%TO.C,H4*%
X167767000Y-122301000D03*
D16*
X170167000Y-122301000D03*
X169464056Y-123998056D03*
X167767000Y-124701000D03*
X166069944Y-123998056D03*
X165367000Y-122301000D03*
X166069944Y-120603944D03*
X167767000Y-119901000D03*
X169464056Y-120603944D03*
%TD*%
D15*
%TO.C,J3*%
X258064000Y-132588000D03*
D14*
X258064000Y-135128000D03*
X258064000Y-137668000D03*
X258064000Y-140208000D03*
X258064000Y-142748000D03*
X258064000Y-145288000D03*
X258064000Y-147828000D03*
X258064000Y-150368000D03*
X258064000Y-152908000D03*
X258064000Y-155448000D03*
X258064000Y-157988000D03*
X258064000Y-160528000D03*
X258064000Y-163068000D03*
X258064000Y-165608000D03*
X258064000Y-168148000D03*
X258064000Y-170688000D03*
X258064000Y-173228000D03*
X258064000Y-175768000D03*
X258064000Y-178308000D03*
X258064000Y-180848000D03*
X258064000Y-183388000D03*
X258064000Y-185928000D03*
%TD*%
%TO.C,J5*%
X184404000Y-184912000D03*
X181864000Y-184912000D03*
X184404000Y-182372000D03*
D15*
X181864000Y-182372000D03*
%TD*%
%TO.C,J6*%
X249174000Y-126492000D03*
D14*
X251714000Y-126492000D03*
X249174000Y-129032000D03*
X251714000Y-129032000D03*
%TD*%
D18*
%TO.C,SW1*%
X240191000Y-206756000D03*
X244441000Y-206756000D03*
%TD*%
%TO.C,SW2*%
X251553000Y-206756000D03*
X247303000Y-206756000D03*
%TD*%
M02*
