%TF.GenerationSoftware,KiCad,Pcbnew,(5.1.12)-1*%
%TF.CreationDate,2022-03-11T14:49:08+01:00*%
%TF.ProjectId,ESP_S3-CP-24_Platform,4553505f-5333-42d4-9350-2d32345f506c,R0.8*%
%TF.SameCoordinates,Original*%
%TF.FileFunction,Profile,NP*%
%FSLAX46Y46*%
G04 Gerber Fmt 4.6, Leading zero omitted, Abs format (unit mm)*
G04 Created by KiCad (PCBNEW (5.1.12)-1) date 2022-03-11 14:49:09*
%MOMM*%
%LPD*%
G01*
G04 APERTURE LIST*
%TA.AperFunction,Profile*%
%ADD10C,0.050000*%
%TD*%
G04 APERTURE END LIST*
D10*
X155750666Y-219169000D02*
G75*
G03*
X155750666Y-219169000I-1666666J0D01*
G01*
X151584000Y-219169000D02*
X156584000Y-219169000D01*
X154084000Y-216669000D02*
X154084000Y-221669000D01*
X273286666Y-219169000D02*
G75*
G03*
X273286666Y-219169000I-1666666J0D01*
G01*
X269120000Y-219169000D02*
X274120000Y-219169000D01*
X271620000Y-216669000D02*
X271620000Y-221669000D01*
X273286666Y-108618000D02*
G75*
G03*
X273286666Y-108618000I-1666666J0D01*
G01*
X269120000Y-108618000D02*
X274120000Y-108618000D01*
X271620000Y-106118000D02*
X271620000Y-111118000D01*
X155750666Y-108618000D02*
G75*
G03*
X155750666Y-108618000I-1666666J0D01*
G01*
X151584000Y-108618000D02*
X156584000Y-108618000D01*
X154084000Y-106118000D02*
X154084000Y-111118000D01*
X202184000Y-125603000D02*
X223393000Y-125603000D01*
X223393000Y-118618000D02*
X223520000Y-118618000D01*
X223393000Y-125603000D02*
X223393000Y-118618000D01*
X202184000Y-118618000D02*
X202184000Y-125603000D01*
X202184000Y-118618000D02*
X164084000Y-118618000D01*
X202184000Y-118618000D02*
X202184000Y-118618000D01*
X164084000Y-118618000D02*
X164084000Y-209169000D01*
X261620000Y-118618000D02*
X223520000Y-118618000D01*
X261620000Y-209169000D02*
X261620000Y-118618000D01*
X164084000Y-209169000D02*
X261620000Y-209169000D01*
M02*
